<svg xmlns="http://www.w3.org/2000/svg" width="156" height="88" viewBox="0 0 156 88" fill="none">
  <g clip-path="url(#clip0_1_15)">
    <path d="M155.88 44.5H52.38" stroke="white" stroke-width="5" stroke-linecap="round"/>
    <path d="M79.3809 0.432034C79.4185 -0.948168 80.5678 -2.0366 81.948 -1.99906C83.3282 -1.96151 84.4166 -0.81219 84.3791 0.568011L79.3809 0.432034ZM42.88 44.4898L42.3252 46.9275C41.1842 46.6678 40.376 45.6513 40.38 44.4811C40.3841 43.3109 41.1994 42.3001 42.3422 42.0483L42.88 44.4898ZM84.38 88C84.38 89.3807 83.2607 90.5 81.88 90.5C80.4993 90.5 79.38 89.3807 79.38 88H84.38ZM84.3791 0.568011C84.2038 7.01161 82.907 16.6481 77.1078 25.6902C71.2592 34.8092 61.0005 43.058 43.4178 46.9313L42.3422 42.0483C58.7595 38.4318 67.8319 30.8915 72.899 22.9909C78.0154 15.0135 79.2186 6.4 79.3809 0.432034L84.3791 0.568011ZM43.4348 42.0521C60.3002 45.8904 70.6724 52.3769 76.7669 60.6398C82.8477 68.884 84.38 78.5102 84.38 88H79.38C79.38 78.9898 77.9123 70.616 72.7431 63.6077C67.5876 56.618 58.4598 50.5994 42.3252 46.9275L43.4348 42.0521Z" fill="white"/>
    <path d="M37.3809 0.432034C37.4185 -0.948168 38.5678 -2.0366 39.948 -1.99906C41.3282 -1.96151 42.4166 -0.81219 42.3791 0.568011L37.3809 0.432034ZM0.88 44.4898L0.325232 46.9275C-0.81582 46.6678 -1.62405 45.6513 -1.61998 44.4811C-1.61592 43.3109 -0.80064 42.3001 0.342173 42.0483L0.88 44.4898ZM42.38 88C42.38 89.3807 41.2607 90.5 39.88 90.5C38.4993 90.5 37.38 89.3807 37.38 88H42.38ZM42.3791 0.568011C42.2038 7.01161 40.907 16.6481 35.1078 25.6902C29.2592 34.8092 19.0005 43.058 1.41783 46.9313L0.342173 42.0483C16.7595 38.4318 25.8319 30.8915 30.899 22.9909C36.0154 15.0135 37.2186 6.4 37.3809 0.432034L42.3791 0.568011ZM1.43477 42.0521C18.3002 45.8904 28.6724 52.3769 34.7669 60.6398C40.8477 68.884 42.38 78.5102 42.38 88H37.38C37.38 78.9898 35.9123 70.616 30.7431 63.6077C25.5876 56.618 16.4598 50.5994 0.325232 46.9275L1.43477 42.0521Z" fill="white"/>
  </g>
  <defs>
    <clipPath id="clip0_1_15">
      <rect width="155" height="88" fill="white" transform="translate(0.880005)"/>
    </clipPath>
  </defs>
</svg>