<?xml version="1.0" ?><svg data-name="Layer 1" id="Layer_1" viewBox="0 0 512 512" xmlns="http://www.w3.org/2000/svg"><title/><path d="M191.32,267.878h-46.3v50.687h46.3a25.344,25.344,0,1,0,0-50.687Z"/><path d="M212.622,212.989A23.924,23.924,0,0,0,188.7,189.064l-.1-.055-.022.055H145.023v47.85H188.7A23.925,23.925,0,0,0,212.622,212.989Z"/><path d="M334.578,240.281a30.557,30.557,0,0,0-30.339,26.928h60.679A30.557,30.557,0,0,0,334.578,240.281Z"/><path d="M256,0C114.615,0,0,114.615,0,256S114.615,512,256,512,512,397.385,512,256,397.385,0,256,0ZM203.344,349.528h-94.8V158.1h91.9a48.7,48.7,0,0,1,22.265,92.007,51.6,51.6,0,0,1-19.368,99.42Zm84.3-180.255h92.87v22.8h-92.87ZM400.986,292.137H304.542q-.022.612-.023,1.229a31.517,31.517,0,0,0,58.73,15.9l.064.037h36.85c-9.006,30.666-35.887,44.447-65.2,44.447-38.812,0-67.687-32.007-67.687-71.489s28.875-71.489,67.687-71.489S407.876,244.105,400.986,292.137Z"/></svg>