<svg width="122" height="90" viewBox="0 0 122 90" fill="none" xmlns="http://www.w3.org/2000/svg">
<path d="M3 50V33C3 16.4315 16.4315 3 33 3H50" stroke="black" stroke-width="6" stroke-linecap="round"/>
<path d="M3 50V33C3 16.4315 16.4315 3 33 3H50" stroke="url(#paint0_linear_0_1)" stroke-width="6" stroke-linecap="round"/>
<path d="M15 71C13.3431 71 12 72.3431 12 74C12 75.6569 13.3431 77 15 77V71ZM90 74C90 82.8366 97.1634 90 106 90C114.837 90 122 82.8366 122 74C122 65.1634 114.837 58 106 58C97.1634 58 90 65.1634 90 74ZM20.6875 77C22.3444 77 23.6875 75.6569 23.6875 74C23.6875 72.3431 22.3444 71 20.6875 71V77ZM32.0625 71C30.4056 71 29.0625 72.3431 29.0625 74C29.0625 75.6569 30.4056 77 32.0625 77V71ZM43.4375 77C45.0944 77 46.4375 75.6569 46.4375 74C46.4375 72.3431 45.0944 71 43.4375 71V77ZM54.8125 71C53.1556 71 51.8125 72.3431 51.8125 74C51.8125 75.6569 53.1556 77 54.8125 77V71ZM66.1875 77C67.8444 77 69.1875 75.6569 69.1875 74C69.1875 72.3431 67.8444 71 66.1875 71V77ZM77.5625 71C75.9056 71 74.5625 72.3431 74.5625 74C74.5625 75.6569 75.9056 77 77.5625 77V71ZM88.9375 77C90.5944 77 91.9375 75.6569 91.9375 74C91.9375 72.3431 90.5944 71 88.9375 71V77ZM100.313 71C98.6556 71 97.3125 72.3431 97.3125 74C97.3125 75.6569 98.6556 77 100.313 77V71ZM15 77H20.6875V71H15V77ZM32.0625 77H43.4375V71H32.0625V77ZM54.8125 77H66.1875V71H54.8125V77ZM77.5625 77H88.9375V71H77.5625V77ZM100.313 77H106V71H100.313V77Z" fill="black"/>
<path d="M15 71C13.3431 71 12 72.3431 12 74C12 75.6569 13.3431 77 15 77V71ZM90 74C90 82.8366 97.1634 90 106 90C114.837 90 122 82.8366 122 74C122 65.1634 114.837 58 106 58C97.1634 58 90 65.1634 90 74ZM20.6875 77C22.3444 77 23.6875 75.6569 23.6875 74C23.6875 72.3431 22.3444 71 20.6875 71V77ZM32.0625 71C30.4056 71 29.0625 72.3431 29.0625 74C29.0625 75.6569 30.4056 77 32.0625 77V71ZM43.4375 77C45.0944 77 46.4375 75.6569 46.4375 74C46.4375 72.3431 45.0944 71 43.4375 71V77ZM54.8125 71C53.1556 71 51.8125 72.3431 51.8125 74C51.8125 75.6569 53.1556 77 54.8125 77V71ZM66.1875 77C67.8444 77 69.1875 75.6569 69.1875 74C69.1875 72.3431 67.8444 71 66.1875 71V77ZM77.5625 71C75.9056 71 74.5625 72.3431 74.5625 74C74.5625 75.6569 75.9056 77 77.5625 77V71ZM88.9375 77C90.5944 77 91.9375 75.6569 91.9375 74C91.9375 72.3431 90.5944 71 88.9375 71V77ZM100.313 71C98.6556 71 97.3125 72.3431 97.3125 74C97.3125 75.6569 98.6556 77 100.313 77V71ZM15 77H20.6875V71H15V77ZM32.0625 77H43.4375V71H32.0625V77ZM54.8125 77H66.1875V71H54.8125V77ZM77.5625 77H88.9375V71H77.5625V77ZM100.313 77H106V71H100.313V77Z" fill="url(#paint1_linear_0_1)"/>
<g filter="url(#filter0_dd_0_1)">
<path d="M54.8906 55.2843C54.9304 55.5214 54.9503 55.7584 54.9503 55.9955C54.9902 56.193 55.0101 56.4301 55.0101 56.7066C55.0101 57.1807 54.8706 57.6153 54.5916 58.0104C54.472 58.208 54.3126 58.4055 54.1133 58.6031C53.914 58.7611 53.6748 58.8994 53.3958 59.0179C52.3993 59.571 51.343 59.7686 50.2269 59.6106C49.6689 59.4525 49.1706 59.1957 48.7322 58.8401C48.6524 58.7611 48.5927 58.7216 48.5528 58.7216C48.5129 58.6821 48.4731 58.6228 48.4332 58.5438C48.3934 58.5043 48.3535 58.4648 48.3136 58.4253C48.2738 58.3463 48.214 58.287 48.1343 58.2475C47.935 58.0499 47.7755 57.8722 47.6559 57.7141C47.5364 57.5166 47.4168 57.319 47.2972 57.1215C47.2175 56.9239 47.1178 56.7461 46.9983 56.5881C46.9185 56.3906 46.8189 56.193 46.6993 55.9955C46.6196 55.8374 46.5399 55.6992 46.4601 55.5806C46.3804 55.4226 46.3206 55.2646 46.2808 55.1065C46.1213 54.7509 46.0217 54.4349 45.9818 54.1583L44.7262 51.2544C41.9759 51.2544 39.2255 51.2741 36.4752 51.3136C33.7647 51.3136 31.0343 51.2939 28.2839 51.2544L27.0283 54.1583C26.9486 54.3163 26.8888 54.4744 26.849 54.6324C26.849 54.7904 26.8091 54.9485 26.7294 55.1065C26.6497 55.2646 26.5699 55.4226 26.4902 55.5806C26.4503 55.6992 26.3906 55.8374 26.3108 55.9955C26.1913 56.193 26.0717 56.3906 25.9521 56.5881C25.8724 56.7461 25.7727 56.9239 25.6531 57.1215C25.5734 57.319 25.4738 57.5166 25.3542 57.7141C25.2346 57.8722 25.0752 58.0499 24.8759 58.2475C24.7962 58.287 24.7364 58.3463 24.6965 58.4253C24.6566 58.4648 24.6168 58.5043 24.5769 58.5438C24.5371 58.6228 24.4972 58.6821 24.4573 58.7216C24.4175 58.7216 24.3577 58.7611 24.278 58.8401C23.8395 59.1957 23.3413 59.4525 22.7832 59.6106C21.6671 59.7686 20.6108 59.571 19.6143 59.0179C19.3353 58.8994 19.0962 58.7611 18.8969 58.6031C18.6976 58.4055 18.5381 58.208 18.4185 58.0104C18.1395 57.6153 18 57.1807 18 56.7066C18 56.4301 18 56.193 18 55.9955C18.0399 55.7584 18.0797 55.5214 18.1196 55.2843C18.1993 54.9287 18.299 54.5731 18.4185 54.2176C18.5381 53.862 18.5979 53.6842 18.5979 53.6842L31.0343 23.3412L31.393 22.393C31.4727 22.1559 31.5724 21.9386 31.692 21.7411C31.8115 21.5435 31.9112 21.3065 31.9909 21.0299C32.1902 20.5163 32.4094 20.062 32.6486 19.6669C32.7682 19.4298 32.9077 19.2125 33.0671 19.015C33.2266 18.8174 33.386 18.6199 33.5455 18.4223C33.7846 18.1063 34.1234 17.8494 34.5619 17.6519C35.1199 17.4544 35.7577 17.3556 36.4752 17.3556C37.2325 17.3556 37.8902 17.4544 38.4483 17.6519C38.8867 17.8494 39.2255 18.1063 39.4647 18.4223C39.7437 18.7779 40.0427 19.1928 40.3615 19.6669C40.6007 20.062 40.8199 20.5163 41.0192 21.0299C41.099 21.3065 41.1986 21.5435 41.3182 21.7411C41.4378 21.9386 41.5374 22.1559 41.6171 22.393L41.9759 23.3412L54.4122 53.6842C54.4122 53.6842 54.472 53.862 54.5916 54.2176C54.7112 54.5731 54.8108 54.9287 54.8906 55.2843ZM40.7203 40.7647C40.2021 39.619 39.664 38.4337 39.1059 37.2089C38.5878 35.9841 38.0297 34.7396 37.4318 33.4753C37.2724 33.1197 37.1129 32.7641 36.9535 32.4085C36.7941 32.0135 36.6346 31.6381 36.4752 31.2825C36.3556 31.6381 36.2161 32.0135 36.0566 32.4085C35.8972 32.7641 35.7378 33.1197 35.5783 33.4753C34.9804 34.7396 34.4024 35.9841 33.8444 37.2089C33.3262 38.4337 32.808 39.619 32.2899 40.7647L31.2136 43.3723H41.7965L40.7203 40.7647Z" fill="white"/>
<path d="M88.7449 55.0473C89.0638 55.6399 89.0837 56.2325 88.8047 56.8252C88.6054 57.4573 88.2666 57.9314 87.7883 58.2475C87.5491 58.445 87.3299 58.6228 87.1306 58.7809C86.9313 58.8994 86.712 58.9982 86.4729 59.0772C86.0344 59.3142 85.5162 59.3933 84.9183 59.3142C84.6792 59.3142 84.4599 59.2747 84.2606 59.1957C84.0613 59.1167 83.862 59.0179 83.6627 58.8994C83.4634 58.7809 83.2442 58.6623 83.005 58.5438C82.8057 58.3858 82.6064 58.2277 82.4071 58.0697C82.168 57.8722 81.9487 57.6944 81.7494 57.5363C81.5501 57.3783 81.3708 57.2005 81.2113 57.003C81.012 56.8054 80.8327 56.6079 80.6732 56.4103C80.5138 56.2128 80.3543 56.035 80.1949 55.8769L79.4774 55.1065L67.9977 43.1945L68.1771 55.1065V55.6399C68.1771 55.7979 68.1571 55.9757 68.1173 56.1733C68.0774 56.3313 68.0376 56.5091 67.9977 56.7066C67.8781 57.2203 67.7386 57.6746 67.5792 58.0697C67.4994 58.3068 67.3799 58.5043 67.2204 58.6623C67.1008 58.8204 66.9613 58.9784 66.8019 59.1364C66.3634 59.5315 65.8452 59.7488 65.2473 59.7883C64.6494 59.9859 64.0914 60.0452 63.5732 59.9661C63.0949 59.9266 62.5966 59.7883 62.0785 59.5513C61.6799 59.3142 61.3211 58.9191 61.0022 58.366C60.9225 58.208 60.8627 58.1092 60.8229 58.0697C60.8229 58.0302 60.783 57.8919 60.7033 57.6548C60.4641 57.2598 60.3445 56.8647 60.3445 56.4696C60.3047 56.2325 60.2648 56.0152 60.225 55.8177C60.225 55.6201 60.205 55.4028 60.1652 55.1658C60.1253 55.0077 60.1054 54.8497 60.1054 54.6917C60.1054 54.5336 60.1054 54.3756 60.1054 54.2176C60.1452 54.02 60.1652 53.862 60.1652 53.7435C60.1652 53.5854 60.1652 53.4076 60.1652 53.2101L60.1054 48.5283L60.0456 39.8165C60.0456 37.2879 59.9858 34.5618 59.8662 31.6381C59.8264 30.2158 59.8064 28.9515 59.8064 27.8452C59.8064 26.739 59.8264 25.4945 59.8662 24.1116V23.8746C59.9459 23.44 59.9858 23.0251 59.9858 22.63C59.9858 22.1954 60.0057 21.7806 60.0456 21.3855C60.0456 20.5953 60.225 19.8051 60.5837 19.015C60.8229 18.4223 61.2414 17.9482 61.8393 17.5926C62.1582 17.3951 62.4571 17.2766 62.7362 17.2371C63.055 17.158 63.3938 17.079 63.7526 17C64.0316 17 64.2907 17.0198 64.5299 17.0593C64.8089 17.0988 65.068 17.1383 65.3071 17.1778C65.8253 17.2568 66.3036 17.4741 66.7421 17.8297C66.8617 17.9482 66.9613 18.0865 67.0411 18.2445C67.1606 18.4026 67.2603 18.6001 67.34 18.8372C67.5393 19.1532 67.6788 19.6076 67.7585 20.2002C67.7984 20.4373 67.8183 20.6743 67.8183 20.9114C67.8582 21.1485 67.8781 21.4053 67.8781 21.6818V24.1116L67.9379 31.3418C68.5757 30.7887 69.1935 30.2158 69.7914 29.6232C70.4292 29.0305 71.047 28.3984 71.6449 27.7267C72.7211 26.6205 73.7774 25.5537 74.8138 24.5265C75.89 23.4597 76.9662 22.4127 78.0424 21.3855L78.2218 21.2077C78.5407 20.8916 78.8596 20.5953 79.1785 20.3188C79.5372 20.0027 79.876 19.7064 80.1949 19.4298C80.7928 18.7582 81.5302 18.284 82.4071 18.0075C82.9652 17.6519 83.6229 17.5136 84.3802 17.5926C84.7389 17.6321 85.0578 17.7112 85.3369 17.8297C85.6557 17.9482 85.9547 18.1063 86.2337 18.3038C86.433 18.5013 86.6323 18.6791 86.8316 18.8372C87.0309 18.9557 87.1903 19.1137 87.3099 19.3113C87.6288 19.5878 87.8281 20.0027 87.9078 20.5558C87.9078 20.9904 87.8281 21.3855 87.6687 21.7411C87.5491 21.9386 87.4295 22.1362 87.3099 22.3337C87.1903 22.5313 87.0508 22.7288 86.8914 22.9264C86.6921 23.1634 86.5127 23.3807 86.3533 23.5783C86.1938 23.7758 86.0145 23.9734 85.8152 24.1709C85.6557 24.3684 85.4764 24.5462 85.2771 24.7043C85.1176 24.8623 84.9582 25.0401 84.7987 25.2376L84.0215 26.0081L72.8407 37.3274C73.4386 37.9201 74.0564 38.5522 74.6942 39.2239C75.3718 39.856 76.0096 40.4882 76.6075 41.1203C77.2054 41.7129 77.7634 42.2858 78.2816 42.8389C78.7998 43.3526 79.2382 43.7872 79.597 44.1427C80.6732 45.249 81.7096 46.3553 82.7061 47.4615C83.7026 48.5283 84.6792 49.6148 85.6358 50.721L85.8152 50.8988C86.1341 51.2149 86.433 51.5507 86.712 51.9063C86.991 52.2224 87.2501 52.5384 87.4893 52.8545C88.0872 53.5262 88.5057 54.2571 88.7449 55.0473Z" fill="white"/>
</g>
<defs>
<filter id="filter0_dd_0_1" x="15" y="14" width="77" height="49" filterUnits="userSpaceOnUse" color-interpolation-filters="sRGB">
<feFlood flood-opacity="0" result="BackgroundImageFix"/>
<feColorMatrix in="SourceAlpha" type="matrix" values="0 0 0 0 0 0 0 0 0 0 0 0 0 0 0 0 0 0 127 0" result="hardAlpha"/>
<feOffset dx="1" dy="1"/>
<feGaussianBlur stdDeviation="1"/>
<feComposite in2="hardAlpha" operator="out"/>
<feColorMatrix type="matrix" values="0 0 0 0 1 0 0 0 0 1 0 0 0 0 1 0 0 0 0.25 0"/>
<feBlend mode="normal" in2="BackgroundImageFix" result="effect1_dropShadow_0_1"/>
<feColorMatrix in="SourceAlpha" type="matrix" values="0 0 0 0 0 0 0 0 0 0 0 0 0 0 0 0 0 0 127 0" result="hardAlpha"/>
<feOffset dx="-1" dy="-1"/>
<feGaussianBlur stdDeviation="1"/>
<feComposite in2="hardAlpha" operator="out"/>
<feColorMatrix type="matrix" values="0 0 0 0 1 0 0 0 0 1 0 0 0 0 1 0 0 0 0.25 0"/>
<feBlend mode="normal" in2="effect1_dropShadow_0_1" result="effect2_dropShadow_0_1"/>
<feBlend mode="normal" in="SourceGraphic" in2="effect2_dropShadow_0_1" result="shape"/>
</filter>
<linearGradient id="paint0_linear_0_1" x1="40.8381" y1="2.88208" x2="3.96829" y2="52.7812" gradientUnits="userSpaceOnUse">
<stop offset="0.008" stop-color="#FB95DE"/>
<stop offset="0.27" stop-color="#EC34D9"/>
<stop offset="0.609" stop-color="#8214E3"/>
<stop offset="0.985" stop-color="#681CE3"/>
</linearGradient>
<linearGradient id="paint1_linear_0_1" x1="68.0681" y1="27.8846" x2="41.1956" y2="92.148" gradientUnits="userSpaceOnUse">
<stop offset="0.008" stop-color="#FB95DE"/>
<stop offset="0.27" stop-color="#EC34D9"/>
<stop offset="0.609" stop-color="#8214E3"/>
<stop offset="0.985" stop-color="#681CE3"/>
</linearGradient>
</defs>
</svg>
