<svg xmlns="http://www.w3.org/2000/svg" width="47" height="47" viewBox="0 0 47 47" fill="none">
  <path fill-rule="evenodd" clip-rule="evenodd" d="M3.52412 11.5691L8.32212 15.505C14.7591 20.7853 17.1127 29.5859 14.1733 37.3834L11.9822 43.1955L15.9202 38.392C21.2033 31.9475 30.0015 29.5855 37.7929 32.5199L43.6005 34.7072L38.8024 30.7714C32.3655 25.491 30.0119 16.6905 32.9514 8.89293L35.1424 3.08076L31.2045 7.88436C25.9214 14.3289 17.1231 16.6908 9.33165 13.7564L3.52412 11.5691ZM7.72092 16.2383L0.699503 10.4785L1.16733 9.66818L9.66612 12.8691C17.0775 15.6604 25.4466 13.4136 30.472 7.2835L36.2348 0.253853L37.0444 0.721256L33.838 9.22683C31.0418 16.6441 33.2806 25.0153 39.4037 30.0381L46.4251 35.7978L45.9573 36.6081L37.4585 33.4073C30.0471 30.616 21.678 32.8627 16.6525 38.9928L10.8898 46.0224L10.0802 45.555L13.2866 37.0495C16.0827 29.6323 13.8439 21.261 7.72092 16.2383Z" fill="#EC6FD5"/>
</svg>