<svg width="942" height="393" viewBox="0 0 942 393" fill="none" xmlns="http://www.w3.org/2000/svg">
<ellipse cx="184.5" cy="178.5" rx="184.5" ry="178.5" fill="url(#paint0_radial_474_230)" fill-opacity="0.2" style=""/>
<g filter="url(#filter0_d_474_230)">
<path d="M390.181 157.032H443.759V170.962H390.181V157.032ZM385.895 194H369.018L407.326 100.24H426.614L465.19 194H448.313L417.238 115.509L385.895 194ZM473.808 194V127.028H488.542V153.549H524.037V127.028H538.771V194H524.037V167.211H488.542V194H473.808ZM547.173 180.204H623.788V209.537H609.054V194H561.906V209.537H547.173V180.204ZM550.387 180.204C554.584 180.204 557.799 178.864 560.031 176.186C562.353 173.507 563.514 170.069 563.514 165.872V127.028H614.412V194H599.678V141.494H578.247V167.747C578.247 173.73 575.747 178.954 570.747 183.418C565.835 187.794 559.495 189.982 551.727 189.982H547.708V180.204H550.387ZM632.086 127.028H646.82V220.789H632.086V127.028ZM653.116 144.843C648.919 148.95 646.82 154.174 646.82 160.514C646.82 166.854 648.919 172.123 653.116 176.319C657.402 180.427 662.626 182.481 668.787 182.481C674.948 182.481 680.127 180.427 684.324 176.319C688.611 172.123 690.754 166.854 690.754 160.514C690.754 154.174 688.611 148.95 684.324 144.843C680.127 140.646 674.948 138.547 668.787 138.547C662.626 138.547 657.402 140.646 653.116 144.843ZM650.169 186.365C644.097 179.489 641.061 170.872 641.061 160.514C641.061 150.156 644.097 141.583 650.169 134.797C656.241 127.921 663.742 124.483 672.671 124.483C681.958 124.483 689.727 127.921 695.977 134.797C702.317 141.673 705.487 150.245 705.487 160.514C705.487 170.783 702.317 179.356 695.977 186.231C689.727 193.107 681.958 196.545 672.671 196.545C663.742 196.545 656.241 193.152 650.169 186.365ZM767.462 153.683C766.748 148.861 764.516 145.066 760.765 142.298C757.104 139.44 752.639 138.012 747.371 138.012C742.281 138.012 737.95 139.396 734.378 142.164C730.807 144.932 728.574 148.772 727.681 153.683H767.462ZM727.681 166.943C728.574 171.855 730.851 175.739 734.512 178.597C738.173 181.365 742.594 182.749 747.773 182.749C751.702 182.749 755.274 181.856 758.488 180.07C761.792 178.284 764.248 175.828 765.855 172.703L779.383 177.927C776.526 183.552 772.24 188.062 766.525 191.455C760.899 194.759 754.693 196.411 747.907 196.411C737.816 196.411 729.333 193.018 722.457 186.231C715.582 179.356 712.144 170.694 712.144 160.246C712.144 149.977 715.492 141.45 722.19 134.663C728.887 127.787 737.147 124.349 746.969 124.349C756.881 124.349 765.275 127.743 772.15 134.529C779.026 141.316 782.464 149.799 782.464 159.978C782.464 161.943 782.152 164.265 781.527 166.943H727.681ZM824.218 117.116C817.521 117.116 811.806 114.973 807.073 110.687C802.43 106.312 800.108 100.999 800.108 94.7479H811.761C811.761 98.1411 812.922 100.954 815.244 103.186C817.655 105.329 820.691 106.401 824.352 106.401C828.102 106.401 831.272 105.285 833.862 103.052C836.451 100.731 837.746 97.9625 837.746 94.7479H849.399C849.399 100.731 846.899 105.954 841.898 110.419C836.898 114.884 831.004 117.116 824.218 117.116ZM856.096 194H841.363V145.512L808.948 194H791.804V127.028H806.537V174.176L838.952 127.028H856.096V194Z" fill="url(#paint1_linear_474_230)" style=""/>
</g>
<g filter="url(#filter1_d_474_230)">
<path d="M372.731 318V219.601H388.194V261.21H392.692L430.927 219.601H451.169L406.046 268.941L451.169 318H430.927L392.692 277.094H388.194V318H372.731ZM527.446 318H511.984V267.114L477.966 318H459.973V247.715H475.435V297.196L509.453 247.715H527.446V318ZM581.403 261.491H555.538V276.672H582.528C584.964 276.672 586.979 276.016 588.572 274.704C590.259 273.299 591.102 271.612 591.102 269.644C591.102 267.301 590.165 265.38 588.291 263.881C586.511 262.287 584.215 261.491 581.403 261.491ZM582.809 288.621H555.538V304.224H582.809C585.527 304.224 587.822 303.474 589.697 301.975C591.571 300.476 592.508 298.648 592.508 296.493C592.508 294.244 591.571 292.369 589.697 290.87C587.916 289.371 585.62 288.621 582.809 288.621ZM584.215 318H540.076V247.715H582.809C589.65 247.715 595.32 249.542 599.818 253.197C604.316 256.852 606.565 261.397 606.565 266.833C606.565 270.019 605.722 272.877 604.035 275.407C602.442 277.938 600.193 279.906 597.288 281.311C600.568 282.998 603.145 285.388 605.019 288.48C606.987 291.479 607.971 294.853 607.971 298.601C607.971 304.13 605.722 308.769 601.223 312.518C596.725 316.173 591.056 318 584.215 318ZM673.089 275.688C672.339 270.628 669.996 266.645 666.06 263.74C662.218 260.741 657.532 259.242 652.003 259.242C646.662 259.242 642.117 260.694 638.368 263.599C634.619 266.505 632.277 270.534 631.34 275.688H673.089ZM631.34 289.605C632.277 294.759 634.666 298.836 638.509 301.834C642.351 304.74 646.99 306.192 652.425 306.192C656.548 306.192 660.297 305.255 663.671 303.381C667.138 301.506 669.715 298.929 671.402 295.649L685.6 301.132C682.601 307.036 678.102 311.768 672.105 315.329C666.201 318.797 659.688 320.53 652.566 320.53C641.976 320.53 633.073 316.969 625.857 309.847C618.641 302.631 615.033 293.541 615.033 282.576C615.033 271.799 618.548 262.85 625.576 255.727C632.605 248.512 641.273 244.904 651.582 244.904C661.984 244.904 670.793 248.465 678.009 255.587C685.225 262.709 688.833 271.612 688.833 282.295C688.833 284.357 688.505 286.793 687.849 289.605H631.34ZM698.634 247.715H714.097V346.114H698.634V247.715ZM720.704 266.411C716.299 270.722 714.097 276.204 714.097 282.857C714.097 289.511 716.299 295.04 720.704 299.445C725.202 303.756 730.684 305.911 737.15 305.911C743.617 305.911 749.052 303.756 753.456 299.445C757.955 295.04 760.204 289.511 760.204 282.857C760.204 276.204 757.955 270.722 753.456 266.411C749.052 262.006 743.617 259.804 737.15 259.804C730.684 259.804 725.202 262.006 720.704 266.411ZM717.611 309.988C711.239 302.772 708.052 293.728 708.052 282.857C708.052 271.987 711.239 262.99 717.611 255.868C723.984 248.652 731.856 245.044 741.227 245.044C750.973 245.044 759.126 248.652 765.686 255.868C772.34 263.084 775.666 272.08 775.666 282.857C775.666 293.635 772.34 302.631 765.686 309.847C759.126 317.063 750.973 320.671 741.227 320.671C731.856 320.671 723.984 317.11 717.611 309.988ZM852.937 318H837.474V267.114L803.457 318H785.464V247.715H800.926V297.196L834.944 247.715H852.937V318ZM865.566 318V247.715H881.029V275.548H918.28V247.715H933.743V318H918.28V289.886H881.029V318H865.566Z" fill="white" style="fill:white;fill-opacity:1;"/>
<path d="M372.731 318V219.601H388.194V261.21H392.692L430.927 219.601H451.169L406.046 268.941L451.169 318H430.927L392.692 277.094H388.194V318H372.731ZM527.446 318H511.984V267.114L477.966 318H459.973V247.715H475.435V297.196L509.453 247.715H527.446V318ZM581.403 261.491H555.538V276.672H582.528C584.964 276.672 586.979 276.016 588.572 274.704C590.259 273.299 591.102 271.612 591.102 269.644C591.102 267.301 590.165 265.38 588.291 263.881C586.511 262.287 584.215 261.491 581.403 261.491ZM582.809 288.621H555.538V304.224H582.809C585.527 304.224 587.822 303.474 589.697 301.975C591.571 300.476 592.508 298.648 592.508 296.493C592.508 294.244 591.571 292.369 589.697 290.87C587.916 289.371 585.62 288.621 582.809 288.621ZM584.215 318H540.076V247.715H582.809C589.65 247.715 595.32 249.542 599.818 253.197C604.316 256.852 606.565 261.397 606.565 266.833C606.565 270.019 605.722 272.877 604.035 275.407C602.442 277.938 600.193 279.906 597.288 281.311C600.568 282.998 603.145 285.388 605.019 288.48C606.987 291.479 607.971 294.853 607.971 298.601C607.971 304.13 605.722 308.769 601.223 312.518C596.725 316.173 591.056 318 584.215 318ZM673.089 275.688C672.339 270.628 669.996 266.645 666.06 263.74C662.218 260.741 657.532 259.242 652.003 259.242C646.662 259.242 642.117 260.694 638.368 263.599C634.619 266.505 632.277 270.534 631.34 275.688H673.089ZM631.34 289.605C632.277 294.759 634.666 298.836 638.509 301.834C642.351 304.74 646.99 306.192 652.425 306.192C656.548 306.192 660.297 305.255 663.671 303.381C667.138 301.506 669.715 298.929 671.402 295.649L685.6 301.132C682.601 307.036 678.102 311.768 672.105 315.329C666.201 318.797 659.688 320.53 652.566 320.53C641.976 320.53 633.073 316.969 625.857 309.847C618.641 302.631 615.033 293.541 615.033 282.576C615.033 271.799 618.548 262.85 625.576 255.727C632.605 248.512 641.273 244.904 651.582 244.904C661.984 244.904 670.793 248.465 678.009 255.587C685.225 262.709 688.833 271.612 688.833 282.295C688.833 284.357 688.505 286.793 687.849 289.605H631.34ZM698.634 247.715H714.097V346.114H698.634V247.715ZM720.704 266.411C716.299 270.722 714.097 276.204 714.097 282.857C714.097 289.511 716.299 295.04 720.704 299.445C725.202 303.756 730.684 305.911 737.15 305.911C743.617 305.911 749.052 303.756 753.456 299.445C757.955 295.04 760.204 289.511 760.204 282.857C760.204 276.204 757.955 270.722 753.456 266.411C749.052 262.006 743.617 259.804 737.15 259.804C730.684 259.804 725.202 262.006 720.704 266.411ZM717.611 309.988C711.239 302.772 708.052 293.728 708.052 282.857C708.052 271.987 711.239 262.99 717.611 255.868C723.984 248.652 731.856 245.044 741.227 245.044C750.973 245.044 759.126 248.652 765.686 255.868C772.34 263.084 775.666 272.08 775.666 282.857C775.666 293.635 772.34 302.631 765.686 309.847C759.126 317.063 750.973 320.671 741.227 320.671C731.856 320.671 723.984 317.11 717.611 309.988ZM852.937 318H837.474V267.114L803.457 318H785.464V247.715H800.926V297.196L834.944 247.715H852.937V318ZM865.566 318V247.715H881.029V275.548H918.28V247.715H933.743V318H918.28V289.886H881.029V318H865.566Z" fill="url(#paint2_linear_474_230)" style=""/>
</g>
<mask id="mask0_474_230" style="mask-type:luminance" maskUnits="userSpaceOnUse" x="15" y="43" width="293" height="350">
<path d="M307.136 43H15V392.022H307.136V43Z" fill="white" style="fill:white;fill-opacity:1;"/>
</mask>
<g mask="url(#mask0_474_230)">
<path d="M49.5814 149.916C47.8869 149.916 46.1925 149.724 44.5301 149.341C43.2193 149.021 41.9725 148.509 40.8535 147.773C39.6706 146.974 38.9353 146.046 38.6476 144.926C38.5836 144.702 38.5197 144.446 38.5197 144.191C38.4877 142.847 38.8074 141.536 39.4468 140.384C39.7665 139.808 40.31 139.488 40.9174 139.488C37.0147 138.4 33.3792 136.516 30.2394 133.954L30.2075 133.922C30.1755 133.89 30.1435 133.89 30.1435 133.858C30.0796 133.826 30.0156 133.763 29.9517 133.699L29.8558 133.603L29.7918 133.539C29.664 133.475 29.5681 133.379 29.4721 133.251C29.3123 133.123 29.1844 132.963 29.1205 132.771C28.9606 132.355 29.0246 131.875 29.2803 131.523L29.3762 131.395C29.632 131.076 29.9837 130.884 30.3993 130.884H30.5591C29.6959 130.532 28.8647 130.052 28.0974 129.476C25.4439 127.621 23.174 125.158 21.1919 121.959C19.6253 119.4 18.6982 116.969 18.4105 114.538C18.1547 112.97 18.2826 111.339 18.8261 109.804V109.772C19.1138 109.036 19.5294 108.364 20.1049 107.756C20.9681 106.829 22.2149 106.285 23.5257 106.285C23.8134 106.285 24.1012 106.317 24.3889 106.349C25.6997 106.541 26.7547 107.021 27.5859 107.788C27.5859 107.724 27.5539 107.66 27.5539 107.596C26.7227 105.101 25.5718 102.702 24.1651 100.463C23.7815 99.8554 23.4298 99.2796 23.0461 98.7038C22.183 97.3603 21.2878 95.9528 20.4566 94.5134C18.6662 91.3466 17.4833 87.9239 16.9718 84.3093C16.748 82.6459 16.4923 80.9505 16.6202 79.1592C16.748 76.8241 17.2915 74.521 18.2506 72.3458C18.4744 71.866 18.7622 71.4181 19.0819 71.0023C19.7852 70.0427 20.8722 69.4669 22.087 69.4669C22.6305 69.4669 23.206 69.5948 23.6856 69.8507C24.9324 70.3945 26.0833 71.2262 26.9785 72.2818C28.2253 73.7533 29.2803 75.3526 30.1435 77.08C31.5502 79.831 32.7651 82.7099 33.6922 84.885C34.0119 85.6847 34.3316 86.4844 34.6833 87.2521C35.3866 88.9795 36.1219 90.7708 36.9212 92.4342V92.4662C37.5606 93.9056 38.2959 95.3131 39.0952 96.6886C39.4788 97.3283 39.9264 97.9041 40.4699 98.4159C40.9174 98.8318 41.2371 99.0237 41.5568 99.0237C41.9725 99.0237 42.3881 99.1836 42.6758 99.5035C42.42 96.5926 41.8446 93.7457 40.9494 90.9627C40.6617 90.0991 40.374 89.2354 40.0862 88.4037C39.6706 87.1882 39.223 85.9406 38.8714 84.6611C37.9123 81.3664 37.4327 77.9437 37.4647 74.489V73.6893C37.4647 72.5377 37.4647 71.3542 37.5926 70.1706C37.7204 68.6672 38.0721 67.1957 38.7115 65.7883C38.7115 65.7883 38.7115 65.7563 38.7435 65.7563C39.7346 63.7091 41.3331 63.2612 42.516 63.2612C42.9316 63.2612 43.3472 63.3252 43.7948 63.4212C45.9048 63.901 47.791 65.1165 49.0698 66.9078C50.0609 68.2833 50.8602 69.7548 51.4676 71.3222C52.4906 73.8492 53.2259 76.4722 53.9293 79.0313L54.0252 79.4151C54.4088 80.7586 54.7605 82.1021 55.1122 83.4456C55.336 84.2453 55.5278 85.013 55.7516 85.8127L56.2631 87.636C56.7427 89.4593 57.2542 91.3146 57.7657 93.1379C58.3092 95.1212 59.2683 96.9765 60.5791 98.5439L60.707 98.6718C60.8029 98.7678 60.8988 98.8637 60.9627 98.9597L60.9947 98.9917C61.1545 99.1196 61.4423 99.3755 61.6341 99.8554C61.698 100.015 61.73 100.175 61.73 100.335C61.9538 100.239 62.1776 100.143 62.4333 100.111C62.849 100.047 63.2326 100.015 63.6482 100.015C65.1508 100.015 66.6214 100.399 67.9002 101.167C69.9463 102.286 71.5129 104.014 72.6638 106.445C73.8467 108.908 74.4541 111.563 74.4861 114.282C74.614 119.848 73.0474 125.19 69.7545 130.116C68.0921 132.675 65.9501 134.85 63.3925 136.545C62.2735 137.281 61.0906 137.889 59.8757 138.369C60.8029 138.177 61.698 137.857 62.5293 137.441C64.0958 136.673 65.5025 135.714 66.7813 134.562L66.8452 134.498C66.8772 134.466 66.9411 134.402 67.0051 134.37C67.2928 134.114 67.6445 133.826 68.2199 133.826C68.8274 133.826 69.211 134.178 69.4668 134.434L69.4987 134.466C69.5627 134.53 69.6266 134.594 69.6906 134.626C71.353 136.034 71.8006 138.337 70.8095 140.256C70.8095 140.256 70.8095 140.288 70.7775 140.288C69.9463 141.759 68.8593 143.039 67.5166 144.063C65.2147 145.854 62.6252 147.197 59.8438 148.093C57.1583 148.989 54.3449 149.533 51.4676 149.724C50.7962 149.884 50.1888 149.916 49.5814 149.916ZM36.1539 132.387C36.5695 132.451 36.9851 132.451 37.4007 132.451C37.7844 132.451 38.2 132.419 38.5836 132.387C40.7576 132.067 42.1963 130.724 42.6438 128.58C42.8357 127.621 42.7717 126.565 42.516 125.574C42.1323 124.006 41.4929 122.535 40.5977 121.223C39.7665 119.944 38.7754 118.728 37.7204 117.641C39.255 119.368 40.4699 121.255 41.397 123.334C42.0364 124.71 42.3561 126.277 42.3241 127.813C42.3241 128.389 42.1963 128.964 41.9725 129.508C41.5888 130.468 40.6937 131.715 38.7115 132.163C38.0721 132.291 37.4327 132.355 36.8253 132.355C36.6015 132.387 36.3777 132.387 36.1539 132.387ZM31.8379 131.363C31.806 131.363 31.774 131.331 31.742 131.331H31.774C31.806 131.331 31.806 131.363 31.8379 131.363ZM46.9918 123.622C48.4624 124.902 50.2527 125.606 52.3628 125.702H52.8423C54.6326 125.702 56.391 125.254 57.9575 124.39C58.8847 123.91 59.7159 123.334 60.5151 122.727C59.9397 123.143 59.3642 123.526 58.7568 123.878C57.2222 124.806 55.4639 125.382 53.6416 125.574C53.2899 125.606 52.9382 125.638 52.5865 125.638C50.4765 125.606 48.5903 124.934 46.9918 123.622ZM44.7219 120.807C44.7219 120.839 44.7219 120.871 44.7539 120.903C44.7858 120.935 44.7858 120.967 44.8178 120.999C44.9777 121.287 45.1695 121.543 45.3293 121.799C45.1695 121.447 45.0736 121.063 45.0736 120.647C45.0736 118.952 45.7769 117.577 46.3843 116.553C47.2795 115.146 48.3985 113.93 49.7092 112.97C49.8051 112.906 49.9011 112.81 49.997 112.746L49.965 112.778C47.7271 114.314 46.0646 116.457 45.1375 118.984C45.0096 119.56 44.8498 120.168 44.7219 120.807Z" fill="#F7F6F5" style="fill:#F7F6F5;fill:color(display-p3 0.9686 0.9647 0.9608);fill-opacity:1;"/>
<path d="M116.686 369.929C116.366 369.929 116.046 369.801 115.791 369.577L115.343 369.161C115.023 368.841 114.895 368.361 114.991 367.914C115.439 366.314 115.471 364.587 115.087 362.412C115.055 362.22 115.023 361.996 114.991 361.804C114.736 360.269 114.512 358.829 113.681 357.741C112.498 356.174 112.05 354.543 111.762 353.007C110.771 347.729 108.565 342.579 104.793 336.821C96.3208 323.93 85.2592 314.014 71.9916 307.329C66.3968 304.514 61.1857 302.978 55.9745 302.594C55.5589 302.562 55.1433 302.562 54.6957 302.562C53.6407 302.562 52.5857 302.626 51.5307 302.754H51.3708C50.8593 302.754 50.4117 302.466 50.1879 301.987C49.9641 301.475 50.092 300.867 50.5396 300.483C52.5857 298.788 54.7597 298.308 56.6779 297.924C57.0296 297.86 57.4132 297.764 57.7649 297.668C57.8608 297.636 57.9567 297.636 58.0526 297.636C58.2444 297.636 58.4362 297.668 58.6281 297.764C59.3314 298.116 60.0987 298.308 60.8979 298.308H60.9619C62.9121 298.404 64.8622 298.724 66.7485 299.332C70.1693 300.451 73.5261 301.827 76.7551 303.458C78.1298 304.13 79.5045 304.897 80.8153 305.633C81.9982 306.305 83.2131 306.977 84.4279 307.584C89.767 310.303 94.8182 313.534 99.4859 317.245C99.5818 317.341 99.6777 317.437 99.7416 317.533C99.9335 317.821 100.253 318.045 100.637 318.332C100.829 318.46 101.02 318.588 101.212 318.748H101.308C101.628 318.748 101.948 318.876 102.171 319.1C104.122 320.923 105.816 323.003 107.478 324.986L109.013 326.809C109.109 326.937 109.205 327.065 109.301 327.161C109.429 327.097 109.588 327.065 109.716 327.033H109.876C110.356 327.033 110.771 327.289 110.995 327.705C111.443 328.537 112.018 329.304 112.69 329.944C113.713 330.968 114.608 332.119 115.311 333.399C115.535 333.815 115.535 334.326 115.279 334.71C115.215 334.806 115.151 334.902 115.055 334.966C115.247 335.286 115.471 335.606 115.663 335.958C115.855 336.278 116.078 336.597 116.27 336.949C119.819 342.611 121.961 348.145 122.856 353.775C123.208 355.982 123.24 358.221 122.952 360.46C122.568 363.179 121.609 365.259 120.043 366.858C119.723 367.178 119.435 367.498 119.116 367.85C118.604 368.457 118.061 369.065 117.389 369.609C117.261 369.801 116.974 369.929 116.686 369.929ZM134.11 352.112C133.79 352.112 133.47 352.08 133.182 352.016H133.15C131.712 351.664 130.913 350.64 130.976 349.297C131.36 342.419 127.843 336.821 124.774 332.727C121.226 327.961 117.197 322.587 114.064 316.637C113.713 315.965 113.297 315.326 112.881 314.622L112.306 313.662C112.018 313.214 112.082 312.607 112.402 312.191C112.658 311.871 113.009 311.711 113.393 311.711C113.521 311.711 113.681 311.743 113.808 311.775C114.895 312.159 115.727 312.83 116.43 313.438C116.526 313.534 116.654 313.63 116.75 313.726C118.572 315.23 120.234 316.893 121.865 318.492C122.504 319.132 123.176 319.772 123.815 320.412C124.838 321.435 126.021 322.267 127.3 322.907C127.492 322.715 127.747 322.587 128.003 322.555H128.195C128.675 322.555 129.122 322.843 129.346 323.291C130.657 326.041 132.639 328.249 134.749 330.616C135.037 330.936 135.324 331.255 135.58 331.575C137.498 333.751 139.8 336.725 140.727 340.564C140.983 341.588 141.143 342.675 141.207 343.731C141.367 347.505 139.257 350.576 135.644 351.824C135.197 352.016 134.653 352.112 134.11 352.112Z" fill="#35A2BE" style="fill:#35A2BE;fill:color(display-p3 0.2078 0.6354 0.7463);fill-opacity:1;"/>
<path d="M124.839 358.573C124.744 358.573 124.68 358.573 124.584 358.541C124.04 358.413 123.625 357.965 123.561 357.389C122.825 349.201 119.66 342.003 113.906 335.414C113.522 334.998 113.49 334.39 113.778 333.91C112.467 329.432 110.932 324.89 109.046 319.964C108.854 319.484 108.663 319.036 108.439 318.524C107.895 317.309 107.32 316.061 107.16 314.59C107.096 314.046 107.384 313.534 107.863 313.31C108.055 313.214 108.247 313.182 108.407 313.182C108.726 313.182 109.046 313.31 109.302 313.534C112.083 316.253 114.417 319.324 116.527 322.267C118.222 324.602 120.108 327.033 122.634 330.136C122.953 330.52 123.305 330.935 123.625 331.319C124.839 332.759 126.086 334.23 127.045 335.894C130.242 341.459 130.85 346.514 128.868 351.376C128.036 353.583 127.045 355.758 125.894 357.837C125.735 358.317 125.287 358.573 124.839 358.573ZM91.079 368.681C90.7913 368.681 90.5035 368.585 90.2797 368.393C89.9281 368.105 89.7682 367.689 89.8322 367.242C90.3437 363.051 93.0931 361.74 95.4589 361.036C98.9117 360.044 102.364 358.829 105.689 357.645C107.16 357.133 108.695 356.59 110.197 356.078C110.9 355.854 111.412 355.662 111.892 355.662C113.266 355.662 113.714 356.782 114.161 357.997C114.193 358.093 114.225 358.157 114.257 358.253L114.449 358.733C114.449 358.765 114.481 358.797 114.481 358.829C114.993 360.716 114.545 361.484 112.659 362.06C110.964 362.571 109.238 363.083 107.544 363.595C104.794 364.427 101.917 365.29 99.1355 366.154C97.4091 366.698 95.7147 367.242 93.9243 367.849C93.1251 368.105 92.3258 368.393 91.4946 368.649C91.3667 368.681 91.2069 368.681 91.079 368.681Z" fill="#35A2BE" style="fill:#35A2BE;fill:color(display-p3 0.2078 0.6354 0.7463);fill-opacity:1;"/>
<path d="M101.086 321.531C100.67 321.531 100.286 321.371 99.9988 321.051C99.8069 320.827 99.5192 320.635 99.2315 320.412C98.7519 320.092 98.2404 319.708 97.7928 319.132C93.285 315.581 88.4256 312.447 83.3103 309.856C82.0635 309.216 80.8486 308.544 79.6657 307.872C78.355 307.137 76.9803 306.369 75.6375 305.697C72.5364 304.13 69.3074 302.786 66.0145 301.731C64.3521 301.219 62.6576 300.899 60.8993 300.835C59.7164 300.835 58.5655 300.547 57.5104 300.003C57.0629 299.779 56.7751 299.268 56.8071 298.756C56.8391 298.244 57.1907 297.796 57.7023 297.636C59.4926 297.06 61.3469 296.772 63.2651 296.772C65.6948 296.772 68.2524 297.22 71.0658 298.18C77.8435 300.451 84.4932 304.066 91.3988 309.312C94.1162 311.359 97.2493 313.854 99.9988 316.829C100.958 317.501 101.757 318.364 102.46 319.324C102.812 319.804 102.78 320.444 102.365 320.891C102.013 321.307 101.565 321.531 101.086 321.531Z" fill="#55BCD7" style="fill:#55BCD7;fill:color(display-p3 0.3333 0.7373 0.8431);fill-opacity:1;"/>
<path d="M114.865 335.862C114.513 335.862 114.194 335.702 113.97 335.478L113.778 335.286C113.65 335.158 113.554 335.03 113.426 334.934C113.363 334.87 113.299 334.774 113.235 334.678C112.659 333.622 111.892 332.663 111.029 331.799C110.166 330.967 109.462 330.008 108.887 328.92C104.954 321.147 98.8161 315.261 93.3173 310.527C88.0102 305.889 82.0638 302.018 75.7017 299.012C75.0304 298.948 74.5828 298.628 74.295 298.404C74.2311 298.34 74.1352 298.276 74.1032 298.276C73.6556 298.02 73.3999 297.54 73.4638 297.028C73.5278 296.516 73.8794 296.101 74.359 295.941C74.8385 295.781 75.2861 295.717 75.7017 295.717C76.2772 295.717 76.7887 295.845 77.2683 296.101C83.4065 297.06 89.3849 299.203 95.5232 302.626C100.063 305.153 104.251 308.288 107.928 311.999C108.024 312.127 108.151 312.223 108.247 312.319C108.727 312.766 109.238 313.278 109.59 313.982C109.654 314.11 109.686 314.27 109.718 314.398C109.846 315.485 110.293 316.509 110.773 317.565C110.997 318.044 111.221 318.556 111.412 319.1C113.299 324.09 114.865 328.696 116.176 333.207C116.304 333.622 116.592 334.646 115.728 335.51C115.537 335.702 115.217 335.862 114.865 335.862ZM127.781 325.721C127.493 325.721 127.174 325.657 126.854 325.498C125.064 324.698 123.465 323.61 122.058 322.235C121.355 321.563 120.652 320.859 119.948 320.156C118.414 318.62 116.815 317.053 115.121 315.645C114.993 315.549 114.897 315.453 114.769 315.357C114.13 314.814 113.586 314.366 112.947 314.142C112.755 314.078 112.595 313.982 112.435 313.822C112.084 313.47 111.764 313.118 111.412 312.766C110.613 311.935 109.814 311.071 108.951 310.303C108.151 309.6 107.704 308.544 107.8 307.488C107.896 305.633 108.279 303.81 108.887 302.05C109.462 300.387 110.741 299.427 112.499 299.427H112.627C114.066 299.459 115.505 299.619 116.911 299.939C118.574 300.291 119.82 301.347 120.652 303.106C121.259 304.386 121.803 305.697 122.25 307.041C123.369 310.559 124.968 313.982 126.534 317.277C127.174 318.62 127.845 320.028 128.452 321.435C128.644 321.851 128.836 322.299 129.06 322.715L129.316 323.258C129.412 323.482 129.475 323.738 129.412 323.994C129.22 325.625 128.101 325.721 127.781 325.721Z" fill="#55BCD7" style="fill:#55BCD7;fill:color(display-p3 0.3333 0.7373 0.8431);fill-opacity:1;"/>
<path d="M271.71 389.953C270.143 389.953 268.481 389.505 266.786 388.674C266.307 388.418 266.019 387.874 266.115 387.33C266.243 386.498 266.85 386.115 267.106 385.955L267.17 385.923C274.235 381.252 280.182 374.631 285.425 365.61C287.407 362.156 289.101 358.669 290.508 355.086C286.48 364.939 281.109 373.159 274.203 380.037C271.71 382.532 268.896 384.707 265.891 386.53C265.252 386.914 264.676 387.106 264.069 387.106C263.365 387.106 262.726 386.85 262.087 386.338C261.799 386.115 261.511 385.891 261.191 385.667C260.36 385.059 259.497 384.419 258.762 383.524C258.474 383.14 258.41 382.66 258.602 382.212C258.794 381.796 259.209 381.476 259.689 381.444C259.913 381.412 260.136 381.252 260.552 380.837C260.776 380.613 261 380.389 261.287 380.165C264.964 377.414 268.161 374.087 270.782 370.313C274.971 364.203 277.24 357.229 278.711 351.824C280.693 344.594 281.141 337.013 281.588 329.656L281.62 329.144C281.716 327.673 281.588 326.233 281.429 324.698C281.301 323.354 281.173 321.947 281.205 320.507C281.141 320.411 281.077 320.315 281.045 320.219C280.917 319.964 280.885 319.676 280.949 319.42L281.237 317.98C281.429 317.021 281.62 316.029 281.78 315.069C282.515 310.527 282.004 306.721 280.182 303.426L280.086 303.234C279.99 302.946 279.926 302.626 279.894 302.338C279.83 301.699 280.278 301.123 280.917 300.995C283.954 300.387 287.215 300.099 290.86 300.099C292.043 300.099 293.289 300.131 294.6 300.195C296.071 300.259 296.998 301.027 297.414 302.53C298.085 304.993 298.564 307.392 298.852 309.759C298.788 307.392 298.533 305.089 297.733 302.754C297.605 302.338 297.669 301.89 297.957 301.539C298.213 301.219 298.564 301.059 298.948 301.059H299.076C300.675 301.219 302.017 301.667 303.328 302.114C303.616 302.21 303.935 302.306 304.223 302.402C305.63 302.85 305.726 304.226 305.758 304.737C305.79 305.185 305.822 305.633 305.886 306.081C306.045 308.064 306.237 310.111 306.109 312.191C305.918 315.517 305.63 319.036 305.278 322.651L305.246 322.97C305.086 324.89 304.447 325.274 302.497 325.466C301.442 325.593 300.355 325.785 299.332 326.041C300.195 327.545 301.186 328.984 302.305 330.328C303.488 331.703 303.967 333.558 303.584 335.318C300.611 351.216 295.559 364.331 288.11 375.495C285.297 379.781 281.94 383.747 278.168 387.202C276.153 389.025 273.979 389.953 271.71 389.953Z" fill="#35A2BE" style="fill:#35A2BE;fill:color(display-p3 0.2078 0.6354 0.7463);fill-opacity:1;"/>
<path d="M262.055 340.436C261.768 340.436 261.512 340.34 261.288 340.18C261 339.956 260.808 339.636 260.808 339.252C260.713 338.037 261.352 337.173 261.832 336.565C262.055 336.277 262.279 335.99 262.535 335.702C262.918 335.222 263.27 334.806 263.526 334.358C265.988 330.04 267.394 325.945 267.81 321.851C267.842 321.659 267.842 321.435 267.874 321.243C267.97 320.283 268.098 319.356 267.874 318.524C267.81 318.268 267.842 318.044 267.906 317.788C268.226 316.893 268.609 315.997 268.961 315.165C269.44 314.014 269.92 312.926 270.272 311.807C270.783 310.079 271.103 308.32 271.263 306.529C270.879 307.232 270.176 307.648 269.217 307.648H268.897C266.659 307.488 264.421 307.2 262.215 306.753C261.704 306.657 261.32 306.241 261.224 305.729C261.128 305.217 261.352 304.705 261.768 304.417C264.805 302.402 268.226 300.163 272.414 300.163C272.893 300.163 273.373 300.195 273.852 300.259C276.538 300.579 278.552 302.242 279.767 305.153C280.758 307.552 281.11 310.175 280.79 312.766C279.735 323.13 275.035 331.703 266.787 338.197C265.508 339.188 264.101 340.18 262.311 340.5C262.215 340.436 262.151 340.436 262.055 340.436Z" fill="#35A2BE" style="fill:#35A2BE;fill:color(display-p3 0.2078 0.6354 0.7463);fill-opacity:1;"/>
<path d="M259.753 384.035C259.433 384.035 259.146 383.907 258.89 383.716C255.117 380.389 252.272 376.102 250.194 370.632C247.285 363.019 246.837 355.95 248.851 349.041C249.555 346.642 250.641 344.37 252.112 342.323C252.432 341.875 252.975 341.076 254.062 341.076C254.35 341.076 254.67 341.14 254.957 341.268C256.108 341.747 257.259 341.971 258.506 341.971C260.201 341.971 261.959 341.555 264.069 340.66C264.293 340.564 264.485 340.5 264.676 340.436C264.708 340.436 264.708 340.436 264.74 340.404C268.257 338.357 271.55 335.446 274.747 331.543C277.369 327.737 279.447 323.61 280.917 319.228C281.077 318.748 281.525 318.396 282.036 318.364H282.132C282.612 318.364 283.059 318.62 283.283 319.068C283.283 319.1 283.315 319.132 283.347 319.164C283.507 319.388 283.731 319.772 283.731 320.284V320.316C283.699 321.659 283.795 323.003 283.922 324.41C284.05 325.977 284.21 327.609 284.114 329.272L284.082 329.784C283.635 337.269 283.187 345.01 281.109 352.495C279.574 358.093 277.241 365.322 272.797 371.752C270.015 375.751 266.627 379.269 262.726 382.18C262.598 382.276 262.438 382.436 262.247 382.628C261.703 383.172 260.968 383.875 259.785 383.971C259.817 384.035 259.785 384.035 259.753 384.035Z" fill="#55BCD7" style="fill:#55BCD7;fill:color(display-p3 0.3333 0.7373 0.8431);fill-opacity:1;"/>
<path d="M258.026 341.396C255.469 341.396 253.103 340.116 251.728 337.973C251.217 337.205 250.833 336.373 250.545 335.51C249.938 333.782 249.586 332.727 250.162 331.767C250.737 330.808 251.824 330.616 253.646 330.36C256.3 329.912 258.73 328.728 260.68 326.873L260.712 326.841C263.397 324.442 265.667 321.659 267.425 318.492C267.553 318.236 267.713 318.012 267.873 317.82C267.937 317.724 268.001 317.629 268.097 317.501C268.321 317.117 268.736 316.925 269.184 316.925C269.248 316.925 269.312 316.925 269.408 316.957C269.919 317.053 270.335 317.437 270.431 317.916C270.718 319.196 270.59 320.411 270.463 321.531C270.431 321.723 270.431 321.915 270.399 322.107C269.951 326.585 268.448 330.999 265.795 335.638C265.443 336.277 264.964 336.821 264.548 337.365C264.324 337.621 264.132 337.877 263.941 338.133L263.909 338.165C263.557 338.645 263.397 338.9 263.429 339.124C263.461 339.572 263.237 340.02 262.854 340.276C261.351 341.268 259.625 341.428 258.474 341.428C258.25 341.396 258.154 341.396 258.026 341.396Z" fill="#55BCD7" style="fill:#55BCD7;fill:color(display-p3 0.3333 0.7373 0.8431);fill-opacity:1;"/>
<path d="M255.661 295.845H254.446C253.327 295.845 252.336 295.173 251.92 294.149C247.636 285.321 242.777 275.276 239.452 264.688C239.228 263.921 239.036 263.153 238.876 262.417C238.876 262.417 238.781 262.001 238.781 261.969C238.781 262.001 238.781 262.033 238.749 262.097C238.621 262.993 238.653 263.921 238.813 264.816V264.848C239.26 267.599 239.868 270.382 240.635 273.069C240.667 273.133 240.667 273.229 240.699 273.293C240.827 273.709 241.018 274.285 240.859 274.957C240.763 275.372 240.475 275.724 240.059 275.884C239.9 275.948 239.74 275.98 239.612 275.98C239.356 275.98 239.1 275.884 238.876 275.756C238.013 275.148 237.79 274.285 237.598 273.645C237.566 273.485 237.502 273.325 237.47 273.197C234.912 266.544 233.41 260.882 232.738 255.348C232.355 252.277 231.971 249.11 232.067 245.912C232.131 244.312 232.259 242.713 232.482 241.145V241.081C232.61 240.378 232.898 239.706 233.282 239.13C233.985 237.947 235.04 237.275 236.191 237.275C237.246 237.275 238.237 237.819 238.972 238.842C240.379 240.729 241.178 242.873 241.946 245.048L242.649 247.063C244.279 251.733 245.974 256.563 247.988 261.17C251.824 269.934 255.917 276.364 260.872 281.418C263.27 279.179 265.955 277.388 268.577 275.66C269.792 274.861 271.07 273.997 272.253 273.133C272.349 273.069 272.477 272.973 272.573 272.909C272.829 272.749 273.053 272.589 273.244 272.429C273.276 272.397 273.308 272.366 273.34 272.366C273.372 272.334 273.404 272.302 273.372 272.238C273.372 272.206 273.34 272.174 273.34 272.142C272.093 267.567 271.23 262.865 270.431 258.323C270.239 257.331 270.079 256.308 269.888 255.316C269.056 250.806 268.193 246.135 267.809 241.433C267.65 239.674 267.49 237.851 267.33 236.123C267.106 233.756 266.85 231.293 266.691 228.83C266.531 226.431 266.403 224 266.275 221.633C266.179 219.681 266.051 217.634 265.923 215.651C265.827 213.892 265.795 212.132 265.763 210.405C265.731 208.646 265.731 206.822 265.604 205.031C265.412 202.376 265.316 199.689 265.188 197.066C265.092 194.731 264.996 192.332 264.836 189.997C264.74 188.717 264.676 187.374 264.612 186.126C264.485 183.631 264.357 181.072 264.069 178.577C263.589 174.451 263.046 170.324 262.438 166.102C261.575 159.8 260.137 153.626 258.858 148.412C257.547 143.007 255.821 137.633 254.19 132.642C249.746 119.176 245.782 108.268 241.69 98.2875C239.196 92.1778 236.319 85.7482 232.323 80.0224C230.34 77.1755 228.167 74.3925 226.056 71.6735C224.842 70.1061 223.563 68.4748 222.348 66.8434L222.124 66.5235C220.845 64.7961 219.503 63.0048 218.064 61.3734C217.169 60.3498 216.497 59.1663 216.082 57.8548C215.922 57.375 216.082 56.8632 216.433 56.5113C216.657 56.2874 216.977 56.1914 217.297 56.1914C217.488 56.1914 217.648 56.2234 217.808 56.3194C222.38 58.3666 226.344 61.1175 229.637 63.5166C242.489 72.9211 252.943 85.0445 261.543 100.495C269.696 115.081 275.322 131.395 278.296 148.924C278.839 152.315 279.095 155.77 279.031 159.192C278.999 163.415 278.999 167.669 278.967 171.924C278.935 178.641 278.871 185.582 278.871 192.396V195.147C278.871 202.12 278.839 209.349 279.063 216.451C279.511 230.397 281.78 242.937 286.032 254.804C288.878 262.769 292.682 268.303 297.989 272.206C298.053 272.238 298.117 272.302 298.181 272.366C298.373 272.557 298.533 272.781 298.693 273.037C299.012 273.549 298.948 274.189 298.501 274.637C297.638 275.5 296.551 276.172 295.368 276.588C294.824 276.78 294.281 276.876 293.737 276.876C292.65 276.876 291.627 276.492 290.668 275.692C288.558 273.965 286.768 271.726 285.073 268.623C281.972 262.993 279.191 257.107 276.857 251.094C276.473 250.07 276.026 249.014 275.61 247.991C274.587 245.528 273.628 242.905 273.404 240.058C273.34 240.442 273.34 240.825 273.372 241.241L273.404 241.593C273.596 243.129 273.756 244.568 274.172 245.912C276.409 253.173 279.191 261.682 283.027 269.615C283.986 271.662 285.137 273.581 286.48 275.372C286.864 275.884 286.8 276.62 286.352 277.068C284.945 278.411 283.635 279.883 282.356 281.29C280.566 283.273 278.711 285.353 276.601 287.144C273.532 289.735 270.175 291.974 266.595 293.765C262.886 295.589 258.794 295.845 255.661 295.845ZM83.6296 275.244C83.4378 275.244 83.214 275.212 82.9582 275.18C80.9761 274.861 79.0259 274.797 77.5233 274.797C76.6601 274.797 75.7649 274.829 74.9337 274.829C74.0705 274.829 73.1754 274.861 72.2802 274.861C70.4259 274.861 68.8914 274.797 67.5166 274.605C67.0371 274.541 66.6215 274.221 66.4616 273.741C66.2059 272.973 66.4616 272.302 67.2609 271.694C67.2929 271.662 67.3568 271.63 67.3888 271.598C70.362 268.239 72.1523 264.209 74.0066 259.666C78.1947 249.334 80.9441 239.482 82.3828 229.534C83.182 223.936 83.6616 218.306 84.1091 212.548C84.4288 208.262 84.4608 203.879 84.4928 199.657C84.5248 196.938 84.5248 194.123 84.6207 191.34C85.0043 180.336 85.6117 171.252 86.5069 162.775C87.5619 152.571 89.2244 142.335 91.4623 132.323C92.6132 127.205 94.3396 121.895 97.0251 115.145C97.0251 115.113 97.057 115.081 97.057 115.049C97.2169 114.729 97.3767 114.409 97.6005 114.121C97.8563 113.738 98.2399 113.546 98.6555 113.546C98.7834 113.546 98.9113 113.578 99.0392 113.61C99.5827 113.77 99.9663 114.281 99.9343 114.857C99.8704 117.8 99.6146 120.743 99.3269 123.462C99.3269 123.59 99.2949 123.686 99.2949 123.814C99.263 123.91 99.263 124.038 99.263 124.07V124.102C99.199 125.733 99.1351 127.364 99.0712 128.932C98.8793 132.738 98.6875 136.705 98.9113 140.543C99.0072 142.367 99.1031 144.222 99.199 146.013C99.3269 148.828 99.4548 151.771 99.7106 154.618C99.8065 155.962 99.8704 157.305 99.9024 158.617C99.9343 159.352 99.9663 160.056 99.9983 160.792C100.35 167.701 100.35 174.675 100.318 181.456C100.318 186.606 100.318 191.916 100.446 197.13C100.542 200.713 100.574 204.359 100.606 207.91C100.638 210.373 100.638 212.9 100.702 215.395V215.907C100.957 216.195 101.085 216.579 101.053 216.962C100.766 219.298 100.254 221.569 99.7106 223.744C99.5187 224.48 99.3589 225.247 99.199 225.983C98.8154 227.71 98.4318 229.438 98.0481 231.197C96.7054 237.403 95.3307 243.8 93.5723 250.006C91.8779 256.052 90.1195 261.458 88.1693 266.576C88.0415 266.896 87.9136 267.247 87.7857 267.567C87.0824 269.423 86.347 271.374 85.8355 273.293C85.4839 274.925 84.4288 275.244 83.6296 275.244Z" fill="#CDC5A8" style="fill:#CDC5A8;fill:color(display-p3 0.8039 0.7725 0.6588);fill-opacity:1;"/>
<path d="M198.115 320.092C195.27 320.092 192.456 319.196 189.547 317.373C188.204 316.605 187.373 315.166 187.405 313.63V313.598C187.501 311.487 187.053 309.472 186.542 307.329C186.414 306.721 186.254 306.081 186.126 305.474C183.505 292.486 181.331 280.363 179.477 268.368C179.061 265.649 178.517 262.866 178.006 260.179C177.718 258.739 177.43 257.236 177.175 255.764C177.079 255.189 177.015 254.581 176.951 254.037C176.919 253.717 176.887 253.429 176.855 253.109V253.045C176.759 253.045 176.663 253.077 176.535 253.077H176.407C176.056 253.077 175.736 252.949 175.512 252.694C175.257 252.438 175.097 252.054 175.161 251.67C175.256 250.71 175.896 250.294 176.216 250.071C176.248 250.039 176.312 250.007 176.343 249.975C176.983 249.463 177.846 248.855 178.901 248.855C180.244 248.855 181.171 249.911 181.714 250.71C183.217 252.885 184.464 255.253 185.391 257.748C188.108 264.753 190.378 272.014 192.52 279.052L193.224 281.291C193.831 283.274 194.503 285.321 195.142 287.272C195.685 288.904 196.229 290.599 196.74 292.263C197.188 293.702 198.051 295.109 199.458 296.677C200.129 297.413 200.897 297.796 201.696 297.796C202.495 297.796 203.262 297.413 203.934 296.677C205.756 294.662 207.546 292.582 209.273 290.567C209.72 290.055 210.168 289.512 210.647 289C215.922 282.858 222.093 279.851 229.542 279.819H230.245C233.858 279.819 237.438 280.299 240.923 281.291C241.083 280.971 241.403 280.747 241.786 280.651C241.882 280.619 241.978 280.619 242.074 280.619C242.586 280.619 243.065 280.939 243.257 281.451C244.376 284.394 245.527 287.336 246.678 290.311C246.934 290.951 247.189 291.591 247.477 292.327L247.861 293.222C248.021 293.638 247.957 294.118 247.701 294.47C247.445 294.79 247.061 294.982 246.678 294.982H246.55C245.942 294.918 245.303 294.886 244.664 294.886C242.33 294.886 240.06 295.269 237.822 295.653C237.374 295.717 236.927 295.813 236.511 295.877C229.861 296.965 225.002 299.268 221.166 303.138L218.672 305.633C216.562 307.713 214.356 309.856 212.47 312.191C209.688 315.614 206.683 317.885 203.326 319.196C201.536 319.74 199.81 320.092 198.115 320.092Z" fill="#CDC5A8" style="fill:#CDC5A8;fill:color(display-p3 0.8039 0.7725 0.6588);fill-opacity:1;"/>
<path d="M182.258 310.367C181.938 310.367 181.618 310.239 181.394 310.015C180.275 308.96 179.156 307.84 178.069 306.753C176.279 304.961 174.393 303.074 172.411 301.411C170.844 300.131 169.15 298.948 167.391 297.892C164.194 295.845 160.742 294.885 156.777 294.885C155.403 294.885 153.964 295.013 152.493 295.237C148.241 295.909 144.021 297.284 139.961 298.628L139.066 298.916C136.029 299.907 132.896 300.547 129.731 300.835C129.475 300.867 129.219 300.899 128.963 300.899C128.068 300.899 127.141 300.675 126.342 300.291C125.798 300.035 125.543 299.427 125.67 298.852C125.798 298.34 125.894 297.796 126.022 297.252C126.278 296.069 126.534 294.821 126.949 293.606C128.835 288.008 130.21 281.994 131.393 274.061C131.585 272.877 131.745 271.662 131.937 270.478C132.48 267.024 133.024 263.441 133.375 259.922C133.887 254.42 134.334 249.622 134.782 245.272C135.166 241.529 135.549 237.723 135.965 234.044C136.125 232.605 136.285 231.133 136.412 229.694C137.052 223.648 137.499 218.338 137.787 213.412C137.819 213.06 137.979 212.74 138.235 212.516C138.458 212.324 138.778 212.196 139.066 212.196H139.162C141.176 212.356 141.975 212.772 142.519 214.851C143.638 219.202 145.012 224.928 145.62 230.877C145.78 232.541 146.067 234.204 146.323 235.835C146.547 237.339 146.803 238.874 146.995 240.41C147.25 242.553 147.41 244.696 147.57 246.775C147.666 247.927 147.73 249.078 147.858 250.23C147.986 251.574 148.113 252.917 148.241 254.229C148.465 256.66 148.721 259.187 148.881 261.714C149.009 263.697 149.169 265.648 149.296 267.631C149.616 271.662 150.096 276.46 151.183 281.226C151.31 281.738 151.406 282.058 151.47 282.186C151.662 282.25 152.11 282.314 152.557 282.378L152.781 282.41C158.376 283.21 164.866 284.361 170.588 287.72C173.05 289.159 174.968 291.207 176.567 293.062C176.471 292.358 176.375 291.654 176.279 290.983C176.119 289.927 175.991 288.839 175.864 287.784C175.544 285.193 175.416 282.602 175.256 280.075C175.16 278.315 175.064 276.524 174.904 274.765C174.745 272.782 174.745 270.798 174.777 268.847C174.777 267.887 174.809 266.864 174.777 265.904V264.721C174.809 263.665 174.809 262.673 174.553 261.778C174.105 260.146 174.968 259.315 175.384 259.027C175.608 258.867 175.864 258.803 176.119 258.803C176.247 258.803 176.375 258.835 176.503 258.867C176.887 258.995 177.174 259.283 177.334 259.666C177.782 260.914 177.846 262.162 177.91 263.345C177.942 263.825 177.974 264.273 178.006 264.721C178.325 267.791 178.645 270.926 178.933 273.933C179.124 275.98 179.316 278.028 179.54 280.075C180.148 286.216 181.107 292.678 182.322 299.267C182.513 300.227 182.673 301.219 182.865 302.178C183.217 304.194 183.6 306.305 184.08 308.32C184.176 308.736 184.048 309.216 183.76 309.504L183.345 309.919C182.897 310.239 182.577 310.367 182.258 310.367ZM119.372 297.636C118.765 297.636 118.221 297.348 117.614 296.996C114.865 295.461 112.435 293.574 110.421 291.942C105.05 287.56 99.3271 283.497 93.4126 279.851C92.1338 279.051 90.791 278.283 89.2885 277.516C88.3613 277.036 87.3702 276.076 88.1375 274.445C88.3933 273.869 88.6171 273.261 88.8728 272.622C89.1286 271.918 89.3844 271.182 89.736 270.446C94.1479 261.106 96.6096 251.062 98.6237 241.625C100.542 232.637 101.885 225.343 102.908 218.626C103.547 214.34 104.027 209.957 104.474 205.703C104.634 204.04 104.826 202.376 105.018 200.745C105.337 197.93 105.625 195.051 105.913 192.268C106.169 189.901 106.392 187.438 106.68 185.007C106.872 183.311 106.904 181.616 106.936 179.825C106.936 179.153 106.968 178.513 106.968 177.841V177.714C106.968 177.33 106.936 176.466 107.703 175.858C107.927 175.666 108.215 175.57 108.502 175.57C108.598 175.57 108.694 175.57 108.79 175.602C109.174 175.698 109.494 175.954 109.653 176.306C111.795 180.816 113.17 185.87 114.001 192.204C114.481 195.819 114.928 200.073 114.609 204.327C114.513 205.383 114.449 206.503 114.385 207.558C114.225 210.117 114.065 212.74 113.618 215.363C113.33 217.091 113.17 218.882 113.042 220.609C112.946 221.601 112.882 222.593 112.755 223.616C112.723 224.064 112.659 224.48 112.627 224.928C112.435 226.815 112.211 228.766 111.891 230.685C111.7 231.677 111.636 232.701 111.54 233.756C111.476 234.396 111.444 235.1 111.348 235.772C111.252 236.603 111.156 237.403 111.06 238.235C110.708 241.369 110.325 244.6 109.877 247.767C109.078 253.557 108.151 259.443 107.16 265.232C106.68 267.983 106.105 270.766 105.497 273.485C105.465 273.581 105.465 273.613 105.465 273.677C105.497 273.709 105.561 273.741 105.657 273.805C107.639 275.085 109.589 276.46 111.54 277.836C115.504 280.619 119.021 284.009 121.93 287.88C121.962 287.944 122.026 288.008 122.058 288.072C122.122 288.168 122.25 288.328 122.314 288.392H122.346C122.729 288.392 123.113 288.584 123.369 288.903C123.624 289.255 123.688 289.703 123.56 290.087C123.369 290.631 123.177 291.207 122.985 291.782C122.537 293.094 122.09 294.437 121.546 295.749C121.099 296.517 120.619 297.636 119.372 297.636Z" fill="#CDC5A8" style="fill:#CDC5A8;fill:color(display-p3 0.8039 0.7725 0.6588);fill-opacity:1;"/>
<path d="M175.927 260.69C175.351 260.69 174.84 260.306 174.712 259.762C174.072 257.459 174.04 255.028 174.68 252.725C174.84 252.149 175.351 251.765 175.927 251.765H176.086C176.726 251.861 177.205 252.373 177.205 253.013C177.205 255.124 177.237 257.235 177.237 259.378C177.237 260.018 176.758 260.562 176.15 260.658C176.054 260.69 175.99 260.69 175.927 260.69Z" fill="#CDC5A8" style="fill:#CDC5A8;fill:color(display-p3 0.8039 0.7725 0.6588);fill-opacity:1;"/>
<path d="M141.496 180.337C136.477 180.337 131.937 176.786 128.676 170.356C125.575 164.183 123.849 155.77 123.849 146.653C123.849 139.488 124.904 132.707 126.95 127.045C129.124 120.903 132.321 116.521 136.125 114.41C137.756 113.482 139.61 112.97 141.496 112.97C146.515 112.97 151.055 116.521 154.316 122.95C157.417 129.124 159.144 137.537 159.144 146.685C159.144 154.586 157.801 162.168 155.371 168.085C152.59 174.867 148.434 179.121 143.702 180.145C142.967 180.273 142.231 180.337 141.496 180.337ZM133.088 158.137C133.663 160.792 134.431 163.255 135.39 165.398C136.637 168.181 138.107 170.165 139.546 171.156C138.907 169.557 138.011 168.053 137.084 166.422L137.02 166.326C136.413 165.302 135.773 164.215 135.198 163.095C134.431 161.464 133.727 159.832 133.088 158.137Z" fill="#2C2729" style="fill:#2C2729;fill:color(display-p3 0.1725 0.1529 0.1608);fill-opacity:1;"/>
<path d="M175.896 180.337C170.876 180.337 166.336 176.786 163.076 170.356C159.974 164.183 158.248 155.77 158.248 146.653C158.248 139.488 159.303 132.707 161.349 127.045C163.555 120.903 166.72 116.521 170.525 114.41C172.155 113.482 174.009 112.97 175.896 112.97C180.915 112.97 185.455 116.521 188.716 122.95C191.817 129.124 193.543 137.537 193.511 146.685C193.511 154.586 192.168 162.2 189.739 168.085C186.957 174.867 182.801 179.121 178.07 180.145C177.366 180.273 176.631 180.337 175.896 180.337ZM167.487 158.105C168.063 160.792 168.83 163.255 169.789 165.398C171.036 168.181 172.507 170.165 173.977 171.156C173.338 169.525 172.443 167.989 171.484 166.39C170.812 165.238 170.205 164.183 169.629 163.095C168.862 161.464 168.127 159.8 167.487 158.105Z" fill="#2C2729" style="fill:#2C2729;fill:color(display-p3 0.1725 0.1529 0.1608);fill-opacity:1;"/>
<path d="M201.442 299.864C199.94 299.864 198.469 299.161 197.318 297.913C195.656 296.09 194.633 294.394 194.057 292.539C193.546 290.94 193.034 289.372 192.523 287.773C191.851 285.726 191.18 283.614 190.541 281.535L189.837 279.264C187.695 272.291 185.457 265.061 182.74 258.12C181.877 255.817 180.726 253.642 179.351 251.659C178.871 250.955 178.648 250.891 178.648 250.891C178.616 250.891 178.392 250.891 177.72 251.467C177.625 251.563 177.529 251.627 177.401 251.69L176.889 253.034C176.41 254.889 176.41 256.809 176.921 258.664C176.953 258.728 176.953 258.824 176.953 258.888L177.017 259.623C177.049 260.007 176.889 260.423 176.602 260.679C176.602 260.711 176.602 260.743 176.634 260.775C176.985 262.055 176.953 263.27 176.953 264.454V268.548C176.921 270.403 176.921 272.355 177.081 274.21C177.241 275.937 177.337 277.697 177.433 279.392C177.561 281.951 177.72 284.574 178.04 287.133C178.168 288.253 178.328 289.404 178.488 290.524C178.68 291.899 178.871 293.307 179.031 294.682C179.031 294.778 179.063 294.842 179.095 294.938C179.191 295.418 179.351 296.218 178.871 297.145C178.68 297.529 178.296 297.785 177.88 297.817H177.752C177.369 297.817 177.017 297.657 176.761 297.369C176.41 296.953 176.09 296.569 175.77 296.186C175.419 295.77 175.099 295.354 174.747 294.938C173.085 292.987 171.263 290.94 168.929 289.564C163.59 286.429 157.419 285.342 152.048 284.574L151.857 284.542C149.555 284.222 148.915 283.87 148.34 281.407C147.189 276.417 146.678 271.331 146.39 267.429C146.23 265.445 146.102 263.462 145.942 261.479C145.782 259.208 145.559 256.905 145.335 254.665C145.175 253.162 145.047 251.595 144.919 250.027C144.823 248.876 144.727 247.692 144.631 246.54C144.472 244.461 144.312 242.35 144.088 240.271C143.928 238.799 143.672 237.328 143.449 235.888C143.161 234.193 142.905 232.466 142.713 230.706C142.138 224.917 140.795 219.319 139.676 215.064C139.58 214.68 139.516 214.521 139.484 214.425C139.356 214.393 139.069 214.361 138.621 214.329C138.333 214.297 138.078 214.201 137.854 214.009C135.296 226.068 132.611 238.543 130.82 250.955C129.382 261.063 127.495 271.139 125.833 279.808C125.226 283.167 124.33 286.493 123.148 289.692C122.956 290.172 122.508 290.524 121.997 290.524H121.901C120.622 290.524 119.982 289.66 119.599 289.116L119.503 288.956C116.753 285.278 113.429 282.079 109.656 279.456C107.738 278.081 105.82 276.737 103.87 275.489C103.134 275.01 102.239 274.178 102.623 272.451C103.23 269.764 103.774 267.045 104.253 264.326C105.244 258.6 106.139 252.746 106.971 246.956C107.418 243.821 107.77 240.623 108.154 237.52L108.441 235.025C108.505 234.385 108.569 233.777 108.633 233.106C108.729 232.018 108.825 230.898 109.017 229.779C109.336 227.955 109.528 226.036 109.72 224.181C109.752 223.733 109.816 223.317 109.848 222.869C109.944 221.91 110.04 220.918 110.104 219.959C110.264 218.167 110.423 216.312 110.711 214.489C111.127 211.962 111.287 209.339 111.446 206.811C111.51 205.788 111.574 204.732 111.638 203.677C111.958 199.646 111.51 195.584 111.063 192.065C110.327 186.531 109.209 182.085 107.514 178.15C105.532 188.418 103.294 200.542 101.504 213.113C101.376 213.977 101.184 214.808 101.024 215.608C100.96 215.96 100.864 216.312 100.8 216.664C100.704 217.112 100.417 217.463 100.001 217.591C99.8413 217.655 99.7134 217.655 99.5536 217.655C99.2658 217.655 99.0101 217.559 98.7543 217.399C97.8272 216.696 97.8911 215.672 97.8911 215.192V215C97.8591 212.537 97.8272 209.978 97.7952 207.515C97.7632 203.997 97.7313 200.35 97.6354 196.799C97.4755 191.553 97.4755 186.211 97.5075 181.029C97.5075 174.28 97.5075 167.338 97.1878 160.493L97.0919 158.286C97.0599 157.006 96.9959 155.695 96.9 154.415C96.6762 151.504 96.5164 148.562 96.3885 145.715C96.2926 143.923 96.2287 142.1 96.1008 140.277C95.877 136.31 96.0688 132.28 96.2606 128.409C96.3246 126.842 96.4205 125.21 96.4525 123.611C96.4525 123.387 96.4844 123.195 96.5164 123.003C96.5164 122.939 96.5484 122.843 96.5484 122.779C96.8361 119.932 97.0599 117.149 97.1238 114.366C97.1238 114.239 97.1558 114.111 97.1878 113.983C98.5625 110.016 100.481 106.21 102.335 102.627C108.505 90.7594 115.698 80.8752 124.298 72.4304C136.767 60.147 150.29 52.4699 165.668 48.9513C171.326 47.6398 177.049 47 182.676 47C193.002 47 203.393 49.2392 213.463 53.6535C213.719 53.7494 213.975 53.8774 214.23 53.9734C215.445 54.4852 216.692 55.029 217.843 55.8287C218.067 55.9886 218.259 56.2125 218.323 56.5004C218.642 57.46 219.122 58.3557 219.793 59.0914C221.296 60.7868 222.67 62.6421 224.013 64.4014L224.237 64.7213C225.452 66.3207 226.699 67.9521 227.914 69.5195C230.024 72.2384 232.198 75.0854 234.244 77.9643C238.368 83.85 241.309 90.4715 243.899 96.7412C247.927 106.593 251.923 117.565 256.463 131.288C258.125 136.342 259.852 141.78 261.194 147.25C262.473 152.528 263.944 158.798 264.807 165.195C265.415 169.61 265.958 173.608 266.438 177.735C266.725 180.326 266.853 182.917 266.981 185.444C267.045 186.691 267.109 188.003 267.205 189.282C267.365 191.713 267.461 194.208 267.589 196.575C267.684 199.102 267.812 201.725 267.972 204.284C268.1 206.108 268.132 207.963 268.132 209.754C268.164 211.45 268.164 213.209 268.292 214.904C268.42 216.92 268.516 218.935 268.644 220.918C268.771 223.253 268.899 225.684 269.059 228.083C269.219 230.483 269.475 232.914 269.699 235.281C269.858 237.04 270.05 238.863 270.21 240.655C270.594 245.197 271.425 249.803 272.224 254.218V254.282C272.416 255.241 272.576 256.233 272.736 257.192C273.535 261.703 274.366 266.373 275.581 270.851C275.965 271.939 275.613 273.186 274.686 273.89C274.43 274.114 274.142 274.274 273.887 274.466C273.791 274.53 273.695 274.594 273.599 274.69C272.384 275.553 271.137 276.385 269.922 277.185C267.301 278.912 264.615 280.703 262.313 282.879C261.994 283.199 261.45 283.614 260.715 283.614C259.916 283.614 259.372 283.135 258.989 282.783C253.745 277.441 249.429 270.723 245.497 261.639C243.355 256.745 241.565 251.627 239.838 246.668L239.391 245.325C238.688 243.342 237.984 241.39 236.801 239.791C236.546 239.471 236.29 239.247 236.066 239.247C235.842 239.247 235.554 239.503 235.331 239.887C235.331 239.919 235.299 239.919 235.299 239.951C235.075 240.271 234.947 240.623 234.851 241.007C234.659 242.478 234.531 243.981 234.467 245.453C234.372 248.46 234.755 251.531 235.139 254.505C235.778 259.815 237.249 265.317 239.743 271.779C239.838 272.035 239.902 272.259 239.966 272.451C240.094 272.866 240.158 273.09 240.254 273.154C240.478 273.314 240.638 273.538 240.734 273.794C241.501 276.161 242.236 278.496 243.003 280.863C243.035 280.959 243.067 281.055 243.067 281.183C243.099 281.439 243.131 282.239 242.588 282.847C242.364 283.103 241.948 283.39 241.277 283.39C240.925 283.39 240.574 283.295 240.286 283.231C236.929 282.271 233.476 281.791 229.96 281.791H229.288C222.607 281.823 217.076 284.542 212.312 290.076L211.897 290.684C209.85 293.051 207.74 295.514 205.598 297.913C204.448 299.161 202.977 299.864 201.442 299.864Z" fill="#FEF8E4" style="fill:#FEF8E4;fill:color(display-p3 0.9961 0.9725 0.8941);fill-opacity:1;"/>
<path d="M236.031 234.876C235.263 234.876 234.528 234.684 233.857 234.364C232.514 233.692 231.395 232.605 230.66 231.293C230.66 231.261 230.628 231.229 230.628 231.197C230.244 230.366 230.372 229.406 231.011 228.766C231.075 228.702 231.139 228.638 231.235 228.574C231.555 228.35 231.874 228.094 232.194 227.839C232.674 227.455 233.185 227.071 233.761 226.719C233.793 226.687 233.793 226.655 233.825 226.623C233.921 226.495 233.984 226.335 234.112 226.175C233.505 226.751 232.77 227.263 231.906 227.711C231.171 228.126 230.372 228.446 229.541 228.702H229.509C227.622 229.15 225.896 229.566 224.042 229.598H222.763C218.671 229.598 214.579 229.118 210.582 228.126C203.773 226.559 197.315 223.296 192.008 218.754C191.784 218.562 191.56 218.338 191.368 218.114C190.857 217.57 190.505 216.931 190.345 216.195C189.962 214.308 189.898 212.388 190.153 210.501C190.409 208.326 191.208 206.183 192.391 204.327C192.647 203.944 192.935 203.592 193.255 203.24L193.287 203.208C193.51 203.016 193.734 202.824 193.99 202.632C194.374 202.344 194.821 202.184 195.301 202.184C196.196 202.184 196.963 202.728 197.219 203.496C197.315 203.816 197.443 204.168 197.539 204.487C197.73 205.127 197.922 205.735 198.146 206.279C198.466 207.078 198.913 207.782 199.521 208.358C199.681 208.518 199.84 208.646 200 208.742C198.977 207.654 198.274 206.311 197.954 204.839C197.315 201.832 197.315 198.666 198.05 195.659C198.37 194.219 198.817 192.524 199.84 191.021C199.872 190.989 199.872 190.957 199.904 190.925C200.128 190.669 200.416 190.445 200.736 190.349C200.927 190.285 201.151 190.221 201.343 190.221C202.014 190.221 202.622 190.605 202.91 191.18C203.069 191.468 203.197 191.756 203.325 192.012C203.549 192.492 203.773 192.94 204.06 193.292C204.38 193.708 204.796 194.027 205.243 194.251C205.371 194.251 205.531 194.155 205.563 194.123L205.595 194.091C205.659 194.027 205.691 193.899 205.627 193.803C205.531 193.58 205.371 193.356 205.243 193.164C204.028 191.948 203.677 190.445 203.421 189.133C203.325 188.621 203.293 188.11 203.357 187.598C203.485 186.638 203.709 185.711 204.028 184.815V184.783C204.572 183.311 205.787 182.192 207.289 181.776C208.057 181.552 208.824 181.36 209.623 181.232C210.295 181.104 211.03 181.04 211.733 181.04C212.437 181.04 213.172 181.104 213.843 181.232C215.762 181.584 217.68 182.128 219.502 182.864H219.534C220.749 183.407 221.996 183.855 223.274 184.207H223.306C224.969 184.655 226.535 185.071 228.134 185.199C227.974 185.071 227.814 184.943 227.718 184.751C227.686 184.719 227.686 184.687 227.654 184.655C227.303 184.015 227.303 183.247 227.718 182.64C228.55 181.328 229.7 180.177 231.011 179.345C232.002 178.705 233.089 178.257 234.24 178.065C234.496 178.033 234.72 178.001 234.976 178.001C235.295 178.001 235.583 178.033 235.871 178.097C237.277 178.385 238.524 179.185 239.419 180.305C239.931 180.944 240.41 181.648 240.794 182.384C241.817 184.335 242.457 186.414 242.744 188.557C242.936 189.869 243.064 191.212 243.16 192.364C243.288 193.708 243.288 195.051 243.16 196.363C243.128 196.714 243.096 197.098 243.064 197.45C243 197.962 242.968 198.442 242.936 198.954C242.712 201.928 242.073 204.839 241.434 207.334C241.817 206.279 242.201 205.159 242.521 203.912C242.712 203.272 242.872 202.632 243.032 201.992L243.32 200.937C243.288 200.713 243.288 200.521 243.256 200.297V200.201C243.32 199.049 243.576 197.93 243.991 196.874C244.279 196.139 244.918 195.595 245.686 195.403C246.069 195.307 246.453 195.243 246.836 195.243C247.7 195.243 248.531 195.499 249.234 195.979C250.033 196.49 250.673 197.162 251.184 197.962C251.76 198.794 252.176 199.753 252.399 200.777C252.847 202.568 253.039 204.423 253.039 206.279C252.975 208.39 252.751 210.469 252.335 212.516C251.856 214.947 251.12 217.315 250.193 219.586C248.851 222.976 247.06 226.143 244.822 229.022C243.671 230.494 242.297 231.837 240.794 232.957C239.739 233.724 238.588 234.3 237.341 234.62C236.926 234.812 236.478 234.876 236.031 234.876Z" fill="#F7F6F5" style="fill:#F7F6F5;fill:color(display-p3 0.9686 0.9647 0.9608);fill-opacity:1;"/>
<path d="M141.494 178.385C137.083 178.385 133.022 174.995 130.113 168.821C127.332 162.967 125.829 155.098 125.829 146.653C125.829 139.68 126.852 133.122 128.802 127.685C130.848 121.991 133.694 117.96 137.083 116.105C138.425 115.337 139.928 114.921 141.494 114.921C145.938 114.921 149.967 118.312 152.876 124.486C155.657 130.34 157.16 138.209 157.16 146.653C157.16 154.298 155.881 161.624 153.515 167.318C150.99 173.459 147.345 177.33 143.253 178.193C142.677 178.321 142.102 178.385 141.494 178.385ZM132.159 131.043C130.784 135.554 129.985 140.992 129.985 146.621C129.985 161.336 135.26 173.747 141.494 173.747C141.782 173.747 142.102 173.715 142.39 173.651H142.422C142.198 172.723 141.942 171.796 141.59 170.932C140.855 169.013 139.864 167.254 138.777 165.398C138.17 164.375 137.562 163.287 136.987 162.199C133.79 155.834 132.031 148.701 131.967 141.567C131.903 137.761 131.871 134.338 132.159 131.043ZM175.926 178.385C171.514 178.385 167.454 174.995 164.545 168.821C161.764 162.967 160.261 155.098 160.261 146.653C160.261 139.712 161.284 133.154 163.234 127.685C165.248 121.991 168.126 117.96 171.482 116.105C172.825 115.337 174.328 114.921 175.894 114.921C184.846 114.921 191.592 128.58 191.592 146.653C191.592 154.298 190.313 161.624 187.947 167.318C185.421 173.459 181.777 177.33 177.685 178.193C177.109 178.321 176.502 178.385 175.926 178.385ZM166.559 131.043C165.184 135.554 164.385 140.992 164.385 146.653C164.385 161.368 169.66 173.779 175.894 173.779C176.214 173.779 176.502 173.747 176.821 173.683C176.598 172.755 176.342 171.828 175.99 170.964C175.255 169.045 174.232 167.286 173.177 165.43C172.569 164.407 171.962 163.319 171.387 162.231C168.19 155.866 166.431 148.733 166.367 141.599C166.303 137.761 166.271 134.338 166.559 131.043ZM235.966 238.778C235.806 238.778 235.646 238.746 235.487 238.683C235.103 238.523 234.687 238.427 234.272 238.363C234.144 238.331 234.016 238.299 233.92 238.267L231.522 237.179C231.394 237.115 231.267 237.019 231.139 236.923C230.979 236.763 230.787 236.603 230.595 236.475C230.499 236.411 230.403 236.315 230.339 236.251C229.38 235.068 228.645 233.756 228.102 232.349C225.736 232.893 223.274 233.181 220.844 233.213H220.812C220.748 233.213 220.684 233.213 220.589 233.181C220.333 233.149 220.077 233.117 219.789 233.117H219.47C219.214 233.117 218.894 233.117 218.574 233.021C218.351 232.957 218.063 232.925 217.775 232.893L214.674 232.477H214.61C213.171 232.189 211.765 231.837 210.454 231.485C210.326 231.453 210.198 231.389 210.07 231.325C210.006 231.293 209.911 231.261 209.847 231.261H209.783C209.655 231.261 209.527 231.261 209.431 231.229L208.248 230.909C208.024 230.845 207.864 230.75 207.705 230.59C207.673 230.558 207.609 230.526 207.545 230.526H207.481C207.385 230.558 207.289 230.558 207.193 230.558C207.033 230.558 206.873 230.526 206.714 230.462C205.435 229.918 204.156 229.406 202.877 228.862C198.817 227.199 194.949 225.056 191.4 222.497C190.441 221.793 189.514 221.025 188.65 220.257C187.915 219.554 187.372 218.69 187.116 217.73C186.285 214.884 186.029 211.941 186.317 208.998C186.508 206.823 187.148 204.711 188.171 202.76C188.395 202.376 188.618 201.992 188.906 201.609C189.865 200.297 191.464 198.538 194.149 198.218L194.341 196.778C194.437 196.139 194.533 195.499 194.629 194.827C194.949 192.78 195.62 190.861 196.611 189.069C197.346 187.662 198.401 186.414 199.712 185.519C199.872 185.391 200 185.231 200.064 185.007C200.064 184.975 200.192 184.655 200.224 184.495C200.383 184.015 200.543 183.535 200.767 183.024C201.63 180.976 203.357 179.313 205.435 178.513C206.362 178.129 207.321 177.874 208.312 177.746C209.367 177.586 210.422 177.522 211.509 177.522C212.053 177.522 212.564 177.554 213.108 177.586H213.14C215.282 177.81 217.36 178.353 219.342 179.185L223.881 181.168C225.352 178.961 227.334 177.458 229.093 176.242C230.755 175.091 232.737 174.451 234.751 174.419H235.007C236.542 174.419 238.044 174.835 239.355 175.602C240.826 176.498 242.072 177.714 243.032 179.121C244.31 181.072 245.174 183.216 245.653 185.487C246.069 187.438 246.356 189.453 246.484 191.436C246.868 191.468 247.22 191.5 247.603 191.5H247.635C249.745 191.596 251.695 192.492 253.198 193.963C253.837 194.571 254.381 195.243 254.829 196.011C255.052 196.395 255.244 196.778 255.468 197.162C255.628 197.45 255.756 197.706 255.916 197.994H255.948C256.139 197.93 256.331 197.898 256.523 197.834C258.601 197.354 259.912 195.979 260.679 193.58C260.679 193.548 260.711 193.516 260.711 193.452C260.743 193.388 260.743 193.292 260.775 193.228C260.935 192.684 260.967 192.172 260.839 191.66C260.455 189.901 260.327 188.142 260.455 186.382C260.551 184.367 260.999 182.384 261.766 180.465C262.629 178.225 263.812 176.146 265.283 174.259C265.507 174.003 265.73 173.747 265.922 173.523C266.146 173.267 266.37 173.043 266.53 172.787C266.626 172.66 266.753 172.532 266.881 172.436C267.425 172.084 267.872 171.636 268.256 171.156C268.288 171.092 268.352 171.028 268.416 170.996C269.151 170.324 269.95 169.717 270.814 169.173C272.412 168.085 274.234 167.35 276.153 166.998L276.281 166.966C276.376 166.934 276.472 166.934 276.568 166.934H276.664C277.176 166.966 277.655 167.03 278.103 167.094C278.135 167.094 278.167 167.094 278.199 167.126C278.934 167.286 279.637 167.445 280.373 167.605L282.099 167.989C282.131 167.989 282.163 168.021 282.195 168.021C282.706 168.181 283.218 168.341 283.762 168.501C283.889 168.533 284.017 168.597 284.113 168.693C284.177 168.757 284.273 168.789 284.337 168.821L284.625 169.013C289.548 172.276 293.225 176.946 295.271 182.48C296.198 184.943 296.805 187.534 297.061 190.157C297.509 194.347 297.157 198.57 296.038 202.632C294.599 207.942 292.202 212.868 288.845 217.251C284.912 222.465 280.053 226.783 274.394 230.046C272.732 231.037 270.973 231.933 269.183 232.669C268.576 232.925 267.968 233.181 267.457 233.373C267.361 233.404 267.265 233.468 267.201 233.532C267.105 233.596 266.977 233.66 266.881 233.692C266.689 233.756 266.498 233.82 266.306 233.916L266.242 233.948C266.146 233.98 266.018 234.012 265.922 234.044L265.602 234.076C264.835 234.396 264.068 234.716 263.365 235.036C263.301 235.068 263.237 235.1 263.141 235.1C262.501 235.26 261.83 235.42 261.191 235.612H261.159C261.031 235.644 260.903 235.676 260.775 235.676C260.679 235.676 260.551 235.676 260.455 235.644C259.848 235.676 259.24 235.74 258.665 235.868C256.875 236.251 255.02 236.475 253.198 236.475H252.335C251.983 236.475 251.632 236.475 251.248 236.443C250.385 236.443 249.49 236.411 248.626 236.411L247.667 236.507H247.475C247.38 236.507 247.284 236.507 247.188 236.475C246.804 236.379 246.388 236.347 245.973 236.283C245.301 236.187 244.63 236.091 243.927 235.9C243.383 236.187 242.84 236.507 242.136 236.955C241.209 237.531 240.25 237.851 239.323 238.139C239.131 238.203 238.907 238.267 238.716 238.331C238.684 238.331 238.652 238.331 238.652 238.363C238.108 238.523 237.533 238.619 236.957 238.651C236.606 238.682 236.286 238.714 235.998 238.714C236.03 238.778 235.998 238.778 235.966 238.778ZM233.089 230.366C233.568 231.101 234.24 231.677 235.039 232.093C235.359 232.253 235.71 232.349 236.062 232.349C236.254 232.349 236.478 232.317 236.67 232.253C237.629 231.997 238.524 231.549 239.323 230.973C240.634 229.982 241.817 228.83 242.84 227.551C244.918 224.864 246.612 221.889 247.859 218.722C248.722 216.579 249.394 214.34 249.873 212.101C250.257 210.213 250.481 208.262 250.513 206.343C250.545 204.711 250.353 203.048 249.937 201.449C249.777 200.713 249.49 200.041 249.074 199.433C248.754 198.922 248.339 198.506 247.859 198.186C247.539 197.994 247.22 197.866 246.868 197.866C246.708 197.866 246.548 197.898 246.388 197.93C246.101 198.698 245.909 199.529 245.877 200.329C245.877 200.489 245.909 200.649 245.941 200.809C245.973 201.001 245.973 201.193 245.909 201.385C245.781 201.832 245.685 202.248 245.557 202.696C245.397 203.336 245.206 203.976 245.046 204.615C243.959 208.55 242.648 211.589 240.89 214.148C240.89 214.18 240.858 214.18 240.858 214.212C240.698 214.436 240.506 214.66 240.314 214.884C240.058 215.139 239.739 215.299 239.387 215.299H239.259C237.916 215.171 237.405 214.02 237.245 213.668C237.117 213.38 237.117 213.06 237.213 212.772L237.533 211.813C238.044 210.277 238.556 208.678 238.939 207.078C239.579 204.615 240.25 201.705 240.474 198.794C240.506 198.25 240.57 197.738 240.634 197.226L240.73 196.171C240.826 194.987 240.826 193.804 240.73 192.62C240.634 191.5 240.474 190.189 240.314 188.909C240.058 187.054 239.515 185.263 238.652 183.599C238.332 183.024 237.948 182.448 237.533 181.936C236.989 181.264 236.254 180.816 235.423 180.625H235.391C235.295 180.593 235.167 180.593 235.071 180.593C234.975 180.593 234.911 180.593 234.815 180.625C233.984 180.784 233.217 181.104 232.481 181.552C232.29 181.68 232.098 181.808 231.906 181.968C232.354 182 232.769 182.192 233.057 182.512C233.568 183.056 233.728 183.887 233.409 184.591C233.057 185.391 232.449 186.51 231.171 187.182C231.139 187.214 231.107 187.246 231.107 187.278C230.883 187.598 230.531 187.822 230.116 187.854C229.86 187.886 229.572 187.886 229.316 187.886C227.015 187.886 224.873 187.31 222.763 186.766L222.699 186.734C221.292 186.318 219.949 185.839 218.638 185.263C216.976 184.591 215.25 184.079 213.491 183.791C212.916 183.695 212.372 183.631 211.829 183.631C211.285 183.631 210.742 183.695 210.198 183.791C209.495 183.919 208.792 184.079 208.088 184.271C207.385 184.463 206.809 185.007 206.522 185.711C206.266 186.478 206.074 187.246 205.978 188.046C205.946 188.27 205.946 188.494 206.01 188.717V188.781C206.202 189.965 206.458 190.829 207.129 191.468L207.193 191.532C207.513 191.916 207.801 192.332 207.992 192.78C208.504 193.835 208.28 195.083 207.481 195.947C206.937 196.522 206.074 196.906 205.243 196.906C204.923 196.906 204.603 196.842 204.348 196.714C203.453 196.331 202.685 195.723 202.078 194.955C201.758 194.571 201.534 194.123 201.311 193.74C200.959 194.571 200.735 195.467 200.543 196.331C199.904 198.986 199.904 201.768 200.479 204.391C200.703 205.415 201.183 206.343 201.886 207.11L201.918 207.142C202.046 207.302 202.174 207.43 202.334 207.558C203.165 208.262 203.58 209.35 203.357 210.437C203.261 210.949 202.845 211.365 202.334 211.461C202.27 211.461 202.206 211.493 202.11 211.525C201.694 211.653 201.247 211.749 200.831 211.749C199.744 211.749 198.753 211.301 197.762 210.373C196.899 209.51 196.227 208.518 195.812 207.398C195.556 206.727 195.332 206.055 195.14 205.415C195.108 205.351 195.108 205.287 195.076 205.223C194.885 205.415 194.725 205.639 194.565 205.863C193.574 207.366 192.934 209.126 192.743 210.949C192.551 212.58 192.615 214.212 192.934 215.811C192.998 216.035 193.126 216.291 193.286 216.451L193.318 216.483C193.446 216.643 193.606 216.771 193.734 216.899C198.753 221.185 204.795 224.224 211.221 225.727C215.026 226.655 218.894 227.135 222.794 227.135H224.009C225.704 227.071 227.398 226.655 228.933 226.303C229.54 226.143 230.148 225.887 230.723 225.567C230.723 225.567 230.755 225.567 230.755 225.535C232.162 224.8 233.089 223.904 233.664 222.721C233.76 222.497 233.888 222.305 233.984 222.145C234.08 221.985 234.144 221.857 234.208 221.729C234.591 220.865 235.359 220.385 236.286 220.385C236.606 220.385 236.893 220.449 237.181 220.481C237.788 220.577 238.204 221.089 238.236 221.697V222.017C238.236 222.305 238.268 222.561 238.268 222.849C238.268 223.616 238.108 224.416 237.788 225.12C237.469 225.887 237.085 226.623 236.574 227.295C236.574 227.327 236.542 227.327 236.542 227.359C236.382 227.551 236.222 227.807 236.062 228.063C235.966 228.19 235.902 228.318 235.806 228.446C235.678 228.638 235.519 228.766 235.327 228.862C234.815 229.15 234.336 229.534 233.792 229.918C233.536 230.046 233.313 230.206 233.089 230.366Z" fill="#2C2729" style="fill:#2C2729;fill:color(display-p3 0.1725 0.1529 0.1608);fill-opacity:1;"/>
<path d="M306.366 305.089C306.11 303.458 305.375 302.21 303.744 301.507C300.228 299.939 296.487 298.948 292.619 298.628C288.431 298.308 284.307 298.532 280.246 299.587C279.287 299.843 278.488 299.843 277.593 299.299C275.611 298.116 273.245 297.7 270.975 298.116C271.135 298.02 271.295 297.956 271.455 297.86C272.893 297.028 274.268 296.037 275.739 295.205C278.392 293.702 280.79 291.782 282.868 289.543C284.946 287.304 286.928 285.001 288.495 282.378C289.742 280.331 291.276 279.019 294.026 279.115C297.382 279.243 300.292 277.74 302.498 275.117C303.808 273.549 303.649 272.462 301.826 271.598C299.716 270.606 298.246 269.039 297.031 267.12C295.4 264.465 294.09 261.65 293.066 258.707C290.892 252.533 289.55 246.136 288.495 239.706C287.28 232.349 286.161 224.96 285.873 217.506C285.713 212.644 285.49 207.814 285.298 202.952C285.106 198.41 284.658 193.867 284.786 189.357C284.978 182.256 285.266 175.186 285.394 168.085C285.49 163.127 285.298 158.137 284.85 153.211C284.562 150.076 283.955 146.941 283.348 143.806C279.863 125.317 273.469 107.98 263.462 92.0499C253.839 76.7596 241.627 64.0605 225.897 54.9119C214.26 48.1625 201.792 44.1 188.332 43.3003C174.873 42.5006 162.021 45.1236 149.808 50.8495C135.518 57.5669 123.785 67.5151 114.034 79.8305C103.707 92.8496 96.4502 107.5 91.6547 123.334C87.8183 136.129 85.0688 149.244 83.3744 162.519C83.2466 163.479 83.1506 164.438 83.0228 165.398C73.5596 154.842 69.1797 144.318 69.1797 144.318C70.6183 143.039 71.8012 141.599 72.4087 139.744C72.6964 138.976 72.8243 138.144 72.7923 137.313C72.6325 135.617 71.7373 134.338 70.4905 133.282C70.1708 132.994 70.1708 133.026 70.4265 132.674C74.0711 128.068 76.1812 122.47 76.5009 116.585C76.7246 113.61 76.309 110.603 75.286 107.788C74.1031 104.621 72.1849 101.998 69.3076 100.143C67.773 99.1832 66.0786 98.5434 64.3202 98.2555C63.6808 98.1915 63.1373 97.7757 62.9136 97.1999C62.1782 95.6645 61.347 94.193 60.7715 92.5617C59.205 88.0514 57.8942 83.4771 56.4876 78.9348C55.7842 76.5997 55.0489 74.2646 54.1537 72.0254C53.3225 69.8183 52.1716 67.771 50.7649 65.9158C48.8787 63.5806 46.4809 62.1412 43.5077 61.7893C41.9092 61.5654 40.2787 62.0132 39.0319 63.0049C38.1367 63.7726 37.4653 64.7642 37.0497 65.8518C36.5382 67.1633 36.2185 68.5068 36.0906 69.9142C35.8988 71.8015 35.8668 73.6888 35.9308 75.5761C35.9947 78.6149 36.4423 81.6538 37.2415 84.5647C37.849 86.8038 38.7441 88.915 39.5114 91.0902C39.991 92.3697 40.4066 93.6812 40.7263 95.0247C40.8861 95.4086 40.982 95.8244 41.046 96.2723C40.8542 96.1443 40.7263 95.9524 40.6943 95.7285C39.5754 93.6173 38.5203 91.4741 37.5612 89.2669C36.0906 85.9082 34.7159 82.5175 33.1174 79.2227C31.9665 76.8556 30.7196 74.5525 29.1211 72.5053C28.0022 71.0018 26.5635 69.7863 24.9011 68.9226C23.3985 68.1869 21.8639 67.995 20.2974 68.6347C19.1784 69.0826 18.2513 69.9142 17.6439 70.9379C16.8766 72.1854 16.2691 73.5289 15.9175 74.9683C15.1821 77.4634 14.9903 80.0864 15.31 82.6774C15.5019 83.9569 15.6297 85.2044 15.9175 86.484C16.3331 88.3712 16.9405 90.1946 17.7717 91.9219C18.9546 94.225 20.3293 96.4642 21.8959 98.5114C23.2706 100.431 24.6453 102.35 25.9241 104.333C26.052 104.493 26.1479 104.685 26.1799 104.877C25.1568 104.525 24.1658 104.717 23.2067 104.845C22.1197 104.973 21.0647 105.357 20.1375 105.965C18.2513 107.212 17.2602 109.035 16.8766 111.211C16.461 113.61 16.8126 115.945 17.5799 118.248C18.7948 121.799 20.8409 125.029 23.5903 127.62C23.7821 127.812 23.942 128.036 24.0059 128.324C24.1338 128.836 24.3256 129.316 24.5494 129.764C25.6044 131.747 27.0431 133.538 28.7695 134.978C31.4869 137.249 34.62 138.976 38.0088 140C38.2006 140.064 38.4244 140.064 38.5523 140.256C38.3285 140.575 38.1367 140.927 37.9129 141.279C36.73 143.294 36.9538 145.821 38.4564 147.581C39.1917 148.413 40.0869 149.116 41.1099 149.596C42.133 150.108 43.2519 150.46 44.3709 150.684C44.6586 150.716 44.9144 150.94 44.9463 151.227C45.0422 151.675 45.1701 152.123 45.298 152.539C49.1984 165.27 55.976 176.946 65.0875 186.67C69.7871 191.66 75.0622 196.042 80.8168 199.753C80.593 208.838 79.8577 217.89 78.5789 226.879C76.7246 240.09 73.08 252.885 68.9559 265.52C68.0607 268.335 66.5581 270.894 64.5121 273.005C63.2652 274.285 63.3292 275.085 64.7678 276.172C65.5031 276.748 66.4303 277.036 67.3894 277.004C68.1886 276.94 69.0198 276.972 69.7871 277.164C72.7284 277.995 75.7655 278.187 78.8027 278.443C81.0406 278.603 83.2146 279.211 85.1967 280.267C87.2108 281.354 89.161 282.57 91.0473 283.913C96.5142 287.816 101.725 292.07 106.872 296.388C107.768 297.124 108.631 297.86 109.558 298.564C108.759 299.171 108.151 300.003 107.8 300.963C107.416 302.082 107.16 303.234 107.032 304.417C106.968 305.025 107.096 305.665 106.617 306.177C106.073 306.145 105.722 305.729 105.338 305.441C95.7149 298.148 84.9729 293.733 72.7603 293.158C67.1656 292.87 61.7307 293.542 56.5195 295.653C52.8749 297.156 49.4541 299.075 47.1203 302.402C46.7367 302.946 46.1612 303.17 45.6497 303.522C42.8683 305.249 41.1739 307.744 40.2787 310.879C39.4475 313.822 39.5434 316.797 40.0869 319.74C41.1099 325.338 43.4437 330.424 46.5129 335.126C55.4006 348.689 66.8459 359.341 81.9358 365.77C82.6071 366.09 83.3744 366.154 84.0778 365.962C85.8361 365.546 87.5625 365.098 89.4168 364.651C89.5766 365.546 89.161 366.154 88.9692 366.794C88.2019 369.321 88.3937 369.929 90.5357 371.56C91.9744 372.648 93.5409 373.543 95.2353 374.183C99.1677 375.622 103.132 376.902 107.384 375.59C107.608 375.526 107.864 375.495 108.119 375.527C111.636 375.782 114.481 374.183 117.167 372.168C120.076 369.961 122.378 367.21 124.488 364.267C126.534 361.356 128.26 358.253 129.635 354.99C129.955 354.255 130.243 354.031 130.978 354.51C132.321 355.342 133.951 355.598 135.486 355.182C139.386 354.191 144.278 350.992 144.373 344.818C144.437 340.724 143.031 337.141 140.793 333.846C140.281 333.079 139.994 332.375 140.217 331.447C141.496 325.881 142.775 320.315 144.533 314.877C146.132 310.047 148.018 305.377 150.512 300.963H150.544C154.956 299.363 159.399 299.331 163.779 301.283C167.52 303.01 170.909 305.409 173.754 308.352C177.367 312.031 180.883 315.805 185.007 318.972C191.05 323.61 197.604 324.474 204.637 321.691C208.346 320.251 211.447 317.884 214.1 315.005C222.381 325.018 233.25 330.648 246.614 331.991C247.989 332.119 247.989 332.087 248.212 333.43C248.628 335.989 249.491 338.389 251.345 340.276C251.953 340.916 251.761 341.267 251.25 341.779C247.605 345.554 246.07 350.256 245.687 355.278C244.919 364.779 247.541 373.383 253.136 381.028C256.589 385.763 260.905 389.441 266.659 391.041C270.815 392.192 274.971 392.384 278.904 389.953C280.214 389.121 281.397 388.098 282.484 386.978C286.449 382.916 289.837 378.373 292.619 373.447C299.492 361.42 303.553 348.465 305.759 334.87C305.982 333.43 305.727 332.407 304.704 331.383C303.201 329.944 301.89 328.312 300.228 326.489C302.242 326.329 303.776 326.233 305.343 326.105C306.526 326.009 306.846 325.785 306.846 324.666C306.878 318.108 307.325 311.551 306.366 305.089ZM66.6541 143.167C64.4801 144.862 61.9864 146.173 59.3649 147.005C56.7753 147.869 54.0578 148.413 51.3084 148.572C49.1344 148.764 46.9605 148.604 44.8185 148.093C43.6675 147.837 42.5486 147.357 41.5575 146.685C40.7582 146.141 40.1189 145.502 39.8631 144.542C39.8311 144.414 39.7991 144.254 39.7991 144.094C39.7672 143.007 40.0229 141.951 40.5664 140.991C40.7263 140.735 40.8861 140.735 41.1419 140.767C43.2839 141.183 45.4579 141.375 47.6318 141.247C48.7828 141.215 49.9337 141.023 51.0526 140.735C51.4363 140.639 51.7879 140.48 52.1076 140.256C52.3314 140.16 52.4593 139.872 52.3314 139.616C52.2675 139.456 52.1076 139.328 51.9158 139.328C51.4363 139.232 50.9567 139.232 50.5091 139.232C48.1753 139.328 45.8095 139.136 43.5077 138.72C38.936 137.857 34.652 135.841 31.0713 132.898C31.0074 132.866 30.9754 132.802 30.9115 132.738C30.8475 132.738 30.7836 132.674 30.7836 132.611C30.7196 132.611 30.6877 132.579 30.6557 132.515C30.5918 132.515 30.5278 132.483 30.5278 132.419H30.4639C30.4639 132.323 30.3999 132.259 30.304 132.259L30.3999 132.131L30.4958 132.163C30.5278 132.227 30.5918 132.259 30.6557 132.227L30.7836 132.323C30.8795 132.291 30.9434 132.323 31.0074 132.419C31.1033 132.387 31.1992 132.419 31.2312 132.483C32.0624 132.674 32.9256 132.834 33.7248 133.09C35.3553 133.634 37.0497 133.826 38.7441 133.602C41.4296 133.218 43.3159 131.459 43.8913 128.804C44.1151 127.62 44.0831 126.373 43.7634 125.221C43.3478 123.526 42.6445 121.927 41.6534 120.487C39.1597 116.649 35.643 113.61 31.4869 111.722C30.368 111.211 29.1531 110.859 27.9063 110.699C27.7144 110.667 27.5546 110.667 27.3628 110.699C27.0431 110.731 26.8193 111.019 26.8512 111.339C26.8512 111.53 26.9791 111.69 27.107 111.786C27.2669 111.882 27.4587 111.978 27.6505 112.074C29.1851 112.746 30.6557 113.514 32.0304 114.441C35.5791 116.872 38.4884 119.879 40.2148 123.878C40.7902 125.125 41.078 126.469 41.014 127.812C41.014 128.26 40.9181 128.676 40.7582 129.092C40.3107 130.147 39.4794 130.723 38.3925 130.947C37.1776 131.203 35.8988 131.171 34.6839 130.851C33.565 130.595 32.478 130.243 31.359 129.892C30.4319 129.54 29.5687 129.06 28.7695 128.452C26.02 126.565 23.942 124.102 22.2156 121.287C20.9048 119.144 19.9137 116.872 19.594 114.345C19.3702 112.97 19.4981 111.562 19.9457 110.219C20.1695 109.643 20.5212 109.099 20.9368 108.652C21.736 107.788 22.9189 107.404 24.1018 107.628C25.4446 107.82 26.5955 108.396 27.2988 109.611C27.3947 109.867 27.6505 110.027 27.9382 109.995C28.2579 109.963 28.5457 109.739 28.6096 109.451C28.8654 108.748 28.8973 107.98 28.6735 107.244C27.8104 104.653 26.6275 102.158 25.1568 99.8229C23.91 97.8397 22.6312 95.9204 21.4803 93.9052C19.7539 90.8983 18.6349 87.5716 18.1554 84.1488C17.9316 82.5495 17.6758 80.9181 17.8037 79.2867C17.8996 77.0795 18.4431 74.9363 19.3383 72.9211C19.5301 72.5372 19.7539 72.1534 20.0096 71.8015C20.681 70.8099 21.9918 70.49 23.0468 71.0338C24.1338 71.5136 25.1249 72.2174 25.8921 73.145C27.075 74.5205 28.0661 76.0239 28.8654 77.6553C30.1761 80.1824 31.2951 82.7734 32.3821 85.3964C33.4691 87.9554 34.4282 90.5464 35.6111 93.0415C36.2824 94.5449 37.0177 95.9844 37.849 97.3918C38.2966 98.1276 38.8081 98.7993 39.4475 99.4071C39.991 99.9189 40.5984 100.335 41.3657 100.367C41.6214 100.367 41.6534 100.495 41.6854 100.719C41.8772 101.998 41.6854 103.31 41.1739 104.493C41.014 104.845 40.8222 105.197 40.6304 105.581C40.5025 105.837 40.4066 106.093 40.2787 106.316C40.1828 106.508 40.2148 106.732 40.3746 106.86C40.5664 106.988 40.8222 106.988 40.982 106.828C41.014 106.796 41.078 106.764 41.1099 106.732C43.0281 105.325 44.0512 103.022 43.8913 100.655C43.7315 97.2639 43.0921 93.8732 42.0371 90.6424C41.3657 88.5632 40.5664 86.5159 39.959 84.4047C39.0319 81.206 38.5843 77.9112 38.6163 74.5845C38.6163 73.177 38.6163 71.7695 38.7441 70.3621C38.84 68.9866 39.1917 67.6431 39.7352 66.3956C40.5025 64.8282 41.7493 64.3803 43.3159 64.7322C45.1382 65.148 46.7367 66.2036 47.8556 67.7071C48.7828 68.9866 49.5181 70.3621 50.0935 71.8335C51.1485 74.4245 51.8839 77.1115 52.6192 79.7985C53.2266 81.9417 53.7701 84.0849 54.3456 86.1961C55.0169 88.6591 55.6563 91.1222 56.3597 93.5533C56.9351 95.7285 57.9901 97.7117 59.4288 99.4391C59.5567 99.599 59.7165 99.7269 59.8444 99.8869C59.9723 100.047 60.1641 100.111 60.26 100.367C59.1091 101.07 58.2139 102.03 57.2548 102.99C56.1039 104.205 55.0809 105.517 54.1537 106.892C53.5783 107.66 52.9708 108.428 52.2995 109.131C51.3723 110.155 50.2534 110.923 49.1344 111.754C46.7047 113.45 44.8504 115.817 43.8274 118.6C43.6036 119.272 43.4437 119.975 43.3159 120.679C43.2519 121.063 43.3478 121.415 43.5716 121.703C45.5218 124.933 48.3352 126.821 52.1396 127.045C54.3136 127.141 56.5195 126.661 58.4377 125.605C62.0184 123.718 64.576 120.807 66.3983 117.224C67.2295 115.625 67.805 113.93 68.1247 112.138C68.2206 111.53 68.2845 110.955 68.2845 110.347C68.2845 110.155 68.2526 109.995 68.2206 109.803C68.1886 109.579 68.0288 109.451 67.805 109.419C67.6132 109.387 67.4213 109.483 67.3254 109.643C67.2295 109.803 67.1656 109.963 67.1016 110.155C66.4622 112.01 65.8228 113.866 64.8637 115.593C63.1693 118.6 60.9634 121.095 57.9262 122.854C56.5195 123.686 54.985 124.198 53.3545 124.358C50.605 124.614 48.3032 123.75 46.5129 121.639C46.2891 121.383 46.1932 121.063 46.1932 120.743C46.1932 119.463 46.7047 118.344 47.3121 117.288C48.1114 116.041 49.1344 114.921 50.3173 114.058C50.7969 113.674 51.2764 113.322 51.756 112.97C53.6422 111.53 55.0809 109.675 56.3916 107.724C57.4786 106.029 58.7255 104.461 60.1641 103.022C60.7076 102.51 61.315 102.062 61.9544 101.678C62.0823 101.614 62.2102 101.55 62.3701 101.518C63.9686 101.294 65.631 101.614 67.0057 102.414C68.9559 103.502 70.3306 105.165 71.2897 107.148C72.3767 109.419 72.9522 111.914 72.9841 114.409C73.112 119.943 71.5135 124.965 68.4764 129.54C66.9098 131.971 64.8637 134.018 62.466 135.617C60.6756 136.801 58.6615 137.665 56.5835 138.144C56.2318 138.208 55.9121 138.304 55.5924 138.432C55.2727 138.496 55.0489 138.784 55.0489 139.104C55.0489 139.456 55.3047 139.616 55.5924 139.744C56.04 139.904 56.5515 140 57.031 140.032C59.0452 140.096 61.0593 139.648 62.8816 138.752C64.544 137.952 66.0786 136.929 67.4213 135.713L67.5812 135.553C67.9648 135.202 67.9648 135.202 68.3165 135.553C68.4124 135.649 68.5083 135.745 68.6042 135.809C69.7871 136.833 70.1068 138.528 69.4035 139.904C68.86 141.119 67.8369 142.271 66.6541 143.167ZM84.6213 273.005C84.3975 273.901 83.9499 274.029 83.1826 273.901C78.0674 273.037 72.8882 273.965 67.6771 273.357C67.5492 272.973 68.0607 272.781 68.3165 272.494C71.5135 268.911 73.3678 264.561 75.1581 260.178C79.1544 250.358 82.0956 240.25 83.6302 229.726C84.4614 224.064 84.909 218.37 85.3566 212.676C85.6123 209.349 85.6763 206.023 85.7402 202.664C88.5216 204.167 91.3989 205.511 94.3402 206.694C96.5781 207.59 98.848 208.358 101.15 209.062C100.926 210.501 100.734 211.94 100.51 213.38C100.351 214.531 100.063 215.683 99.8071 216.835C99.4554 219.873 98.6242 222.784 97.9848 225.759C96.2264 233.756 94.5959 241.817 92.39 249.686C90.8235 255.252 89.0651 260.754 87.019 266.16C86.1558 268.431 85.2287 270.67 84.6213 273.005ZM112.307 360.812C107.8 362.188 103.26 363.531 98.7521 364.907C96.2264 365.674 93.7008 366.538 91.0792 367.402C91.4309 364.363 93.0933 363.051 95.7788 362.284C100.766 360.844 105.658 358.957 110.581 357.293C112.275 356.718 112.307 356.718 112.947 358.477C113.043 358.701 113.139 358.925 113.203 359.181C113.586 360.364 113.554 360.428 112.307 360.812ZM127.749 350.96C126.918 353.135 125.959 355.246 124.84 357.293C124.04 348.305 120.46 340.98 114.897 334.582C114.705 334.39 114.545 334.198 114.353 334.006C114.066 333.974 113.746 333.686 113.49 333.942C113.235 334.198 113.458 334.518 113.586 334.774C114.162 335.734 114.737 336.693 115.345 337.621C118.51 342.675 120.811 348.049 121.739 353.967C122.058 356.046 122.09 358.189 121.803 360.268C121.515 362.38 120.843 364.363 119.245 365.93C118.382 366.794 117.646 367.817 116.687 368.617C116.527 368.905 116.368 369.385 115.984 369.065C115.664 368.809 115.952 368.425 116.24 368.201C116.815 366.186 116.719 364.235 116.368 362.124C116.048 360.268 115.856 358.381 114.705 356.878C113.714 355.598 113.33 354.223 113.043 352.687C111.924 346.609 109.238 341.14 105.881 336.021C97.4093 323.162 86.3796 313.054 72.6005 306.113C67.4213 303.49 61.9544 301.666 56.1039 301.251C54.5374 301.155 52.9708 301.219 51.4363 301.411C53.6102 299.619 55.9441 299.395 58.15 298.852C62.402 297.476 66.5901 297.988 70.7143 299.395C78.0354 301.826 84.5573 305.697 90.6636 310.335C93.6688 312.606 96.6101 315.005 99.1996 317.788C100.063 318.396 100.83 319.164 101.438 320.028C103.899 322.363 105.977 325.05 108.151 327.641C108.503 328.056 108.855 328.504 109.238 328.92C109.398 329.112 109.622 329.304 109.846 329.176C110.165 328.984 109.942 328.6 110.006 328.312C106.201 320.795 100.415 314.973 94.1484 309.536C88.6815 304.769 82.5752 300.803 75.9893 297.7C75.4458 297.764 75.1261 297.348 74.7105 297.124C75.4458 296.9 76.1492 296.868 76.7886 297.284C83.2146 298.276 89.193 300.547 94.8517 303.714C99.2956 306.177 103.388 309.248 106.968 312.83C107.48 313.342 108.087 313.822 108.407 314.494C111.093 317.085 113.33 320.06 115.504 323.066C117.455 325.785 119.533 328.408 121.643 330.999C123.145 332.823 124.776 334.582 125.959 336.597C128.58 341.076 129.827 345.842 127.749 350.96ZM135.262 350.608C134.686 350.832 134.047 350.896 133.44 350.768C132.704 350.576 132.193 350.16 132.225 349.36C132.576 342.611 129.635 337.077 125.767 331.927C121.898 326.777 118.158 321.691 115.185 315.997C114.641 314.973 114.002 313.982 113.394 312.958C112.243 311.743 111.093 310.527 109.878 309.376C109.366 308.928 109.078 308.256 109.142 307.584C109.238 305.857 109.59 304.13 110.165 302.498C110.549 301.315 111.38 300.739 112.563 300.739C113.618 301.411 114.705 302.018 115.824 302.53C117.295 303.202 118.637 303.778 119.852 304.289C120.332 305.345 120.748 306.401 121.099 307.488C122.698 312.542 125.223 317.181 127.333 321.979C127.621 322.587 127.909 323.194 128.197 323.834C129.795 327.129 132.257 329.72 134.623 332.407C136.797 334.902 138.683 337.557 139.482 340.852C139.706 341.811 139.866 342.803 139.898 343.795C140.089 347.025 138.299 349.584 135.262 350.608ZM182.865 309.536C182.674 309.695 182.354 309.408 182.29 309.088C179.253 306.241 176.439 303.138 173.274 300.451C171.644 299.139 169.886 297.924 168.095 296.836C164.163 294.309 159.911 293.446 155.499 293.669C157.353 291.43 159.559 289.511 162.021 288.008C164.77 286.376 167.712 285.353 170.909 285.96C173.594 286.472 175.672 285.705 177.431 283.785C177.782 283.433 178.07 283.05 178.39 282.666C179.029 288.328 179.892 293.925 180.947 299.523C181.523 302.562 181.97 305.633 182.706 308.64C182.961 308.928 183.185 309.28 182.865 309.536ZM240.763 264.337C240.508 263.505 240.348 262.641 240.156 261.81C239.996 261.106 239.772 260.434 238.941 260.402C237.95 260.402 237.758 261.17 237.63 261.906C237.502 262.961 237.502 264.017 237.694 265.072C238.142 267.887 238.749 270.702 239.548 273.453C239.676 273.869 239.868 274.253 239.772 274.733C240.54 277.1 241.275 279.435 242.042 281.802C243.193 284.745 244.312 287.688 245.463 290.663C245.815 291.558 246.198 292.486 246.646 293.606C244.44 293.446 242.266 293.542 240.092 293.893C238.941 292.742 237.886 291.526 236.895 290.247C235.712 288.615 234.753 286.888 233.954 285.065C233.154 283.337 231.3 282.954 230.245 284.425C229.606 285.289 228.998 285.417 228.071 285.353C225.13 285.161 222.221 285.769 219.567 287.048C215.891 288.775 212.598 291.174 209.816 294.117C209.337 294.597 208.985 295.173 208.218 295.333C207.227 295.557 206.843 296.325 206.779 297.284C206.683 298.596 206.779 299.907 207.003 301.187C207.674 304.801 209.113 308.224 211.223 311.263L211.351 311.423C209.049 314.238 206.268 316.605 202.783 317.948C198.307 319.708 194.151 318.812 190.187 316.317C189.227 315.773 188.652 314.782 188.652 313.694C188.78 310.783 187.917 308.032 187.373 305.249C185.423 295.589 183.633 285.928 182.034 276.204C183.153 272.813 183.281 269.167 182.578 265.264C182.482 264.784 182.194 264.305 182.29 263.825C182.61 262.321 181.874 261.17 181.011 260.082C180.34 259.251 179.636 258.451 178.837 257.747C178.709 257.011 178.549 256.308 178.422 255.572C178.262 254.708 178.23 253.845 178.102 252.981C177.942 251.733 177.878 251.701 176.407 251.829L175.896 253.205V255.572C172.923 253.781 169.47 252.917 165.729 252.789C159.943 252.597 154.604 254.452 149.585 257.203C142.935 260.882 137.5 265.872 133.024 271.79C133.631 267.919 134.239 264.081 134.623 260.178C135.102 255.284 135.55 250.39 136.029 245.528C136.541 240.346 137.116 235.132 137.66 229.95C138.235 224.512 138.715 219.074 139.034 213.604C138.843 213.06 139.034 212.484 139.002 211.94C139.034 211.685 138.875 211.461 138.651 211.333C138.363 211.205 138.011 211.301 137.82 211.557C137.5 212.004 137.276 212.516 137.18 213.092C134.431 225.759 131.681 238.426 129.827 251.286C128.452 260.946 126.662 270.51 124.84 280.075C124.232 283.369 123.369 286.6 122.218 289.767C121.579 291.622 121.003 293.542 120.268 295.365C119.692 296.772 119.533 296.772 118.222 296.037C115.696 294.661 113.426 292.902 111.22 291.11C105.785 286.696 100.031 282.602 94.0844 278.923C92.7097 278.059 91.303 277.292 89.8644 276.524C89.225 276.172 88.9372 275.884 89.2889 275.085C89.8963 273.805 90.248 272.398 90.8554 271.118C95.2353 261.842 97.697 251.957 99.839 242.009C101.47 234.364 102.972 226.687 104.123 218.946C104.571 216.067 104.89 213.188 105.21 210.277C106.585 210.597 107.927 210.917 109.334 211.205C112.755 211.876 116.24 212.356 119.692 212.644C120.012 212.676 120.3 212.74 120.588 212.868C121.451 213.316 122.474 213.06 123.017 212.26C141.624 203.56 131.362 186.894 131.362 186.894C123.401 187.374 115.44 186.158 107.991 183.311C108.087 181.552 108.055 179.761 108.119 178.001C108.119 177.649 108.023 177.234 108.375 176.978C108.407 176.562 108.343 176.21 107.896 176.082C107.512 175.986 107.128 176.21 107.032 176.594C106.841 177.106 106.681 177.649 106.585 178.193C106.329 179.601 106.041 181.008 105.785 182.416C98.4004 179.217 92.2302 174.643 87.1469 169.78C87.3387 167.541 87.5625 165.334 87.7863 163.095C88.8413 152.891 90.5038 142.783 92.7417 132.77C94.0524 126.949 96.0346 121.319 98.2405 115.785C98.3684 115.497 98.5283 115.241 98.6881 114.985C100.031 111.115 101.885 107.436 103.771 103.821C109.526 92.7856 116.591 82.7094 125.511 73.9447C137.052 62.621 150.416 54.4321 166.273 50.7855C182.418 46.9789 198.083 48.6743 213.269 55.3278C214.676 55.9355 216.146 56.4793 217.425 57.375C221.581 59.2303 225.354 61.7573 228.998 64.4443C242.33 74.2006 252.56 86.6759 260.553 101.038C268.929 116.073 274.3 132.131 277.177 149.084C277.721 152.411 277.945 155.77 277.913 159.128C277.881 170.196 277.753 181.264 277.753 192.332C277.753 200.361 277.689 208.39 277.945 216.419C278.36 229.662 280.502 242.649 284.978 255.156C287.504 262.225 291.18 268.591 297.382 273.165C297.542 273.325 297.67 273.485 297.798 273.677C297.063 274.413 296.168 274.989 295.177 275.308C293.93 275.756 292.779 275.5 291.724 274.637C289.454 272.781 287.823 270.478 286.449 267.951C283.348 262.353 280.63 256.532 278.328 250.582C277.913 249.526 277.497 248.503 277.081 247.479C275.835 244.472 274.78 241.433 274.939 238.107C274.971 237.531 274.907 236.923 274.172 236.827C273.565 236.731 273.341 237.243 273.117 237.691C272.542 238.81 272.286 240.058 272.414 241.305C272.606 242.969 272.797 244.632 273.277 246.263C275.771 254.42 278.488 262.449 282.197 270.158C283.156 272.238 284.371 274.253 285.745 276.076C282.388 279.307 279.607 283.082 276.026 286.088C273.021 288.615 269.76 290.791 266.244 292.55C262.599 294.405 258.635 294.693 254.606 294.597C253.967 294.629 253.392 294.245 253.2 293.669C248.532 284.105 243.928 274.509 240.763 264.337ZM257.164 301.123C259.913 301.091 262.663 300.803 265.348 300.227C263.718 301.187 262.247 302.402 261.032 303.81C260.297 304.673 259.658 304.769 258.635 304.449C257.036 303.938 255.438 303.426 253.903 302.786C252.145 302.05 250.418 301.219 248.756 300.291C251.505 300.803 254.319 301.091 257.164 301.123ZM253.807 331.575C256.716 331.095 259.37 329.752 261.512 327.737C264.293 325.242 266.659 322.331 268.481 319.068C268.673 318.748 268.897 318.46 269.089 318.14C269.824 316.093 270.815 314.174 271.455 312.095C272.126 309.759 272.542 307.36 272.606 304.961V304.385C272.542 303.746 272.478 303.042 271.678 303.01C271.007 302.946 270.751 303.49 270.591 304.066C270.464 304.481 270.336 304.897 270.272 305.313C270.176 306.113 269.728 306.305 268.993 306.273C266.819 306.113 264.613 305.825 262.471 305.377C266.116 302.978 269.441 300.899 273.693 301.411C276.154 301.698 277.657 303.33 278.584 305.537C279.479 307.744 279.799 310.143 279.511 312.51C278.488 322.619 273.948 330.807 265.988 337.109C264.837 338.005 263.59 338.868 262.087 339.156C260.968 339.892 259.658 340.084 258.347 340.116C256.109 340.244 253.999 339.156 252.784 337.269C252.337 336.597 251.985 335.862 251.729 335.094C250.706 332.119 250.738 332.055 253.807 331.575ZM304.831 312.159C304.64 315.645 304.352 319.1 304 322.555C303.872 323.994 304 324.058 302.338 324.218C301.155 324.346 300.004 324.57 298.853 324.858C297.67 325.178 297.542 325.529 298.118 326.585C299.045 328.216 300.1 329.752 301.283 331.191C302.21 332.247 302.594 333.718 302.274 335.094C299.62 349.264 295.049 362.731 286.992 374.823C284.243 379.045 280.95 382.884 277.241 386.306C274.268 388.993 271.007 389.409 267.331 387.522C267.362 387.234 267.586 387.138 267.81 387.01C275.835 381.7 281.717 374.471 286.449 366.282C291.084 358.317 294.281 349.808 295.688 340.66C296.04 338.325 296.327 335.958 296.2 333.59C296.168 332.887 296.263 331.767 295.464 331.703C294.505 331.639 294.665 332.823 294.601 333.462C293.93 339.028 292.907 344.498 291.052 349.808C287.216 360.876 281.557 370.856 273.213 379.173C270.783 381.572 268.066 383.683 265.157 385.443C264.293 385.987 263.622 385.987 262.823 385.347C261.768 384.483 260.553 383.811 259.69 382.724C255.789 379.269 253.168 374.951 251.345 370.153C248.756 363.371 247.989 356.462 250.035 349.36C250.706 347.089 251.729 344.946 253.104 343.027C253.424 342.547 253.711 342.131 254.447 342.419C257.899 343.827 261.256 343.187 264.549 341.811C264.773 341.715 265.029 341.651 265.252 341.587C269.377 339.22 272.765 335.989 275.771 332.343C278.488 328.44 280.63 324.154 282.133 319.644C282.42 318.172 282.708 316.733 282.964 315.261C283.667 310.911 283.411 306.721 281.206 302.786C281.142 302.594 281.11 302.402 281.078 302.21C285.522 301.347 289.965 301.219 294.441 301.443C295.4 301.475 295.816 301.89 296.072 302.818C297.542 308.224 298.15 313.662 297.51 319.228C297.382 320.283 297.318 321.307 297.255 322.363C297.255 322.427 297.318 322.459 297.414 322.619C298.31 322.491 298.469 321.723 298.693 321.051C299.365 318.972 299.908 316.861 300.004 314.686C300.132 310.591 300.292 306.465 298.917 302.306C300.739 302.466 302.242 303.106 303.808 303.618C304.384 303.81 304.448 304.321 304.48 304.833C304.672 307.296 304.959 309.727 304.831 312.159Z" fill="#2C2729" style="fill:#2C2729;fill:color(display-p3 0.1725 0.1529 0.1608);fill-opacity:1;"/>
</g>
<defs>
<filter id="filter0_d_474_230" x="364.241" y="94.748" width="496.633" height="135.596" filterUnits="userSpaceOnUse" color-interpolation-filters="sRGB">
<feFlood flood-opacity="0" result="BackgroundImageFix"/>
<feColorMatrix in="SourceAlpha" type="matrix" values="0 0 0 0 0 0 0 0 0 0 0 0 0 0 0 0 0 0 127 0" result="hardAlpha"/>
<feOffset dy="4.7776"/>
<feGaussianBlur stdDeviation="2.3888"/>
<feComposite in2="hardAlpha" operator="out"/>
<feColorMatrix type="matrix" values="0 0 0 0 0 0 0 0 0 0 0 0 0 0 0 0 0 0 0.08 0"/>
<feBlend mode="normal" in2="BackgroundImageFix" result="effect1_dropShadow_474_230"/>
<feBlend mode="normal" in="SourceGraphic" in2="effect1_dropShadow_474_230" result="shape"/>
</filter>
<filter id="filter1_d_474_230" x="367.682" y="219.601" width="571.111" height="136.612" filterUnits="userSpaceOnUse" color-interpolation-filters="sRGB">
<feFlood flood-opacity="0" result="BackgroundImageFix"/>
<feColorMatrix in="SourceAlpha" type="matrix" values="0 0 0 0 0 0 0 0 0 0 0 0 0 0 0 0 0 0 127 0" result="hardAlpha"/>
<feOffset dy="5.04952"/>
<feGaussianBlur stdDeviation="2.52476"/>
<feComposite in2="hardAlpha" operator="out"/>
<feColorMatrix type="matrix" values="0 0 0 0 0 0 0 0 0 0 0 0 0 0 0 0 0 0 0.08 0"/>
<feBlend mode="normal" in2="BackgroundImageFix" result="effect1_dropShadow_474_230"/>
<feBlend mode="normal" in="SourceGraphic" in2="effect1_dropShadow_474_230" result="shape"/>
</filter>
<radialGradient id="paint0_radial_474_230" cx="0" cy="0" r="1" gradientUnits="userSpaceOnUse" gradientTransform="translate(184.5 178.5) rotate(90) scale(178.5 184.5)">
<stop offset="0.435" stop-color="#FFFFAB" style="stop-color:#FFFFAB;stop-color:color(display-p3 1.0000 1.0000 0.6725);stop-opacity:1;"/>
<stop offset="1" stop-color="#FEFFE5" stop-opacity="0" style="stop-color:none;stop-opacity:0;"/>
</radialGradient>
<linearGradient id="paint1_linear_474_230" x1="541.277" y1="25.2314" x2="526.567" y2="221.235" gradientUnits="userSpaceOnUse">
<stop stop-color="#65C6E0" style="stop-color:#65C6E0;stop-color:color(display-p3 0.3961 0.7765 0.8784);stop-opacity:1;"/>
<stop offset="1" stop-color="#3CACC9" style="stop-color:#3CACC9;stop-color:color(display-p3 0.2371 0.6752 0.7870);stop-opacity:1;"/>
</linearGradient>
<linearGradient id="paint2_linear_474_230" x1="584.995" y1="210.213" x2="587.855" y2="328.133" gradientUnits="userSpaceOnUse">
<stop stop-color="#DC76D0" style="stop-color:#DC76D0;stop-color:color(display-p3 0.8627 0.4627 0.8157);stop-opacity:1;"/>
<stop offset="1" stop-color="#CB41BB" style="stop-color:#CB41BB;stop-color:color(display-p3 0.7974 0.2562 0.7337);stop-opacity:1;"/>
</linearGradient>
</defs>
</svg>
