<svg width="942" height="393" fill="none" xmlns="http://www.w3.org/2000/svg"><ellipse cx="184.5" cy="178.5" rx="184.5" ry="178.5" fill="url(#a)" fill-opacity=".2"/><g filter="url(#b)"><path d="M390.181 157.032h53.578v13.93h-53.578v-13.93zM385.895 194h-16.877l38.308-93.76h19.288L465.19 194h-16.877l-31.075-78.491L385.895 194zm87.913 0v-66.972h14.734v26.521h35.495v-26.521h14.734V194h-14.734v-26.789h-35.495V194h-14.734zm73.365-13.796h76.615v29.333h-14.734V194h-47.148v15.537h-14.733v-29.333zm3.214 0c4.197 0 7.412-1.34 9.644-4.018 2.322-2.679 3.483-6.117 3.483-10.314v-38.844h50.898V194h-14.734v-52.506h-21.431v26.253c0 5.983-2.5 11.207-7.5 15.671-4.912 4.376-11.252 6.564-19.02 6.564h-4.019v-9.778h2.679zm81.699-53.176h14.734v93.761h-14.734v-93.761zm21.03 17.815c-4.197 4.107-6.296 9.331-6.296 15.671s2.099 11.609 6.296 15.805c4.286 4.108 9.51 6.162 15.671 6.162s11.34-2.054 15.537-6.162c4.287-4.196 6.43-9.465 6.43-15.805s-2.143-11.564-6.43-15.671c-4.197-4.197-9.376-6.296-15.537-6.296-6.161 0-11.385 2.099-15.671 6.296zm-2.947 41.522c-6.072-6.876-9.108-15.493-9.108-25.851 0-10.358 3.036-18.931 9.108-25.717 6.072-6.876 13.573-10.314 22.502-10.314 9.287 0 17.056 3.438 23.306 10.314 6.34 6.876 9.51 15.448 9.51 25.717 0 10.269-3.17 18.842-9.51 25.717-6.25 6.876-14.019 10.314-23.306 10.314-8.929 0-16.43-3.393-22.502-10.18zm117.293-32.682c-.714-4.822-2.946-8.617-6.697-11.385-3.661-2.858-8.126-4.286-13.394-4.286-5.09 0-9.421 1.384-12.993 4.152-3.571 2.768-5.804 6.608-6.697 11.519h39.781zm-39.781 13.26c.893 4.912 3.17 8.796 6.831 11.654 3.661 2.768 8.082 4.152 13.261 4.152 3.929 0 7.501-.893 10.715-2.679 3.304-1.786 5.76-4.242 7.367-7.367l13.528 5.224c-2.857 5.625-7.143 10.135-12.858 13.528-5.626 3.304-11.832 4.956-18.618 4.956-10.091 0-18.574-3.393-25.45-10.18-6.875-6.875-10.313-15.537-10.313-25.985 0-10.269 3.348-18.796 10.046-25.583 6.697-6.876 14.957-10.314 24.779-10.314 9.912 0 18.306 3.394 25.181 10.18 6.876 6.787 10.314 15.27 10.314 25.449 0 1.965-.312 4.287-.937 6.965h-53.846zm96.537-49.827c-6.697 0-12.412-2.143-17.145-6.429-4.643-4.375-6.965-9.688-6.965-15.94h11.653c0 3.394 1.161 6.207 3.483 8.439 2.411 2.143 5.447 3.215 9.108 3.215 3.75 0 6.92-1.116 9.51-3.349 2.589-2.321 3.884-5.09 3.884-8.304h11.653c0 5.983-2.5 11.206-7.501 15.671-5 4.465-10.894 6.697-17.68 6.697zM856.096 194h-14.733v-48.488L808.948 194h-17.144v-66.972h14.733v47.148l32.415-47.148h17.144V194z" fill="url(#c)"/></g><g filter="url(#d)"><path d="M372.731 318v-98.399h15.463v41.609h4.498l38.235-41.609h20.242l-45.123 49.34L451.169 318h-20.242l-38.235-40.906h-4.498V318h-15.463zm154.715 0h-15.462v-50.886L477.966 318h-17.993v-70.285h15.462v49.481l34.018-49.481h17.993V318zm53.957-56.509h-25.865v15.181h26.99c2.436 0 4.451-.656 6.044-1.968 1.687-1.405 2.53-3.092 2.53-5.06 0-2.343-.937-4.264-2.811-5.763-1.78-1.594-4.076-2.39-6.888-2.39zm1.406 27.13h-27.271v15.603h27.271c2.718 0 5.013-.75 6.888-2.249 1.874-1.499 2.811-3.327 2.811-5.482 0-2.249-.937-4.124-2.811-5.623-1.781-1.499-4.077-2.249-6.888-2.249zM584.215 318h-44.139v-70.285h42.733c6.841 0 12.511 1.827 17.009 5.482 4.498 3.655 6.747 8.2 6.747 13.636 0 3.186-.843 6.044-2.53 8.574-1.593 2.531-3.842 4.499-6.747 5.904 3.28 1.687 5.857 4.077 7.731 7.169 1.968 2.999 2.952 6.373 2.952 10.121 0 5.529-2.249 10.168-6.748 13.917-4.498 3.655-10.167 5.482-17.008 5.482zm88.874-42.312c-.75-5.06-3.093-9.043-7.029-11.948-3.842-2.999-8.528-4.498-14.057-4.498-5.341 0-9.886 1.452-13.635 4.357-3.749 2.906-6.091 6.935-7.028 12.089h41.749zm-41.749 13.917c.937 5.154 3.326 9.231 7.169 12.229 3.842 2.906 8.481 4.358 13.916 4.358 4.123 0 7.872-.937 11.246-2.811 3.467-1.875 6.044-4.452 7.731-7.732l14.198 5.483c-2.999 5.904-7.498 10.636-13.495 14.197-5.904 3.468-12.417 5.201-19.539 5.201-10.59 0-19.493-3.561-26.709-10.683-7.216-7.216-10.824-16.306-10.824-27.271 0-10.777 3.515-19.726 10.543-26.849 7.029-7.215 15.697-10.823 26.006-10.823 10.402 0 19.211 3.561 26.427 10.683 7.216 7.122 10.824 16.025 10.824 26.708 0 2.062-.328 4.498-.984 7.31H631.34zm67.294-41.89h15.463v98.399h-15.463v-98.399zm22.07 18.696c-4.405 4.311-6.607 9.793-6.607 16.446 0 6.654 2.202 12.183 6.607 16.588 4.498 4.311 9.98 6.466 16.446 6.466 6.467 0 11.902-2.155 16.306-6.466 4.499-4.405 6.748-9.934 6.748-16.588 0-6.653-2.249-12.135-6.748-16.446-4.404-4.405-9.839-6.607-16.306-6.607-6.466 0-11.948 2.202-16.446 6.607zm-3.093 43.577c-6.372-7.216-9.559-16.26-9.559-27.131 0-10.87 3.187-19.867 9.559-26.989 6.373-7.216 14.245-10.824 23.616-10.824 9.746 0 17.899 3.608 24.459 10.824 6.654 7.216 9.98 16.212 9.98 26.989 0 10.778-3.326 19.774-9.98 26.99-6.56 7.216-14.713 10.824-24.459 10.824-9.371 0-17.243-3.561-23.616-10.683zM852.937 318h-15.463v-50.886L803.457 318h-17.993v-70.285h15.462v49.481l34.018-49.481h17.993V318zm12.629 0v-70.285h15.463v27.833h37.251v-27.833h15.463V318H918.28v-28.114h-37.251V318h-15.463z" fill="#fff" style="fill:#fff;fill-opacity:1"/><path d="M372.731 318v-98.399h15.463v41.609h4.498l38.235-41.609h20.242l-45.123 49.34L451.169 318h-20.242l-38.235-40.906h-4.498V318h-15.463zm154.715 0h-15.462v-50.886L477.966 318h-17.993v-70.285h15.462v49.481l34.018-49.481h17.993V318zm53.957-56.509h-25.865v15.181h26.99c2.436 0 4.451-.656 6.044-1.968 1.687-1.405 2.53-3.092 2.53-5.06 0-2.343-.937-4.264-2.811-5.763-1.78-1.594-4.076-2.39-6.888-2.39zm1.406 27.13h-27.271v15.603h27.271c2.718 0 5.013-.75 6.888-2.249 1.874-1.499 2.811-3.327 2.811-5.482 0-2.249-.937-4.124-2.811-5.623-1.781-1.499-4.077-2.249-6.888-2.249zM584.215 318h-44.139v-70.285h42.733c6.841 0 12.511 1.827 17.009 5.482 4.498 3.655 6.747 8.2 6.747 13.636 0 3.186-.843 6.044-2.53 8.574-1.593 2.531-3.842 4.499-6.747 5.904 3.28 1.687 5.857 4.077 7.731 7.169 1.968 2.999 2.952 6.373 2.952 10.121 0 5.529-2.249 10.168-6.748 13.917-4.498 3.655-10.167 5.482-17.008 5.482zm88.874-42.312c-.75-5.06-3.093-9.043-7.029-11.948-3.842-2.999-8.528-4.498-14.057-4.498-5.341 0-9.886 1.452-13.635 4.357-3.749 2.906-6.091 6.935-7.028 12.089h41.749zm-41.749 13.917c.937 5.154 3.326 9.231 7.169 12.229 3.842 2.906 8.481 4.358 13.916 4.358 4.123 0 7.872-.937 11.246-2.811 3.467-1.875 6.044-4.452 7.731-7.732l14.198 5.483c-2.999 5.904-7.498 10.636-13.495 14.197-5.904 3.468-12.417 5.201-19.539 5.201-10.59 0-19.493-3.561-26.709-10.683-7.216-7.216-10.824-16.306-10.824-27.271 0-10.777 3.515-19.726 10.543-26.849 7.029-7.215 15.697-10.823 26.006-10.823 10.402 0 19.211 3.561 26.427 10.683 7.216 7.122 10.824 16.025 10.824 26.708 0 2.062-.328 4.498-.984 7.31H631.34zm67.294-41.89h15.463v98.399h-15.463v-98.399zm22.07 18.696c-4.405 4.311-6.607 9.793-6.607 16.446 0 6.654 2.202 12.183 6.607 16.588 4.498 4.311 9.98 6.466 16.446 6.466 6.467 0 11.902-2.155 16.306-6.466 4.499-4.405 6.748-9.934 6.748-16.588 0-6.653-2.249-12.135-6.748-16.446-4.404-4.405-9.839-6.607-16.306-6.607-6.466 0-11.948 2.202-16.446 6.607zm-3.093 43.577c-6.372-7.216-9.559-16.26-9.559-27.131 0-10.87 3.187-19.867 9.559-26.989 6.373-7.216 14.245-10.824 23.616-10.824 9.746 0 17.899 3.608 24.459 10.824 6.654 7.216 9.98 16.212 9.98 26.989 0 10.778-3.326 19.774-9.98 26.99-6.56 7.216-14.713 10.824-24.459 10.824-9.371 0-17.243-3.561-23.616-10.683zM852.937 318h-15.463v-50.886L803.457 318h-17.993v-70.285h15.462v49.481l34.018-49.481h17.993V318zm12.629 0v-70.285h15.463v27.833h37.251v-27.833h15.463V318H918.28v-28.114h-37.251V318h-15.463z" fill="url(#e)"/></g><mask id="f" style="mask-type:luminance" maskUnits="userSpaceOnUse" x="15" y="43" width="293" height="350"><path d="M307.136 43H15v349.022h292.136V43z" fill="#fff" style="fill:#fff;fill-opacity:1"/></mask><g mask="url(#f)"><path d="M49.581 149.916c-1.694 0-3.389-.192-5.05-.575-1.312-.32-2.559-.832-3.678-1.568-1.182-.799-1.918-1.727-2.205-2.847a2.725 2.725 0 0 1-.128-.735 7.465 7.465 0 0 1 .927-3.807c.32-.576.863-.896 1.47-.896a29.361 29.361 0 0 1-10.678-5.534l-.032-.032c-.032-.032-.064-.032-.064-.064a.841.841 0 0 1-.191-.159l-.096-.096-.064-.064a.909.909 0 0 1-.32-.288 1.046 1.046 0 0 1-.352-.48 1.334 1.334 0 0 1 .16-1.248l.096-.128c.256-.319.608-.511 1.023-.511h.16a11.12 11.12 0 0 1-2.462-1.408c-2.653-1.855-4.923-4.318-6.905-7.517-1.567-2.559-2.494-4.99-2.782-7.421a9.57 9.57 0 0 1 .416-4.734v-.032a6.154 6.154 0 0 1 1.279-2.016 4.687 4.687 0 0 1 3.42-1.471c.288 0 .576.032.864.064 1.31.192 2.366.672 3.197 1.439 0-.064-.032-.128-.032-.192a33.132 33.132 0 0 0-3.389-7.133c-.383-.608-.735-1.183-1.119-1.76-.863-1.343-1.758-2.75-2.59-4.19a28.856 28.856 0 0 1-3.484-10.204c-.224-1.663-.48-3.358-.352-5.15a19.504 19.504 0 0 1 1.63-6.813c.224-.48.512-.928.832-1.344a3.695 3.695 0 0 1 3.005-1.535c.544 0 1.119.128 1.599.384a9.115 9.115 0 0 1 3.293 2.43 23.97 23.97 0 0 1 3.165 4.799c1.406 2.751 2.621 5.63 3.548 7.805.32.8.64 1.6.991 2.367.704 1.728 1.439 3.519 2.238 5.182v.032a43.892 43.892 0 0 0 2.174 4.223c.384.64.831 1.215 1.375 1.727.447.416.767.608 1.087.608a1.5 1.5 0 0 1 1.119.48 38.935 38.935 0 0 0-1.727-8.541c-.287-.864-.575-1.728-.863-2.56-.415-1.215-.863-2.462-1.215-3.742a35.21 35.21 0 0 1-1.406-10.172v-.8c0-1.151 0-2.335.128-3.518.127-1.504.48-2.975 1.118-4.383 0 0 0-.032.032-.032.992-2.047 2.59-2.495 3.773-2.495.416 0 .831.064 1.279.16a8.876 8.876 0 0 1 5.275 3.487 19.7 19.7 0 0 1 2.398 4.414c1.023 2.527 1.758 5.15 2.461 7.71l.096.383c.384 1.344.736 2.687 1.087 4.03.224.8.416 1.568.64 2.368l.511 1.823c.48 1.823.991 3.679 1.503 5.502a14.35 14.35 0 0 0 2.813 5.406l.128.128c.096.096.192.192.256.288l.032.032c.16.128.447.383.64.863.063.16.095.32.095.48.224-.096.448-.192.703-.224.416-.064.8-.096 1.215-.096 1.503 0 2.973.384 4.252 1.152 2.046 1.119 3.613 2.847 4.764 5.278a18.525 18.525 0 0 1 1.822 7.837c.128 5.566-1.439 10.908-4.732 15.834a22.153 22.153 0 0 1-6.362 6.429 19.326 19.326 0 0 1-3.516 1.824 10.881 10.881 0 0 0 2.653-.928 18.429 18.429 0 0 0 4.252-2.879l.064-.064c.032-.032.096-.096.16-.128.288-.256.64-.544 1.215-.544.607 0 .991.352 1.247.608l.032.032c.064.064.128.128.192.16a4.571 4.571 0 0 1 1.118 5.63s0 .032-.031.032a12.338 12.338 0 0 1-3.261 3.775c-2.302 1.791-4.892 3.134-7.673 4.03a33.449 33.449 0 0 1-8.376 1.631c-.672.16-1.28.192-1.887.192zm-13.427-17.529c.415.064.831.064 1.247.064.383 0 .799-.032 1.183-.064 2.174-.32 3.612-1.663 4.06-3.807.192-.959.128-2.015-.128-3.006a13.3 13.3 0 0 0-1.918-4.351 23.93 23.93 0 0 0-2.878-3.582 21.961 21.961 0 0 1 3.677 5.693c.64 1.376.96 2.943.927 4.479a4.47 4.47 0 0 1-.352 1.695c-.383.96-1.278 2.207-3.26 2.655a9.675 9.675 0 0 1-1.887.192c-.224.032-.447.032-.671.032zm-4.316-1.024c-.032 0-.064-.032-.096-.032h.032c.032 0 .032.032.064.032zm15.154-7.741c1.47 1.28 3.26 1.984 5.37 2.08h.48c1.79 0 3.549-.448 5.116-1.312.927-.48 1.758-1.056 2.557-1.663-.575.416-1.15.799-1.758 1.151a12.415 12.415 0 0 1-5.115 1.696c-.352.032-.704.064-1.056.064-2.11-.032-3.996-.704-5.594-2.016zm-2.27-2.815c0 .032 0 .064.032.096s.032.064.064.096c.16.288.352.544.511.8a2.763 2.763 0 0 1-.255-1.152c0-1.695.703-3.07 1.31-4.094a13.2 13.2 0 0 1 3.325-3.583c.096-.064.192-.16.288-.224l-.032.032a12.85 12.85 0 0 0-4.828 6.206c-.127.576-.287 1.184-.415 1.823z" fill="#F7F6F5" style="fill:color(display-p3 .9686 .9647 .9608);fill-opacity:1"/><path d="M116.686 369.929c-.32 0-.64-.128-.895-.352l-.448-.416c-.32-.32-.448-.8-.352-1.247.448-1.6.48-3.327.096-5.502-.032-.192-.064-.416-.096-.608-.255-1.535-.479-2.975-1.31-4.063-1.183-1.567-1.631-3.198-1.919-4.734-.991-5.278-3.197-10.428-6.969-16.186-8.472-12.891-19.534-22.807-32.801-29.492-5.595-2.815-10.806-4.351-16.018-4.735-.415-.032-.83-.032-1.278-.032-1.055 0-2.11.064-3.165.192h-.16c-.512 0-.96-.288-1.183-.767a1.292 1.292 0 0 1 .352-1.504c2.046-1.695 4.22-2.175 6.138-2.559.352-.064.735-.16 1.087-.256.096-.032.192-.032.288-.032.191 0 .383.032.575.128.703.352 1.47.544 2.27.544h.064c1.95.096 3.9.416 5.787 1.024a71.567 71.567 0 0 1 10.006 4.126c1.375.672 2.75 1.439 4.06 2.175a77.678 77.678 0 0 0 3.613 1.951 89.322 89.322 0 0 1 15.058 9.661c.096.096.192.192.256.288.191.288.511.512.895.799.192.128.383.256.575.416h.096c.32 0 .64.128.863.352 1.951 1.823 3.645 3.903 5.307 5.886l1.535 1.823a3.4 3.4 0 0 0 .288.352c.128-.064.287-.096.415-.128h.16c.48 0 .895.256 1.119.672a8.982 8.982 0 0 0 1.695 2.239 15.38 15.38 0 0 1 2.621 3.455c.224.416.224.927-.032 1.311a.863.863 0 0 1-.224.256c.192.32.416.64.608.992.192.32.415.639.607.991 3.549 5.662 5.691 11.196 6.586 16.826.352 2.207.384 4.446.096 6.685-.384 2.719-1.343 4.799-2.909 6.398-.32.32-.608.64-.927.992-.512.607-1.055 1.215-1.727 1.759-.128.192-.415.32-.703.32zm17.424-17.817c-.32 0-.64-.032-.928-.096h-.032c-1.438-.352-2.237-1.376-2.174-2.719.384-6.878-3.133-12.476-6.202-16.57-3.548-4.766-7.577-10.14-10.71-16.09-.351-.672-.767-1.311-1.183-2.015l-.575-.96c-.288-.448-.224-1.055.096-1.471.256-.32.607-.48.991-.48.128 0 .288.032.415.064 1.087.384 1.919 1.055 2.622 1.663.096.096.224.192.32.288 1.822 1.504 3.484 3.167 5.115 4.766.639.64 1.311 1.28 1.95 1.92a13.385 13.385 0 0 0 3.485 2.495c.192-.192.447-.32.703-.352h.192c.48 0 .927.288 1.151.736 1.311 2.75 3.293 4.958 5.403 7.325.288.32.575.639.831.959 1.918 2.176 4.22 5.15 5.147 8.989.256 1.024.416 2.111.48 3.167.16 3.774-1.95 6.845-5.563 8.093-.447.192-.991.288-1.534.288z" fill="#35A2BE" style="fill:color(display-p3 .2078 .6354 .7463);fill-opacity:1"/><path d="M124.839 358.573c-.095 0-.159 0-.255-.032a1.328 1.328 0 0 1-1.023-1.152c-.736-8.188-3.901-15.386-9.655-21.975-.384-.416-.416-1.024-.128-1.504-1.311-4.478-2.846-9.02-4.732-13.946-.192-.48-.383-.928-.607-1.44-.544-1.215-1.119-2.463-1.279-3.934a1.246 1.246 0 0 1 .703-1.28c.192-.096.384-.128.544-.128.319 0 .639.128.895.352 2.781 2.719 5.115 5.79 7.225 8.733 1.695 2.335 3.581 4.766 6.107 7.869.319.384.671.799.991 1.183 1.214 1.44 2.461 2.911 3.42 4.575 3.197 5.565 3.805 10.62 1.823 15.482a49.185 49.185 0 0 1-2.974 6.461c-.159.48-.607.736-1.055.736zm-33.76 10.108c-.288 0-.575-.096-.8-.288a1.226 1.226 0 0 1-.447-1.151c.512-4.191 3.261-5.502 5.627-6.206 3.453-.992 6.905-2.207 10.23-3.391 1.471-.512 3.006-1.055 4.508-1.567.703-.224 1.215-.416 1.695-.416 1.374 0 1.822 1.12 2.269 2.335.032.096.064.16.096.256l.192.48c0 .032.032.064.032.096.512 1.887.064 2.655-1.822 3.231-1.695.511-3.421 1.023-5.115 1.535-2.75.832-5.627 1.695-8.409 2.559-1.726.544-3.42 1.088-5.21 1.695-.8.256-1.6.544-2.43.8-.128.032-.288.032-.416.032z" fill="#35A2BE" style="fill:color(display-p3 .2078 .6354 .7463);fill-opacity:1"/><path d="M101.086 321.531c-.416 0-.8-.16-1.087-.48-.192-.224-.48-.416-.767-.639-.48-.32-.992-.704-1.44-1.28-4.507-3.551-9.366-6.685-14.482-9.276a97.859 97.859 0 0 1-3.644-1.984c-1.311-.735-2.686-1.503-4.028-2.175a66.183 66.183 0 0 0-9.624-3.966c-1.662-.512-3.356-.832-5.115-.896a7.369 7.369 0 0 1-3.389-.832 1.327 1.327 0 0 1-.703-1.247c.032-.512.384-.96.895-1.12a18.05 18.05 0 0 1 5.563-.864c2.43 0 4.987.448 7.8 1.408 6.779 2.271 13.428 5.886 20.334 11.132 2.717 2.047 5.85 4.542 8.6 7.517.959.672 1.758 1.535 2.461 2.495.352.48.32 1.12-.095 1.567-.352.416-.8.64-1.279.64z" fill="#55BCD7" style="fill:color(display-p3 .3333 .7373 .8431);fill-opacity:1"/><path d="M114.865 335.862a1.28 1.28 0 0 1-.895-.384l-.192-.192c-.128-.128-.224-.256-.352-.352-.063-.064-.127-.16-.191-.256-.576-1.056-1.343-2.015-2.206-2.879a11.253 11.253 0 0 1-2.142-2.879c-3.933-7.773-10.07-13.659-15.57-18.393a76.336 76.336 0 0 0-17.615-11.515c-.672-.064-1.12-.384-1.407-.608-.064-.064-.16-.128-.192-.128a1.253 1.253 0 0 1-.64-1.248c.065-.512.416-.927.896-1.087a4.21 4.21 0 0 1 1.343-.224c.575 0 1.087.128 1.566.384 6.138.959 12.117 3.102 18.255 6.525 4.54 2.527 8.728 5.662 12.405 9.373.096.128.223.224.319.32.48.447.991.959 1.343 1.663.064.128.096.288.128.416.128 1.087.575 2.111 1.055 3.167.224.479.448.991.639 1.535 1.887 4.99 3.453 9.596 4.764 14.107.128.415.416 1.439-.448 2.303a1.254 1.254 0 0 1-.863.352zm12.916-10.141c-.288 0-.607-.064-.927-.223a16.365 16.365 0 0 1-4.796-3.263c-.703-.672-1.406-1.376-2.11-2.079-1.534-1.536-3.133-3.103-4.827-4.511-.128-.096-.224-.192-.352-.288-.639-.543-1.183-.991-1.822-1.215a1.253 1.253 0 0 1-.512-.32c-.351-.352-.671-.704-1.023-1.056-.799-.831-1.598-1.695-2.461-2.463-.8-.703-1.247-1.759-1.151-2.815.096-1.855.479-3.678 1.087-5.438.575-1.663 1.854-2.623 3.612-2.623h.128a21.46 21.46 0 0 1 4.284.512c1.663.352 2.909 1.408 3.741 3.167a34.924 34.924 0 0 1 1.598 3.935c1.119 3.518 2.718 6.941 4.284 10.236.64 1.343 1.311 2.751 1.918 4.158.192.416.384.864.608 1.28l.256.543c.096.224.159.48.096.736-.192 1.631-1.311 1.727-1.631 1.727z" fill="#55BCD7" style="fill:color(display-p3 .3333 .7373 .8431);fill-opacity:1"/><path d="M271.71 389.953c-1.567 0-3.229-.448-4.924-1.279a1.29 1.29 0 0 1-.671-1.344c.128-.832.735-1.215.991-1.375l.064-.032c7.065-4.671 13.012-11.292 18.255-20.313 1.982-3.454 3.676-6.941 5.083-10.524-4.028 9.853-9.399 18.073-16.305 24.951-2.493 2.495-5.307 4.67-8.312 6.493-.639.384-1.215.576-1.822.576-.704 0-1.343-.256-1.982-.768-.288-.223-.576-.447-.896-.671-.831-.608-1.694-1.248-2.429-2.143a1.293 1.293 0 0 1-.16-1.312c.192-.416.607-.736 1.087-.768.224-.032.447-.192.863-.607.224-.224.448-.448.735-.672a42.721 42.721 0 0 0 9.495-9.852c4.189-6.11 6.458-13.084 7.929-18.489 1.982-7.23 2.43-14.811 2.877-22.168l.032-.512c.096-1.471-.032-2.911-.191-4.446-.128-1.344-.256-2.751-.224-4.191-.064-.096-.128-.192-.16-.288a1.167 1.167 0 0 1-.096-.799l.288-1.44c.192-.959.383-1.951.543-2.911.735-4.542.224-8.348-1.598-11.643l-.096-.192a4.484 4.484 0 0 1-.192-.896c-.064-.639.384-1.215 1.023-1.343 3.037-.608 6.298-.896 9.943-.896 1.183 0 2.429.032 3.74.096 1.471.064 2.398.832 2.814 2.335a50.79 50.79 0 0 1 1.438 7.229c-.064-2.367-.319-4.67-1.119-7.005a1.288 1.288 0 0 1 .224-1.215c.256-.32.607-.48.991-.48h.128c1.599.16 2.941.608 4.252 1.055.288.096.607.192.895.288 1.407.448 1.503 1.824 1.535 2.335.032.448.064.896.128 1.344.159 1.983.351 4.03.223 6.11a266.61 266.61 0 0 1-.831 10.46l-.032.319c-.16 1.92-.799 2.304-2.749 2.496a26.03 26.03 0 0 0-3.165.575 30.143 30.143 0 0 0 2.973 4.287 5.788 5.788 0 0 1 1.279 4.99c-2.973 15.898-8.025 29.013-15.474 40.177a62.207 62.207 0 0 1-9.942 11.707c-2.015 1.823-4.189 2.751-6.458 2.751z" fill="#35A2BE" style="fill:color(display-p3 .2078 .6354 .7463);fill-opacity:1"/><path d="M262.055 340.436c-.287 0-.543-.096-.767-.256-.288-.224-.48-.544-.48-.928-.095-1.215.544-2.079 1.024-2.687.223-.288.447-.575.703-.863.383-.48.735-.896.991-1.344 2.462-4.318 3.868-8.413 4.284-12.507.032-.192.032-.416.064-.608.096-.96.224-1.887 0-2.719-.064-.256-.032-.48.032-.736.32-.895.703-1.791 1.055-2.623.479-1.151.959-2.239 1.311-3.358.511-1.728.831-3.487.991-5.278-.384.703-1.087 1.119-2.046 1.119h-.32a52.53 52.53 0 0 1-6.682-.895c-.511-.096-.895-.512-.991-1.024a1.308 1.308 0 0 1 .544-1.312c3.037-2.015 6.458-4.254 10.646-4.254.479 0 .959.032 1.438.096 2.686.32 4.7 1.983 5.915 4.894a15.093 15.093 0 0 1 1.023 7.613c-1.055 10.364-5.755 18.937-14.003 25.431-1.279.991-2.686 1.983-4.476 2.303-.096-.064-.16-.064-.256-.064z" fill="#35A2BE" style="fill:color(display-p3 .2078 .6354 .7463);fill-opacity:1"/><path d="M259.753 384.035c-.32 0-.607-.128-.863-.319-3.773-3.327-6.618-7.614-8.696-13.084-2.909-7.613-3.357-14.682-1.343-21.591a22.19 22.19 0 0 1 3.261-6.718c.32-.448.863-1.247 1.95-1.247.288 0 .608.064.895.192a9.023 9.023 0 0 0 3.549.703c1.695 0 3.453-.416 5.563-1.311.224-.096.416-.16.607-.224.032 0 .032 0 .064-.032 3.517-2.047 6.81-4.958 10.007-8.861a49.344 49.344 0 0 0 6.17-12.315c.16-.48.608-.832 1.119-.864h.096c.48 0 .927.256 1.151.704 0 .032.032.064.064.096.16.224.384.608.384 1.12v.032c-.032 1.343.064 2.687.191 4.094.128 1.567.288 3.199.192 4.862l-.032.512c-.447 7.485-.895 15.226-2.973 22.711-1.535 5.598-3.868 12.827-8.312 19.257a45.18 45.18 0 0 1-10.071 10.428 5.214 5.214 0 0 0-.479.448c-.544.544-1.279 1.247-2.462 1.343.032.064 0 .064-.032.064z" fill="#55BCD7" style="fill:color(display-p3 .3333 .7373 .8431);fill-opacity:1"/><path d="M258.026 341.396a7.457 7.457 0 0 1-6.298-3.423c-.511-.768-.895-1.6-1.183-2.463-.607-1.728-.959-2.783-.383-3.743.575-.959 1.662-1.151 3.484-1.407 2.654-.448 5.084-1.632 7.034-3.487l.032-.032c2.685-2.399 4.955-5.182 6.713-8.349.128-.256.288-.48.448-.672.064-.096.128-.191.224-.319.224-.384.639-.576 1.087-.576.064 0 .128 0 .224.032.511.096.927.48 1.023.959.287 1.28.159 2.495.032 3.615-.032.192-.032.384-.064.576-.448 4.478-1.951 8.892-4.604 13.531-.352.639-.831 1.183-1.247 1.727a12.34 12.34 0 0 0-.607.768l-.032.032c-.352.48-.512.735-.48.959.032.448-.192.896-.575 1.152-1.503.992-3.229 1.152-4.38 1.152-.224-.032-.32-.032-.448-.032z" fill="#55BCD7" style="fill:color(display-p3 .3333 .7373 .8431);fill-opacity:1"/><path d="M255.661 295.845h-1.215a2.717 2.717 0 0 1-2.526-1.696c-4.284-8.828-9.143-18.873-12.468-29.461a33.629 33.629 0 0 1-.576-2.271s-.095-.416-.095-.448c0 .032 0 .064-.032.128a8.617 8.617 0 0 0 .064 2.719v.032a72.501 72.501 0 0 0 1.822 8.221c.032.064.032.16.064.224.128.416.319.992.16 1.664a1.299 1.299 0 0 1-.8.927 1.247 1.247 0 0 1-.447.096c-.256 0-.512-.096-.736-.224-.863-.608-1.086-1.471-1.278-2.111-.032-.16-.096-.32-.128-.448-2.558-6.653-4.06-12.315-4.732-17.849-.383-3.071-.767-6.238-.671-9.436.064-1.6.192-3.199.415-4.767v-.064a5.253 5.253 0 0 1 .8-1.951c.703-1.183 1.758-1.855 2.909-1.855 1.055 0 2.046.544 2.781 1.567 1.407 1.887 2.206 4.031 2.974 6.206l.703 2.015c1.63 4.67 3.325 9.5 5.339 14.107 3.836 8.764 7.929 15.194 12.884 20.248 2.398-2.239 5.083-4.03 7.705-5.758a92.532 92.532 0 0 0 3.676-2.527c.096-.064.224-.16.32-.224.256-.16.48-.32.671-.48.032-.032.064-.063.096-.063.032-.032.064-.064.032-.128 0-.032-.032-.064-.032-.096-1.247-4.575-2.11-9.277-2.909-13.819-.192-.992-.352-2.015-.543-3.007-.832-4.51-1.695-9.181-2.079-13.883-.159-1.759-.319-3.582-.479-5.31-.224-2.367-.48-4.83-.639-7.293-.16-2.399-.288-4.83-.416-7.197a397.34 397.34 0 0 0-.352-5.982c-.096-1.759-.128-3.519-.16-5.246-.032-1.759-.032-3.583-.159-5.374-.192-2.655-.288-5.342-.416-7.965-.096-2.335-.192-4.734-.352-7.069-.096-1.28-.16-2.623-.224-3.871-.127-2.495-.255-5.054-.543-7.549a460.906 460.906 0 0 0-1.631-12.475c-.863-6.302-2.301-12.476-3.58-17.69-1.311-5.405-3.037-10.779-4.668-15.77-4.444-13.466-8.408-24.374-12.5-34.355-2.494-6.11-5.371-12.539-9.367-18.265-1.983-2.847-4.156-5.63-6.267-8.349-1.214-1.567-2.493-3.198-3.708-4.83l-.224-.32c-1.279-1.727-2.621-3.518-4.06-5.15a9.821 9.821 0 0 1-1.982-3.518c-.16-.48 0-.992.351-1.344.224-.224.544-.32.864-.32.191 0 .351.032.511.128 4.572 2.048 8.536 4.798 11.829 7.198 12.852 9.404 23.306 21.527 31.906 36.978 8.153 14.586 13.779 30.9 16.753 48.429.543 3.391.799 6.846.735 10.268-.032 4.223-.032 8.477-.064 12.732-.032 6.717-.096 13.658-.096 20.472v2.751c0 6.973-.032 14.202.192 21.304.448 13.946 2.717 26.486 6.969 38.353 2.846 7.965 6.65 13.499 11.957 17.402a.848.848 0 0 1 .192.16c.192.191.352.415.512.671a1.27 1.27 0 0 1-.192 1.6 8.38 8.38 0 0 1-3.133 1.951 4.87 4.87 0 0 1-1.631.288c-1.087 0-2.11-.384-3.069-1.184-2.11-1.727-3.9-3.966-5.595-7.069-3.101-5.63-5.882-11.516-8.216-17.529-.384-1.024-.831-2.08-1.247-3.103-1.023-2.463-1.982-5.086-2.206-7.933a4.838 4.838 0 0 0-.032 1.183l.032.352c.192 1.536.352 2.975.768 4.319 2.237 7.261 5.019 15.77 8.855 23.703a32.673 32.673 0 0 0 3.453 5.757c.384.512.32 1.248-.128 1.696-1.407 1.343-2.717 2.815-3.996 4.222-1.79 1.983-3.645 4.063-5.755 5.854a50.735 50.735 0 0 1-10.006 6.621c-3.709 1.824-7.801 2.08-10.934 2.08zM83.63 275.244c-.192 0-.416-.032-.672-.064-1.982-.319-3.932-.383-5.435-.383-.863 0-1.758.032-2.59.032-.863 0-1.758.032-2.653.032-1.854 0-3.389-.064-4.763-.256a1.28 1.28 0 0 1-1.055-.864c-.256-.768 0-1.439.799-2.047.032-.032.096-.064.128-.096 2.973-3.359 4.763-7.389 6.618-11.932 4.188-10.332 6.937-20.184 8.376-30.132.799-5.598 1.279-11.228 1.726-16.986.32-4.286.352-8.669.384-12.891.032-2.719.032-5.534.128-8.317.383-11.004.99-20.088 1.886-28.565a264.993 264.993 0 0 1 4.955-30.452c1.151-5.118 2.878-10.428 5.563-17.178 0-.032.032-.064.032-.096.16-.32.32-.64.543-.928.256-.383.64-.575 1.056-.575.127 0 .255.032.383.064.544.16.927.671.895 1.247-.064 2.943-.32 5.886-.607 8.605 0 .128-.032.224-.032.352-.032.096-.032.224-.032.256v.032c-.064 1.631-.128 3.262-.192 4.83-.192 3.806-.383 7.773-.16 11.611.096 1.824.192 3.679.288 5.47.128 2.815.256 5.758.512 8.605.096 1.344.16 2.687.191 3.999l.096 2.175c.352 6.909.352 13.883.32 20.664 0 5.15 0 10.46.128 15.674.096 3.583.128 7.229.16 10.78.032 2.463.032 4.99.096 7.485v.512c.255.288.383.672.351 1.055-.287 2.336-.799 4.607-1.342 6.782-.192.736-.352 1.503-.512 2.239a1397.59 1397.59 0 0 0-1.15 5.214c-1.344 6.206-2.718 12.603-4.477 18.809-1.694 6.046-3.453 11.452-5.403 16.57-.127.32-.255.671-.383.991-.704 1.856-1.439 3.807-1.95 5.726-.352 1.632-1.407 1.951-2.206 1.951z" fill="#CDC5A8" style="fill:color(display-p3 .8039 .7725 .6588);fill-opacity:1"/><path d="M198.115 320.092c-2.845 0-5.659-.896-8.568-2.719-1.343-.768-2.174-2.207-2.142-3.743v-.032c.096-2.111-.352-4.126-.863-6.269-.128-.608-.288-1.248-.416-1.855-2.621-12.988-4.795-25.111-6.649-37.106-.416-2.719-.96-5.502-1.471-8.189-.288-1.44-.576-2.943-.831-4.415-.096-.575-.16-1.183-.224-1.727-.032-.32-.064-.608-.096-.928v-.064c-.096 0-.192.032-.32.032h-.128c-.351 0-.671-.128-.895-.383-.255-.256-.415-.64-.351-1.024.095-.96.735-1.376 1.055-1.599.032-.032.096-.064.127-.096.64-.512 1.503-1.12 2.558-1.12 1.343 0 2.27 1.056 2.813 1.855a32.031 32.031 0 0 1 3.677 7.038c2.717 7.005 4.987 14.266 7.129 21.304l.704 2.239c.607 1.983 1.279 4.03 1.918 5.981a227.54 227.54 0 0 1 1.598 4.991c.448 1.439 1.311 2.846 2.718 4.414.671.736 1.439 1.119 2.238 1.119.799 0 1.566-.383 2.238-1.119 1.822-2.015 3.612-4.095 5.339-6.11.447-.512.895-1.055 1.374-1.567 5.275-6.142 11.446-9.149 18.895-9.181h.703c3.613 0 7.193.48 10.678 1.472.16-.32.48-.544.863-.64.096-.032.192-.032.288-.032.512 0 .991.32 1.183.832 1.119 2.943 2.27 5.885 3.421 8.86.256.64.511 1.28.799 2.016l.384.895c.16.416.096.896-.16 1.248-.256.32-.64.512-1.023.512h-.128a18.16 18.16 0 0 0-1.886-.096c-2.334 0-4.604.383-6.842.767-.448.064-.895.16-1.311.224-6.65 1.088-11.509 3.391-15.345 7.261l-2.494 2.495c-2.11 2.08-4.316 4.223-6.202 6.558-2.782 3.423-5.787 5.694-9.144 7.005-1.79.544-3.516.896-5.211.896z" fill="#CDC5A8" style="fill:color(display-p3 .8039 .7725 .6588);fill-opacity:1"/><path d="M182.258 310.367c-.32 0-.64-.128-.864-.352-1.119-1.055-2.238-2.175-3.325-3.262-1.79-1.792-3.676-3.679-5.658-5.342a42.72 42.72 0 0 0-5.02-3.519c-3.197-2.047-6.649-3.007-10.614-3.007-1.374 0-2.813.128-4.284.352-4.252.672-8.472 2.047-12.532 3.391l-.895.288a42.513 42.513 0 0 1-9.335 1.919 6.214 6.214 0 0 1-.768.064 6.172 6.172 0 0 1-2.621-.608c-.544-.256-.799-.864-.672-1.439.128-.512.224-1.056.352-1.6.256-1.183.512-2.431.927-3.646 1.886-5.598 3.261-11.612 4.444-19.545.192-1.184.352-2.399.544-3.583.543-3.454 1.087-7.037 1.438-10.556.512-5.502.959-10.3 1.407-14.65.384-3.743.767-7.549 1.183-11.228.16-1.439.32-2.911.447-4.35.64-6.046 1.087-11.356 1.375-16.282.032-.352.192-.672.448-.896.223-.192.543-.32.831-.32h.096c2.014.16 2.813.576 3.357 2.655 1.119 4.351 2.493 10.077 3.101 16.026.16 1.664.447 3.327.703 4.958.224 1.504.48 3.039.672 4.575.255 2.143.415 4.286.575 6.365.096 1.152.16 2.303.288 3.455.128 1.344.255 2.687.383 3.999.224 2.431.48 4.958.64 7.485.128 1.983.288 3.934.415 5.917.32 4.031.8 8.829 1.887 13.595.127.512.223.832.287.96.192.064.64.128 1.087.192l.224.032c5.595.8 12.085 1.951 17.807 5.31 2.462 1.439 4.38 3.487 5.979 5.342-.096-.704-.192-1.408-.288-2.079-.16-1.056-.288-2.144-.415-3.199-.32-2.591-.448-5.182-.608-7.709-.096-1.76-.192-3.551-.352-5.31-.159-1.983-.159-3.967-.127-5.918 0-.96.032-1.983 0-2.943v-1.183c.032-1.056.032-2.048-.224-2.943-.448-1.632.415-2.463.831-2.751.224-.16.48-.224.735-.224.128 0 .256.032.384.064.384.128.671.416.831.799.448 1.248.512 2.496.576 3.679.032.48.064.928.096 1.376.319 3.07.639 6.205.927 9.212.191 2.047.383 4.095.607 6.142.608 6.141 1.567 12.603 2.782 19.192.191.96.351 1.952.543 2.911.352 2.016.735 4.127 1.215 6.142.096.416-.032.896-.32 1.184l-.415.415c-.448.32-.768.448-1.087.448zm-62.886-12.731c-.607 0-1.151-.288-1.758-.64-2.749-1.535-5.179-3.422-7.193-5.054a158.854 158.854 0 0 0-17.008-12.091 53.871 53.871 0 0 0-4.124-2.335c-.928-.48-1.919-1.44-1.151-3.071.255-.576.48-1.184.735-1.823.256-.704.511-1.44.863-2.176 4.412-9.34 6.874-19.384 8.888-28.821 1.918-8.988 3.261-16.282 4.284-22.999.639-4.286 1.119-8.669 1.566-12.923.16-1.663.352-3.327.544-4.958.319-2.815.607-5.694.895-8.477.256-2.367.479-4.83.767-7.261.192-1.696.224-3.391.256-5.182 0-.672.032-1.312.032-1.984v-.127c0-.384-.032-1.248.735-1.856.224-.192.512-.288.799-.288.096 0 .192 0 .288.032.384.096.704.352.863.704 2.142 4.51 3.517 9.564 4.348 15.898.48 3.615.927 7.869.608 12.123-.096 1.056-.16 2.176-.224 3.231-.16 2.559-.32 5.182-.767 7.805-.288 1.728-.448 3.519-.576 5.246-.096.992-.16 1.984-.287 3.007-.032.448-.096.864-.128 1.312-.192 1.887-.416 3.838-.736 5.757-.191.992-.255 2.016-.351 3.071-.064.64-.096 1.344-.192 2.016-.096.831-.192 1.631-.288 2.463a337.198 337.198 0 0 1-1.183 9.532 548.49 548.49 0 0 1-2.717 17.465 179.281 179.281 0 0 1-1.663 8.253c-.032.096-.032.128-.032.192.032.032.096.064.192.128 1.982 1.28 3.932 2.655 5.883 4.031a46.217 46.217 0 0 1 10.39 10.044c.032.064.096.128.128.192.064.096.192.256.256.32h.032c.383 0 .767.192 1.023.511.255.352.319.8.191 1.184-.191.544-.383 1.12-.575 1.695-.448 1.312-.895 2.655-1.439 3.967-.447.768-.927 1.887-2.174 1.887z" fill="#CDC5A8" style="fill:color(display-p3 .8039 .7725 .6588);fill-opacity:1"/><path d="M175.927 260.69c-.576 0-1.087-.384-1.215-.928-.64-2.303-.672-4.734-.032-7.037.16-.576.671-.96 1.247-.96h.159c.64.096 1.119.608 1.119 1.248 0 2.111.032 4.222.032 6.365 0 .64-.479 1.184-1.087 1.28-.096.032-.16.032-.223.032z" fill="#CDC5A8" style="fill:color(display-p3 .8039 .7725 .6588);fill-opacity:1"/><path d="M141.496 180.337c-5.019 0-9.559-3.551-12.82-9.981-3.101-6.173-4.827-14.586-4.827-23.703 0-7.165 1.055-13.946 3.101-19.608 2.174-6.142 5.371-10.524 9.175-12.635a10.89 10.89 0 0 1 5.371-1.44c5.019 0 9.559 3.551 12.82 9.98 3.101 6.174 4.828 14.587 4.828 23.735 0 7.901-1.343 15.483-3.773 21.4-2.781 6.782-6.937 11.036-11.669 12.06-.735.128-1.471.192-2.206.192zm-8.408-22.2c.575 2.655 1.343 5.118 2.302 7.261 1.247 2.783 2.717 4.767 4.156 5.758-.639-1.599-1.535-3.103-2.462-4.734l-.064-.096c-.607-1.024-1.247-2.111-1.822-3.231a67.78 67.78 0 0 1-2.11-4.958z" fill="#2C2729" style="fill:color(display-p3 .1725 .1529 .1608);fill-opacity:1"/><path d="M175.896 180.337c-5.02 0-9.56-3.551-12.82-9.981-3.102-6.173-4.828-14.586-4.828-23.703 0-7.165 1.055-13.946 3.101-19.608 2.206-6.142 5.371-10.524 9.176-12.635a10.885 10.885 0 0 1 5.371-1.44c5.019 0 9.559 3.551 12.82 9.98 3.101 6.174 4.827 14.587 4.795 23.735 0 7.901-1.343 15.515-3.772 21.4-2.782 6.782-6.938 11.036-11.669 12.06-.704.128-1.439.192-2.174.192zm-8.409-22.232c.576 2.687 1.343 5.15 2.302 7.293 1.247 2.783 2.718 4.767 4.188 5.758-.639-1.631-1.534-3.167-2.493-4.766a91.174 91.174 0 0 1-1.855-3.295c-.767-1.631-1.502-3.295-2.142-4.99z" fill="#2C2729" style="fill:color(display-p3 .1725 .1529 .1608);fill-opacity:1"/><path d="M201.442 299.864c-1.502 0-2.973-.703-4.124-1.951-1.662-1.823-2.685-3.519-3.261-5.374-.511-1.599-1.023-3.167-1.534-4.766a347.116 347.116 0 0 1-1.982-6.238l-.704-2.271c-2.142-6.973-4.38-14.203-7.097-21.144a29.583 29.583 0 0 0-3.389-6.461c-.48-.704-.703-.768-.703-.768-.032 0-.256 0-.928.576-.095.096-.191.16-.319.223l-.512 1.344a10.858 10.858 0 0 0 .032 5.63c.032.064.032.16.032.224l.064.735c.032.384-.128.8-.415 1.056 0 .032 0 .064.032.096.351 1.28.319 2.495.319 3.679v4.094c-.032 1.855-.032 3.807.128 5.662.16 1.727.256 3.487.352 5.182.128 2.559.287 5.182.607 7.741.128 1.12.288 2.271.448 3.391.192 1.375.383 2.783.543 4.158 0 .096.032.16.064.256.096.48.256 1.28-.224 2.207-.191.384-.575.64-.991.672h-.128c-.383 0-.735-.16-.991-.448-.351-.416-.671-.8-.991-1.183-.351-.416-.671-.832-1.023-1.248-1.662-1.951-3.484-3.998-5.818-5.374-5.339-3.135-11.51-4.222-16.881-4.99l-.191-.032c-2.302-.32-2.942-.672-3.517-3.135-1.151-4.99-1.662-10.076-1.95-13.978-.16-1.984-.288-3.967-.448-5.95-.16-2.271-.383-4.574-.607-6.814a191.82 191.82 0 0 1-.416-4.638l-.288-3.487c-.159-2.079-.319-4.19-.543-6.269-.16-1.472-.416-2.943-.639-4.383a87.662 87.662 0 0 1-.736-5.182c-.575-5.789-1.918-11.387-3.037-15.642-.096-.384-.16-.543-.192-.639-.128-.032-.415-.064-.863-.096a1.368 1.368 0 0 1-.767-.32c-2.558 12.059-5.243 24.534-7.034 36.946-1.438 10.108-3.325 20.184-4.987 28.853a58.7 58.7 0 0 1-2.685 9.884c-.192.48-.64.832-1.151.832h-.096c-1.279 0-1.919-.864-2.302-1.408l-.096-.16a42.74 42.74 0 0 0-9.847-9.5c-1.918-1.375-3.836-2.719-5.786-3.967-.736-.479-1.631-1.311-1.247-3.038a173.712 173.712 0 0 0 1.63-8.125c.991-5.726 1.886-11.58 2.718-17.37.447-3.135.799-6.333 1.183-9.436l.287-2.495c.064-.64.128-1.248.192-1.919.096-1.088.192-2.208.384-3.327.319-1.824.511-3.743.703-5.598.032-.448.096-.864.128-1.312.096-.959.192-1.951.256-2.91.16-1.792.319-3.647.607-5.47.416-2.527.576-5.15.735-7.678.064-1.023.128-2.079.192-3.134.32-4.031-.128-8.093-.575-11.612-.736-5.534-1.854-9.98-3.549-13.915-1.982 10.268-4.22 22.392-6.01 34.963-.128.864-.32 1.695-.48 2.495-.064.352-.16.704-.224 1.056-.096.448-.383.799-.799.927-.16.064-.288.064-.447.064-.288 0-.544-.096-.8-.256-.927-.703-.863-1.727-.863-2.207V215l-.096-7.485c-.032-3.518-.064-7.165-.16-10.716-.16-5.246-.16-10.588-.128-15.77 0-6.749 0-13.691-.32-20.536l-.095-2.207a78.467 78.467 0 0 0-.192-3.871 275.26 275.26 0 0 1-.512-8.7c-.095-1.792-.16-3.615-.287-5.438-.224-3.967-.032-7.997.16-11.868.064-1.567.16-3.199.192-4.798 0-.224.031-.416.063-.608 0-.064.032-.16.032-.224.288-2.847.512-5.63.576-8.413 0-.127.032-.255.064-.383 1.374-3.967 3.293-7.773 5.147-11.356 6.17-11.868 13.363-21.752 21.963-30.197 12.469-12.283 25.992-19.96 41.37-23.479A75.421 75.421 0 0 1 182.676 47c10.326 0 20.717 2.24 30.787 6.654.256.095.512.223.767.32 1.215.511 2.462 1.055 3.613 1.855.224.16.416.383.48.671.319.96.799 1.856 1.47 2.591 1.503 1.696 2.877 3.551 4.22 5.31l.224.32c1.215 1.6 2.462 3.231 3.677 4.798 2.11 2.72 4.284 5.566 6.33 8.445 4.124 5.886 7.065 12.508 9.655 18.777 4.028 9.852 8.024 20.824 12.564 34.547 1.662 5.054 3.389 10.492 4.731 15.962 1.279 5.278 2.75 11.548 3.613 17.945.608 4.415 1.151 8.413 1.631 12.54.287 2.591.415 5.182.543 7.709.064 1.247.128 2.559.224 3.838.16 2.431.256 4.926.384 7.293.095 2.527.223 5.15.383 7.709.128 1.824.16 3.679.16 5.47.032 1.696.032 3.455.16 5.15.128 2.016.224 4.031.352 6.014.127 2.335.255 4.766.415 7.165.16 2.4.416 4.831.64 7.198.159 1.759.351 3.582.511 5.374.384 4.542 1.215 9.148 2.014 13.563v.064c.192.959.352 1.951.512 2.91.799 4.511 1.63 9.181 2.845 13.659.384 1.088.032 2.335-.895 3.039-.256.224-.544.384-.799.576a1.759 1.759 0 0 0-.288.224 126.258 126.258 0 0 1-3.677 2.495c-2.621 1.727-5.307 3.518-7.609 5.694-.319.32-.863.735-1.598.735-.799 0-1.343-.479-1.726-.831-5.244-5.342-9.56-12.06-13.492-21.144-2.142-4.894-3.932-10.012-5.659-14.971l-.447-1.343c-.703-1.983-1.407-3.935-2.59-5.534-.255-.32-.511-.544-.735-.544-.224 0-.512.256-.735.64 0 .032-.032.032-.032.064-.224.32-.352.672-.448 1.056a52.042 52.042 0 0 0-.384 4.446c-.095 3.007.288 6.078.672 9.052.639 5.31 2.11 10.812 4.604 17.274.095.256.159.48.223.672.128.415.192.639.288.703.224.16.384.384.48.64.767 2.367 1.502 4.702 2.269 7.069a.947.947 0 0 1 .064.32c.032.256.064 1.056-.479 1.664-.224.256-.64.543-1.311.543-.352 0-.703-.095-.991-.159a37.43 37.43 0 0 0-10.326-1.44h-.672c-6.681.032-12.212 2.751-16.976 8.285l-.415.608c-2.047 2.367-4.157 4.83-6.299 7.229-1.15 1.248-2.621 1.951-4.156 1.951z" fill="#FEF8E4" style="fill:color(display-p3 .9961 .9725 .8941);fill-opacity:1"/><path d="M236.031 234.876a5.045 5.045 0 0 1-2.174-.512 7.586 7.586 0 0 1-3.197-3.071c0-.032-.032-.064-.032-.096-.384-.831-.256-1.791.383-2.431.064-.064.128-.128.224-.192.32-.224.639-.48.959-.735.48-.384.991-.768 1.567-1.12.032-.032.032-.064.064-.096.096-.128.159-.288.287-.448-.607.576-1.342 1.088-2.206 1.536-.735.415-1.534.735-2.365.991h-.032c-1.887.448-3.613.864-5.467.896h-1.279c-4.092 0-8.184-.48-12.181-1.472a43.916 43.916 0 0 1-18.574-9.372 6.042 6.042 0 0 1-.64-.64 4.015 4.015 0 0 1-1.023-1.919 17.088 17.088 0 0 1-.192-5.694c.256-2.175 1.055-4.318 2.238-6.174.256-.383.544-.735.864-1.087l.032-.032c.223-.192.447-.384.703-.576a2.165 2.165 0 0 1 1.311-.448c.895 0 1.662.544 1.918 1.312.096.32.224.672.32.991.191.64.383 1.248.607 1.792.32.799.767 1.503 1.375 2.079.16.16.319.288.479.384a8.232 8.232 0 0 1-2.046-3.903c-.639-3.007-.639-6.173.096-9.18.32-1.44.767-3.135 1.79-4.638.032-.032.032-.064.064-.096.224-.256.512-.48.832-.576.191-.064.415-.128.607-.128.671 0 1.279.384 1.567.959.159.288.287.576.415.832.224.48.448.928.735 1.28.32.416.736.735 1.183.959a.602.602 0 0 0 .32-.128l.032-.032c.064-.064.096-.192.032-.288-.096-.223-.256-.447-.384-.639-1.215-1.216-1.566-2.719-1.822-4.031a4.952 4.952 0 0 1-.064-1.535c.128-.96.352-1.887.671-2.783v-.032a4.868 4.868 0 0 1 3.261-3.007 19.063 19.063 0 0 1 2.334-.544 11.51 11.51 0 0 1 2.11-.192c.704 0 1.439.064 2.11.192 1.919.352 3.837.896 5.659 1.632h.032c1.215.543 2.462.991 3.74 1.343h.032c1.663.448 3.229.864 4.828.992-.16-.128-.32-.256-.416-.448-.032-.032-.032-.064-.064-.096-.351-.64-.351-1.408.064-2.015a10.794 10.794 0 0 1 3.293-3.295c.991-.64 2.078-1.088 3.229-1.28.256-.032.48-.064.736-.064.319 0 .607.032.895.096 1.406.288 2.653 1.088 3.548 2.208.512.639.991 1.343 1.375 2.079a18.531 18.531 0 0 1 1.95 6.173 62.58 62.58 0 0 1 .416 3.807 20.87 20.87 0 0 1 0 3.999l-.096 1.087c-.064.512-.096.992-.128 1.504-.224 2.974-.863 5.885-1.502 8.38.383-1.055.767-2.175 1.087-3.422.191-.64.351-1.28.511-1.92l.288-1.055c-.032-.224-.032-.416-.064-.64v-.096c.064-1.152.32-2.271.735-3.327a2.453 2.453 0 0 1 1.695-1.471c.383-.096.767-.16 1.15-.16.864 0 1.695.256 2.398.736.799.511 1.439 1.183 1.95 1.983a7.905 7.905 0 0 1 1.215 2.815c.448 1.791.64 3.646.64 5.502a36.855 36.855 0 0 1-.704 6.237 38.374 38.374 0 0 1-2.142 7.07 38.29 38.29 0 0 1-5.371 9.436 21.327 21.327 0 0 1-4.028 3.935c-1.055.767-2.206 1.343-3.453 1.663-.415.192-.863.256-1.31.256z" fill="#F7F6F5" style="fill:color(display-p3 .9686 .9647 .9608);fill-opacity:1"/><path d="M141.494 178.385c-4.411 0-8.472-3.39-11.381-9.564-2.781-5.854-4.284-13.723-4.284-22.168 0-6.973 1.023-13.531 2.973-18.968 2.046-5.694 4.892-9.725 8.281-11.58a8.843 8.843 0 0 1 4.411-1.184c4.444 0 8.473 3.391 11.382 9.565 2.781 5.854 4.284 13.723 4.284 22.167 0 7.645-1.279 14.971-3.645 20.665-2.525 6.141-6.17 10.012-10.262 10.875a8.008 8.008 0 0 1-1.759.192zm-9.335-47.342c-1.375 4.511-2.174 9.949-2.174 15.578 0 14.715 5.275 27.126 11.509 27.126.288 0 .608-.032.896-.096h.032c-.224-.928-.48-1.855-.832-2.719-.735-1.919-1.726-3.678-2.813-5.534a75.079 75.079 0 0 1-1.79-3.199c-3.197-6.365-4.956-13.498-5.02-20.632-.064-3.806-.096-7.229.192-10.524zm43.767 47.342c-4.412 0-8.472-3.39-11.381-9.564-2.781-5.854-4.284-13.723-4.284-22.168 0-6.941 1.023-13.499 2.973-18.968 2.014-5.694 4.892-9.725 8.248-11.58a8.85 8.85 0 0 1 4.412-1.184c8.952 0 15.698 13.659 15.698 31.732 0 7.645-1.279 14.971-3.645 20.665-2.526 6.141-6.17 10.012-10.262 10.875a8.226 8.226 0 0 1-1.759.192zm-9.367-47.342c-1.375 4.511-2.174 9.949-2.174 15.61 0 14.715 5.275 27.126 11.509 27.126.32 0 .608-.032.927-.096-.223-.928-.479-1.855-.831-2.719-.735-1.919-1.758-3.678-2.813-5.534a73.997 73.997 0 0 1-1.79-3.199c-3.197-6.365-4.956-13.498-5.02-20.632-.064-3.838-.096-7.261.192-10.556zm69.407 107.735c-.16 0-.32-.032-.479-.095-.384-.16-.8-.256-1.215-.32-.128-.032-.256-.064-.352-.096l-2.398-1.088c-.128-.064-.255-.16-.383-.256-.16-.16-.352-.32-.544-.448-.096-.064-.192-.16-.256-.224a14.366 14.366 0 0 1-2.237-3.902 34.61 34.61 0 0 1-7.258.864h-.032c-.064 0-.128 0-.223-.032a6.234 6.234 0 0 0-.8-.064h-.319c-.256 0-.576 0-.896-.096-.223-.064-.511-.096-.799-.128l-3.101-.416h-.064a66.162 66.162 0 0 1-4.156-.992 1.957 1.957 0 0 1-.384-.16.589.589 0 0 0-.223-.064h-.064c-.128 0-.256 0-.352-.032l-1.183-.32a1.164 1.164 0 0 1-.543-.319.244.244 0 0 0-.16-.064h-.064c-.096.032-.192.032-.288.032-.16 0-.32-.032-.479-.096-1.279-.544-2.558-1.056-3.837-1.6a55.857 55.857 0 0 1-11.477-6.365 38.273 38.273 0 0 1-2.75-2.24c-.735-.703-1.278-1.567-1.534-2.527a23.029 23.029 0 0 1-.799-8.732 16.55 16.55 0 0 1 1.854-6.238c.224-.384.447-.768.735-1.151.959-1.312 2.558-3.071 5.243-3.391l.192-1.44c.096-.639.192-1.279.288-1.951.32-2.047.991-3.966 1.982-5.758.735-1.407 1.79-2.655 3.101-3.55a.988.988 0 0 0 .352-.512c0-.032.128-.352.16-.512.159-.48.319-.96.543-1.471.863-2.048 2.59-3.711 4.668-4.511a11.25 11.25 0 0 1 2.877-.767c1.055-.16 2.11-.224 3.197-.224.544 0 1.055.032 1.599.064h.032c2.142.224 4.22.767 6.202 1.599l4.539 1.983c1.471-2.207 3.453-3.71 5.212-4.926a10.261 10.261 0 0 1 5.658-1.823h.256c1.535 0 3.037.416 4.348 1.183a12.087 12.087 0 0 1 3.677 3.519c1.278 1.951 2.142 4.095 2.621 6.366.416 1.951.703 3.966.831 5.949.384.032.736.064 1.119.064h.032c2.11.096 4.06.992 5.563 2.463a9.22 9.22 0 0 1 1.631 2.048c.223.384.415.767.639 1.151.16.288.288.544.448.832h.032c.191-.064.383-.096.575-.16 2.078-.48 3.389-1.855 4.156-4.254 0-.032.032-.064.032-.128.032-.064.032-.16.064-.224.16-.544.192-1.056.064-1.568-.384-1.759-.512-3.518-.384-5.278.096-2.015.544-3.998 1.311-5.917a24.258 24.258 0 0 1 3.517-6.206c.224-.256.447-.512.639-.736.224-.256.448-.48.608-.736.096-.127.223-.255.351-.351.544-.352.991-.8 1.375-1.28a.386.386 0 0 1 .16-.16 16.84 16.84 0 0 1 2.398-1.823 13.952 13.952 0 0 1 5.339-2.175l.128-.032c.095-.032.191-.032.287-.032h.096c.512.032.991.096 1.439.16.032 0 .064 0 .096.032.735.16 1.438.319 2.174.479l1.726.384c.032 0 .064.032.096.032.511.16 1.023.32 1.567.48a.764.764 0 0 1 .351.192c.064.064.16.096.224.128l.288.192c4.923 3.263 8.6 7.933 10.646 13.467a30.157 30.157 0 0 1 1.79 7.677c.448 4.19.096 8.413-1.023 12.475-1.439 5.31-3.836 10.236-7.193 14.619-3.933 5.214-8.792 9.532-14.451 12.795a39.815 39.815 0 0 1-5.211 2.623 50.25 50.25 0 0 1-1.726.704.682.682 0 0 0-.256.159 1.495 1.495 0 0 1-.32.16 4.262 4.262 0 0 0-.575.224l-.064.032c-.096.032-.224.064-.32.096l-.32.032c-.767.32-1.534.64-2.237.96-.064.032-.128.064-.224.064-.64.16-1.311.32-1.95.512h-.032a1.606 1.606 0 0 1-.384.064c-.096 0-.224 0-.32-.032a10.95 10.95 0 0 0-1.79.224c-1.79.383-3.645.607-5.467.607h-.863c-.352 0-.703 0-1.087-.032-.863 0-1.758-.032-2.622-.032l-.959.096h-.192c-.095 0-.191 0-.287-.032-.384-.096-.8-.128-1.215-.192-.672-.096-1.343-.192-2.046-.383-.544.287-1.087.607-1.791 1.055-.927.576-1.886.896-2.813 1.184-.192.064-.416.128-.607.192-.032 0-.064 0-.064.032a7.515 7.515 0 0 1-1.695.288c-.351.031-.671.063-.959.063.032.064 0 .064-.032.064zm-2.877-8.412c.479.735 1.151 1.311 1.95 1.727.32.16.671.256 1.023.256.192 0 .416-.032.608-.096a8.152 8.152 0 0 0 2.653-1.28 19.785 19.785 0 0 0 3.517-3.422 36.006 36.006 0 0 0 5.019-8.829 40.458 40.458 0 0 0 2.014-6.621c.384-1.888.608-3.839.64-5.758a18.12 18.12 0 0 0-.576-4.894 5.664 5.664 0 0 0-.863-2.016 4.122 4.122 0 0 0-1.215-1.247c-.32-.192-.639-.32-.991-.32-.16 0-.32.032-.48.064-.287.768-.479 1.599-.511 2.399 0 .16.032.32.064.48.032.192.032.384-.032.576-.128.447-.224.863-.352 1.311-.16.64-.351 1.28-.511 1.919-1.087 3.935-2.398 6.974-4.156 9.533 0 .032-.032.032-.032.064-.16.224-.352.448-.544.672-.256.255-.575.415-.927.415h-.128c-1.343-.128-1.854-1.279-2.014-1.631a1.239 1.239 0 0 1-.032-.896l.32-.959c.511-1.536 1.023-3.135 1.406-4.735.64-2.463 1.311-5.373 1.535-8.284.032-.544.096-1.056.16-1.568l.096-1.055a21.928 21.928 0 0 0 0-3.551c-.096-1.12-.256-2.431-.416-3.711a16.336 16.336 0 0 0-1.662-5.31 11.77 11.77 0 0 0-1.119-1.663 3.778 3.778 0 0 0-2.11-1.311h-.032c-.096-.032-.224-.032-.32-.032s-.16 0-.256.032c-.831.159-1.598.479-2.334.927-.191.128-.383.256-.575.416.448.032.863.224 1.151.544.511.544.671 1.375.352 2.079-.352.8-.96 1.919-2.238 2.591-.032.032-.064.064-.064.096-.224.32-.576.544-.991.576-.256.032-.544.032-.8.032-2.301 0-4.443-.576-6.553-1.12l-.064-.032a33.99 33.99 0 0 1-4.061-1.471c-1.662-.672-3.388-1.184-5.147-1.472a10.061 10.061 0 0 0-1.662-.16c-.544 0-1.087.064-1.631.16-.703.128-1.406.288-2.11.48-.703.192-1.279.736-1.566 1.44a11.763 11.763 0 0 0-.544 2.335c-.032.224-.032.448.032.671v.064c.192 1.184.448 2.048 1.119 2.687l.064.064c.32.384.608.8.799 1.248.512 1.055.288 2.303-.511 3.167a3.2 3.2 0 0 1-2.238.959c-.32 0-.64-.064-.895-.192a5.808 5.808 0 0 1-2.27-1.759c-.32-.384-.544-.832-.767-1.215-.352.831-.576 1.727-.768 2.591a18.07 18.07 0 0 0-.064 8.06 5.85 5.85 0 0 0 1.407 2.719l.032.032c.128.16.256.288.416.416.831.704 1.246 1.792 1.023 2.879a1.299 1.299 0 0 1-1.023 1.024c-.064 0-.128.032-.224.064-.416.128-.863.224-1.279.224-1.087 0-2.078-.448-3.069-1.376-.863-.863-1.535-1.855-1.95-2.975a28.843 28.843 0 0 1-.672-1.983c-.032-.064-.032-.128-.064-.192-.191.192-.351.416-.511.64a11.46 11.46 0 0 0-1.822 5.086 15.514 15.514 0 0 0 .191 4.862c.064.224.192.48.352.64l.032.032c.128.16.288.288.416.416a41.602 41.602 0 0 0 17.487 8.828 48.75 48.75 0 0 0 11.573 1.408h1.215c1.695-.064 3.389-.48 4.924-.832a7.825 7.825 0 0 0 1.79-.736s.032 0 .032-.032c1.407-.735 2.334-1.631 2.909-2.814.096-.224.224-.416.32-.576.096-.16.16-.288.224-.416.383-.864 1.151-1.344 2.078-1.344.32 0 .607.064.895.096.607.096 1.023.608 1.055 1.216v.32c0 .288.032.544.032.832 0 .767-.16 1.567-.48 2.271-.319.767-.703 1.503-1.214 2.175 0 .032-.032.032-.032.064-.16.192-.32.448-.48.704-.096.127-.16.255-.256.383-.128.192-.287.32-.479.416-.512.288-.991.672-1.535 1.056-.256.128-.479.288-.703.448z" fill="#2C2729" style="fill:color(display-p3 .1725 .1529 .1608);fill-opacity:1"/><path d="M306.366 305.089c-.256-1.631-.991-2.879-2.622-3.582-3.516-1.568-7.257-2.559-11.125-2.879-4.188-.32-8.312-.096-12.373.959-.959.256-1.758.256-2.653-.288-1.982-1.183-4.348-1.599-6.618-1.183.16-.096.32-.16.48-.256 1.438-.832 2.813-1.823 4.284-2.655a29.756 29.756 0 0 0 7.129-5.662c2.078-2.239 4.06-4.542 5.627-7.165 1.247-2.047 2.781-3.359 5.531-3.263 3.356.128 6.266-1.375 8.472-3.998 1.31-1.568 1.151-2.655-.672-3.519-2.11-.992-3.58-2.559-4.795-4.478a43.042 43.042 0 0 1-3.965-8.413c-2.174-6.174-3.516-12.571-4.571-19.001-1.215-7.357-2.334-14.746-2.622-22.2-.16-4.862-.383-9.692-.575-14.554-.192-4.542-.64-9.085-.512-13.595.192-7.101.48-14.171.608-21.272.096-4.958-.096-9.948-.544-14.874-.288-3.135-.895-6.27-1.502-9.405-3.485-18.489-9.879-35.826-19.886-51.756-9.623-15.29-21.835-27.99-37.565-37.138-11.637-6.75-24.105-10.812-37.565-11.612-13.459-.8-26.311 1.824-38.524 7.55-14.29 6.717-26.023 16.665-35.774 28.98-10.327 13.02-17.584 27.67-22.38 43.504-3.836 12.795-6.585 25.91-8.28 39.185-.127.96-.223 1.919-.351 2.879-9.463-10.556-13.843-21.08-13.843-21.08 1.438-1.279 2.621-2.719 3.229-4.574.287-.768.415-1.6.383-2.431-.16-1.696-1.055-2.975-2.302-4.031-.32-.288-.32-.256-.063-.608a28.342 28.342 0 0 0 6.074-16.089 21.15 21.15 0 0 0-1.215-8.797c-1.183-3.167-3.101-5.79-5.978-7.645a13.528 13.528 0 0 0-4.988-1.888 1.688 1.688 0 0 1-1.406-1.055c-.736-1.535-1.567-3.007-2.142-4.638-1.567-4.51-2.878-9.085-4.284-13.627-.704-2.335-1.44-4.67-2.334-6.91a24.268 24.268 0 0 0-3.39-6.11c-1.885-2.334-4.283-3.774-7.256-4.126a5.904 5.904 0 0 0-4.476 1.216 7.067 7.067 0 0 0-1.982 2.847 14.763 14.763 0 0 0-.96 4.062c-.191 1.888-.223 3.775-.16 5.662a37.006 37.006 0 0 0 1.312 8.989c.607 2.239 1.502 4.35 2.27 6.525.479 1.28.895 2.591 1.214 3.935.16.384.256.8.32 1.247a.785.785 0 0 1-.352-.544 92.614 92.614 0 0 1-3.133-6.461c-1.47-3.359-2.845-6.75-4.444-10.044-1.15-2.367-2.397-4.67-3.996-6.718a12.325 12.325 0 0 0-4.22-3.582c-1.503-.736-3.037-.928-4.604-.288-1.119.448-2.046 1.28-2.653 2.303-.767 1.247-1.375 2.59-1.726 4.03a19.015 19.015 0 0 0-.608 7.71c.192 1.279.32 2.526.607 3.806a24.81 24.81 0 0 0 1.855 5.438c1.183 2.303 2.557 4.542 4.124 6.59 1.375 1.919 2.75 3.838 4.028 5.821.128.16.224.352.256.544-1.023-.352-2.014-.16-2.973-.032a7.13 7.13 0 0 0-3.07 1.12c-1.886 1.247-2.877 3.07-3.26 5.246-.416 2.399-.064 4.734.703 7.037a23.169 23.169 0 0 0 6.01 9.372c.192.192.352.416.416.704.128.512.32.992.543 1.44a17.531 17.531 0 0 0 4.22 5.214c2.718 2.271 5.851 3.998 9.24 5.022.192.064.415.064.543.256-.224.319-.415.671-.64 1.023a5.45 5.45 0 0 0 .544 6.302 8.23 8.23 0 0 0 2.654 2.015c1.023.512 2.142.864 3.26 1.088.289.032.544.256.576.543.096.448.224.896.352 1.312a87.367 87.367 0 0 0 19.79 34.131 84.466 84.466 0 0 0 15.729 13.083 233.313 233.313 0 0 1-2.238 27.126c-1.854 13.211-5.499 26.006-9.623 38.641-.895 2.815-2.398 5.374-4.444 7.485-1.247 1.28-1.183 2.08.256 3.167a4.017 4.017 0 0 0 2.621.832c.8-.064 1.63-.032 2.398.16 2.941.831 5.978 1.023 9.016 1.279a15.99 15.99 0 0 1 6.394 1.824 55.663 55.663 0 0 1 5.85 3.646c5.467 3.903 10.678 8.157 15.825 12.475.896.736 1.759 1.472 2.686 2.176a5.28 5.28 0 0 0-1.758 2.399 15.87 15.87 0 0 0-.768 3.454c-.064.608.064 1.248-.415 1.76-.544-.032-.895-.448-1.279-.736-9.623-7.293-20.365-11.708-32.578-12.283-5.594-.288-11.03.384-16.24 2.495-3.645 1.503-7.066 3.422-9.4 6.749-.383.544-.959.768-1.47 1.12-2.782 1.727-4.476 4.222-5.371 7.357-.832 2.943-.736 5.918-.192 8.861 1.023 5.598 3.357 10.684 6.426 15.386 8.888 13.563 20.333 24.215 35.423 30.644.671.32 1.438.384 2.142.192 1.758-.416 3.484-.864 5.339-1.311.16.895-.256 1.503-.448 2.143-.767 2.527-.575 3.135 1.567 4.766 1.438 1.088 3.005 1.983 4.7 2.623 3.932 1.439 7.896 2.719 12.148 1.407.224-.064.48-.095.735-.063 3.517.255 6.362-1.344 9.048-3.359 2.909-2.207 5.211-4.958 7.321-7.901a49.67 49.67 0 0 0 5.147-9.277c.32-.735.608-.959 1.343-.48a5.72 5.72 0 0 0 4.508.672c3.9-.991 8.792-4.19 8.887-10.364.064-4.094-1.342-7.677-3.58-10.972-.512-.767-.799-1.471-.576-2.399 1.279-5.566 2.558-11.132 4.316-16.57 1.599-4.83 3.485-9.5 5.979-13.914h.032c4.412-1.6 8.855-1.632 13.235.32a33.275 33.275 0 0 1 9.975 7.069c3.613 3.679 7.129 7.453 11.253 10.62 6.043 4.638 12.597 5.502 19.63 2.719 3.709-1.44 6.81-3.807 9.463-6.686 8.281 10.013 19.15 15.643 32.514 16.986 1.375.128 1.375.096 1.598 1.439.416 2.559 1.279 4.959 3.133 6.846.608.64.416.991-.095 1.503-3.645 3.775-5.18 8.477-5.563 13.499-.768 9.501 1.854 18.105 7.449 25.75 3.453 4.735 7.769 8.413 13.523 10.013 4.156 1.151 8.312 1.343 12.245-1.088 1.31-.832 2.493-1.855 3.58-2.975a65.313 65.313 0 0 0 10.135-13.531c6.873-12.027 10.934-24.982 13.14-38.577.223-1.44-.032-2.463-1.055-3.487-1.503-1.439-2.814-3.071-4.476-4.894 2.014-.16 3.548-.256 5.115-.384 1.183-.096 1.503-.32 1.503-1.439.032-6.558.479-13.115-.48-19.577zM66.654 143.167a23.452 23.452 0 0 1-7.29 3.838 31.212 31.212 0 0 1-8.056 1.567 20.199 20.199 0 0 1-6.49-.479 9.528 9.528 0 0 1-3.26-1.408c-.8-.544-1.44-1.183-1.695-2.143a1.889 1.889 0 0 1-.064-.448 5.892 5.892 0 0 1 .767-3.103c.16-.256.32-.256.576-.224 2.142.416 4.316.608 6.49.48 1.15-.032 2.302-.224 3.42-.512a3.156 3.156 0 0 0 1.056-.479.47.47 0 0 0 .223-.64.455.455 0 0 0-.415-.288c-.48-.096-.96-.096-1.407-.096-2.334.096-4.7-.096-7.001-.512a27.712 27.712 0 0 1-12.437-5.822c-.064-.032-.096-.096-.16-.16-.064 0-.127-.064-.127-.127-.064 0-.096-.032-.128-.096-.064 0-.128-.032-.128-.096h-.064c0-.096-.064-.16-.16-.16l.096-.128.096.032c.032.064.096.096.16.064l.128.096c.096-.032.16 0 .223.096.096-.032.192 0 .224.064.831.191 1.695.351 2.494.607 1.63.544 3.325.736 5.02.512 2.685-.384 4.57-2.143 5.146-4.798a7.974 7.974 0 0 0-.128-3.583 14.343 14.343 0 0 0-2.11-4.734 23.92 23.92 0 0 0-10.166-8.765 12.474 12.474 0 0 0-3.58-1.023 1.55 1.55 0 0 0-.544 0 .578.578 0 0 0-.512.64c0 .191.128.351.256.447.16.096.352.192.544.288 1.534.672 3.005 1.44 4.38 2.367 3.548 2.431 6.457 5.438 8.184 9.437.575 1.247.863 2.591.799 3.934 0 .448-.096.864-.256 1.28-.447 1.055-1.279 1.631-2.366 1.855a8.075 8.075 0 0 1-3.708-.096c-1.119-.256-2.206-.608-3.325-.959a10.29 10.29 0 0 1-2.59-1.44c-2.749-1.887-4.827-4.35-6.553-7.165-1.311-2.143-2.302-4.415-2.622-6.942a8.635 8.635 0 0 1 .352-4.126c.223-.576.575-1.12.99-1.567a3.414 3.414 0 0 1 3.166-1.024c1.343.192 2.494.768 3.197 1.983a.601.601 0 0 0 .64.384c.319-.032.607-.256.67-.544a3.473 3.473 0 0 0 .064-2.207 34.253 34.253 0 0 0-3.516-7.421c-1.247-1.983-2.526-3.903-3.677-5.918a27.19 27.19 0 0 1-3.325-9.756c-.223-1.6-.48-3.23-.351-4.862.096-2.208.64-4.35 1.534-6.366.192-.384.416-.768.672-1.12a2.364 2.364 0 0 1 3.037-.767c1.087.48 2.078 1.183 2.845 2.111a21.183 21.183 0 0 1 2.973 4.51c1.311 2.527 2.43 5.118 3.517 7.741 1.087 2.56 2.046 5.15 3.23 7.645a42.882 42.882 0 0 0 2.237 4.35 9.64 9.64 0 0 0 1.599 2.016c.543.512 1.15.928 1.918.96.255 0 .287.128.32.352a6.945 6.945 0 0 1-.512 3.774c-.16.352-.352.704-.544 1.088-.128.256-.223.512-.351.735-.096.192-.064.416.096.544.191.128.447.128.607-.032.032-.032.096-.064.128-.096 1.918-1.407 2.941-3.71 2.781-6.077-.16-3.391-.799-6.782-1.854-10.013-.671-2.079-1.47-4.126-2.078-6.237a34.024 34.024 0 0 1-1.343-9.82c0-1.408 0-2.816.128-4.223.096-1.375.448-2.719.991-3.966.767-1.568 2.014-2.016 3.58-1.664a7.824 7.824 0 0 1 4.54 2.975 18.404 18.404 0 0 1 2.239 4.127c1.054 2.59 1.79 5.278 2.525 7.965.608 2.143 1.151 4.286 1.727 6.397.67 2.463 1.31 4.926 2.014 7.357.575 2.175 1.63 4.159 3.069 5.886.128.16.288.288.415.448.128.16.32.224.416.48-1.15.703-2.046 1.663-3.005 2.623a30.199 30.199 0 0 0-3.101 3.902c-.576.768-1.183 1.536-1.855 2.239-.927 1.024-2.046 1.792-3.165 2.623-2.43 1.696-4.284 4.063-5.307 6.846a15.167 15.167 0 0 0-.511 2.079c-.064.384.032.736.256 1.024 1.95 3.23 4.763 5.118 8.568 5.342 2.174.096 4.38-.384 6.298-1.44 3.58-1.887 6.138-4.798 7.96-8.381a17.701 17.701 0 0 0 1.727-5.086 11.3 11.3 0 0 0 .16-1.791c0-.192-.032-.352-.064-.544-.032-.224-.192-.352-.416-.384a.476.476 0 0 0-.48.224c-.096.16-.16.32-.223.512-.64 1.855-1.28 3.711-2.238 5.438-1.695 3.007-3.9 5.502-6.938 7.261a11.034 11.034 0 0 1-4.572 1.504c-2.749.256-5.05-.608-6.841-2.719a1.342 1.342 0 0 1-.32-.896c0-1.28.512-2.399 1.12-3.455.798-1.247 1.821-2.367 3.004-3.23.48-.384.96-.736 1.439-1.088 1.886-1.44 3.325-3.295 4.636-5.246a27.964 27.964 0 0 1 3.772-4.702c.544-.512 1.151-.96 1.79-1.344.128-.064.256-.128.416-.16a7.287 7.287 0 0 1 4.636.896c1.95 1.088 3.325 2.751 4.284 4.734a17.386 17.386 0 0 1 1.694 7.261c.128 5.534-1.47 10.556-4.508 15.131a20.928 20.928 0 0 1-6.01 6.077 18.09 18.09 0 0 1-5.883 2.527c-.351.064-.67.16-.99.288a.685.685 0 0 0-.544.672c0 .352.256.512.543.64.448.16.96.256 1.439.288a12.398 12.398 0 0 0 5.85-1.28 19.1 19.1 0 0 0 4.54-3.039l.16-.16c.384-.351.384-.351.736 0 .095.096.191.192.287.256a3.384 3.384 0 0 1 .8 4.095c-.544 1.215-1.567 2.367-2.75 3.263zm17.967 129.838c-.224.896-.671 1.024-1.438.896-5.116-.864-10.295.064-15.506-.544-.128-.384.384-.576.64-.863 3.197-3.583 5.05-7.933 6.841-12.316 3.996-9.82 6.938-19.928 8.472-30.452.831-5.662 1.279-11.356 1.727-17.05.255-3.327.32-6.653.383-10.012a84.144 84.144 0 0 0 8.6 4.03c2.238.896 4.508 1.664 6.81 2.368-.224 1.439-.416 2.878-.64 4.318-.159 1.151-.447 2.303-.703 3.455-.352 3.038-1.183 5.949-1.822 8.924-1.759 7.997-3.39 16.058-5.595 23.927-1.567 5.566-3.325 11.068-5.371 16.474-.863 2.271-1.79 4.51-2.398 6.845zm27.686 87.807c-4.507 1.376-9.047 2.719-13.555 4.095-2.526.767-5.051 1.631-7.673 2.495.352-3.039 2.014-4.351 4.7-5.118 4.987-1.44 9.879-3.327 14.802-4.991 1.694-.575 1.726-.575 2.366 1.184.096.224.192.448.256.704.383 1.183.351 1.247-.896 1.631zm15.442-9.852a51.432 51.432 0 0 1-2.909 6.333c-.8-8.988-4.38-16.313-9.943-22.711-.192-.192-.352-.384-.544-.576-.287-.032-.607-.32-.863-.064-.255.256-.032.576.096.832.576.96 1.151 1.919 1.759 2.847 3.165 5.054 5.466 10.428 6.394 16.346.319 2.079.351 4.222.064 6.301-.288 2.112-.96 4.095-2.558 5.662-.863.864-1.599 1.887-2.558 2.687-.16.288-.319.768-.703.448-.32-.256-.032-.64.256-.864.575-2.015.479-3.966.128-6.077-.32-1.856-.512-3.743-1.663-5.246-.991-1.28-1.375-2.655-1.662-4.191-1.119-6.078-3.805-11.547-7.162-16.666-8.472-12.859-19.501-22.967-33.28-29.908-5.18-2.623-10.647-4.447-16.497-4.862a25.218 25.218 0 0 0-4.668.16c2.174-1.792 4.508-2.016 6.714-2.559 4.252-1.376 8.44-.864 12.564.543 7.321 2.431 13.843 6.302 19.95 10.94 3.005 2.271 5.946 4.67 8.536 7.453a9.312 9.312 0 0 1 2.238 2.24c2.461 2.335 4.539 5.022 6.713 7.613.352.415.704.863 1.087 1.279.16.192.384.384.608.256.319-.192.096-.576.16-.864-3.805-7.517-9.591-13.339-15.858-18.776A78.486 78.486 0 0 0 75.99 297.7c-.543.064-.863-.352-1.279-.576.736-.224 1.44-.256 2.079.16 6.426.992 12.404 3.263 18.063 6.43a54.48 54.48 0 0 1 12.116 9.116c.512.512 1.119.992 1.439 1.664 2.686 2.591 4.923 5.566 7.097 8.572 1.951 2.719 4.029 5.342 6.139 7.933 1.502 1.824 3.133 3.583 4.316 5.598 2.621 4.479 3.868 9.245 1.79 14.363zm7.513-.352a3.222 3.222 0 0 1-1.822.16c-.736-.192-1.247-.608-1.215-1.408.351-6.749-2.59-12.283-6.458-17.433-3.869-5.15-7.609-10.236-10.582-15.93-.544-1.024-1.183-2.015-1.791-3.039-1.151-1.215-2.301-2.431-3.516-3.582-.512-.448-.8-1.12-.736-1.792a18.463 18.463 0 0 1 1.023-5.086c.384-1.183 1.215-1.759 2.398-1.759a27.006 27.006 0 0 0 3.261 1.791 142.44 142.44 0 0 0 4.028 1.759c.48 1.056.896 2.112 1.247 3.199 1.599 5.054 4.124 9.693 6.234 14.491.288.608.576 1.215.864 1.855 1.598 3.295 4.06 5.886 6.426 8.573 2.174 2.495 4.06 5.15 4.859 8.445.224.959.384 1.951.416 2.943.191 3.23-1.599 5.789-4.636 6.813zm47.603-41.072c-.191.159-.511-.128-.575-.448-3.037-2.847-5.851-5.95-9.016-8.637a48.258 48.258 0 0 0-5.179-3.615c-3.932-2.527-8.184-3.39-12.596-3.167a26.229 26.229 0 0 1 6.522-5.661c2.749-1.632 5.691-2.655 8.888-2.048 2.685.512 4.763-.255 6.522-2.175.351-.352.639-.735.959-1.119a230.3 230.3 0 0 0 2.557 16.857c.576 3.039 1.023 6.11 1.759 9.117.255.288.479.64.159.896zm57.898-45.199c-.255-.832-.415-1.696-.607-2.527-.16-.704-.384-1.376-1.215-1.408-.991 0-1.183.768-1.311 1.504-.128 1.055-.128 2.111.064 3.166a68.95 68.95 0 0 0 1.854 8.381c.128.416.32.8.224 1.28.768 2.367 1.503 4.702 2.27 7.069 1.151 2.943 2.27 5.886 3.421 8.861.352.895.735 1.823 1.183 2.943a28.12 28.12 0 0 0-6.554.287 38.33 38.33 0 0 1-3.197-3.646 27.715 27.715 0 0 1-2.941-5.182c-.8-1.728-2.654-2.111-3.709-.64-.639.864-1.247.992-2.174.928-2.941-.192-5.85.416-8.504 1.695a32.32 32.32 0 0 0-9.751 7.069c-.479.48-.831 1.056-1.598 1.216-.991.224-1.375.992-1.439 1.951-.096 1.312 0 2.623.224 3.903a25.963 25.963 0 0 0 4.22 10.076l.128.16c-2.302 2.815-5.083 5.182-8.568 6.525-4.476 1.76-8.632.864-12.596-1.631a2.997 2.997 0 0 1-1.535-2.623c.128-2.911-.735-5.662-1.279-8.445a814.855 814.855 0 0 1-5.339-29.045c1.119-3.391 1.247-7.037.544-10.94-.096-.48-.384-.959-.288-1.439.32-1.504-.416-2.655-1.279-3.743-.671-.831-1.375-1.631-2.174-2.335-.128-.736-.288-1.439-.415-2.175-.16-.864-.192-1.727-.32-2.591-.16-1.248-.224-1.28-1.695-1.152l-.511 1.376v2.367c-2.973-1.791-6.426-2.655-10.167-2.783-5.786-.192-11.125 1.663-16.144 4.414-6.65 3.679-12.085 8.669-16.561 14.587.607-3.871 1.215-7.709 1.599-11.612.479-4.894.927-9.788 1.406-14.65.512-5.182 1.087-10.396 1.631-15.578.575-5.438 1.055-10.876 1.374-16.346-.191-.544 0-1.12-.032-1.664.032-.255-.127-.479-.351-.607a.698.698 0 0 0-.831.224c-.32.447-.544.959-.64 1.535-2.749 12.667-5.499 25.334-7.353 38.194-1.375 9.66-3.165 19.224-4.987 28.789a60.398 60.398 0 0 1-2.622 9.692c-.639 1.855-1.215 3.775-1.95 5.598-.576 1.407-.735 1.407-2.046.672-2.526-1.376-4.796-3.135-7.002-4.927a164.755 164.755 0 0 0-17.136-12.187c-1.374-.864-2.781-1.631-4.22-2.399-.639-.352-.927-.64-.575-1.439.607-1.28.959-2.687 1.566-3.967 4.38-9.276 6.842-19.161 8.984-29.109 1.631-7.645 3.133-15.322 4.284-23.063.448-2.879.767-5.758 1.087-8.669 1.375.32 2.717.64 4.124.928a95.095 95.095 0 0 0 10.358 1.439c.32.032.608.096.896.224a1.864 1.864 0 0 0 2.429-.608c18.607-8.7 8.345-25.366 8.345-25.366a55.99 55.99 0 0 1-23.371-3.583c.096-1.759.064-3.55.128-5.31 0-.352-.096-.767.256-1.023.032-.416-.032-.768-.479-.896a.706.706 0 0 0-.864.512 9.198 9.198 0 0 0-.447 1.599c-.256 1.408-.544 2.815-.8 4.223-7.385-3.199-13.555-7.773-18.638-12.636.192-2.239.415-4.446.64-6.685a262.882 262.882 0 0 1 4.955-30.325c1.31-5.821 3.293-11.451 5.498-16.985.128-.288.288-.544.448-.8 1.343-3.87 3.197-7.549 5.083-11.164 5.755-11.035 12.82-21.112 21.74-29.876 11.541-11.324 24.905-19.513 40.762-23.16 16.145-3.806 31.81-2.11 46.996 4.543 1.407.607 2.877 1.151 4.156 2.047 4.156 1.855 7.929 4.382 11.573 7.07 13.332 9.756 23.562 22.23 31.555 36.593 8.376 15.035 13.747 31.093 16.624 48.046.544 3.327.768 6.686.736 10.044-.032 11.068-.16 22.136-.16 33.204 0 8.029-.064 16.058.192 24.087.415 13.243 2.557 26.23 7.033 38.737 2.526 7.069 6.202 13.435 12.404 18.009.16.16.288.32.416.512a6.584 6.584 0 0 1-2.621 1.631c-1.247.448-2.398.192-3.453-.671-2.27-1.856-3.901-4.159-5.275-6.686a140.554 140.554 0 0 1-8.121-17.369c-.415-1.056-.831-2.079-1.247-3.103-1.246-3.007-2.301-6.046-2.142-9.372.032-.576-.032-1.184-.767-1.28-.607-.096-.831.416-1.055.864a6.458 6.458 0 0 0-.703 3.614c.192 1.664.383 3.327.863 4.958 2.494 8.157 5.211 16.186 8.92 23.895a32.607 32.607 0 0 0 3.548 5.918c-3.357 3.231-6.138 7.006-9.719 10.012-3.005 2.527-6.266 4.703-9.782 6.462-3.645 1.855-7.609 2.143-11.638 2.047-.639.032-1.214-.352-1.406-.928-4.668-9.564-9.272-19.16-12.437-29.332zm16.401 36.786a41.352 41.352 0 0 0 8.184-.896 17.315 17.315 0 0 0-4.316 3.583c-.735.863-1.374.959-2.397.639-1.599-.511-3.197-1.023-4.732-1.663a50.847 50.847 0 0 1-5.147-2.495c2.749.512 5.563.8 8.408.832zm-3.357 30.452c2.909-.48 5.563-1.823 7.705-3.838 2.781-2.495 5.147-5.406 6.969-8.669.192-.32.416-.608.608-.928.735-2.047 1.726-3.966 2.366-6.045.671-2.336 1.087-4.735 1.151-7.134v-.576c-.064-.639-.128-1.343-.928-1.375-.671-.064-.927.48-1.087 1.056-.127.415-.255.831-.319 1.247-.096.8-.544.992-1.279.96a49.925 49.925 0 0 1-6.522-.896c3.645-2.399 6.97-4.478 11.222-3.966 2.461.287 3.964 1.919 4.891 4.126a14.04 14.04 0 0 1 .927 6.973c-1.023 10.109-5.563 18.297-13.523 24.599-1.151.896-2.398 1.759-3.901 2.047-1.119.736-2.429.928-3.74.96a6.184 6.184 0 0 1-5.563-2.847 9.153 9.153 0 0 1-1.055-2.175c-1.023-2.975-.991-3.039 2.078-3.519zm51.024-19.416a222.515 222.515 0 0 1-.831 10.396c-.128 1.439 0 1.503-1.662 1.663a25.682 25.682 0 0 0-3.485.64c-1.183.32-1.311.671-.735 1.727a32.622 32.622 0 0 0 3.165 4.606 4.44 4.44 0 0 1 .991 3.903c-2.654 14.17-7.225 27.637-15.282 39.729-2.749 4.222-6.042 8.061-9.751 11.483-2.973 2.687-6.234 3.103-9.91 1.216.031-.288.255-.384.479-.512 8.025-5.31 13.907-12.539 18.639-20.728 4.635-7.965 7.832-16.474 9.239-25.622.352-2.335.639-4.702.512-7.07-.032-.703.063-1.823-.736-1.887-.959-.064-.799 1.12-.863 1.759-.671 5.566-1.694 11.036-3.549 16.346-3.836 11.068-9.495 21.048-17.839 29.365a43.655 43.655 0 0 1-8.056 6.27c-.864.544-1.535.544-2.334-.096-1.055-.864-2.27-1.536-3.133-2.623-3.901-3.455-6.522-7.773-8.345-12.571-2.589-6.782-3.356-13.691-1.31-20.793a21.123 21.123 0 0 1 3.069-6.333c.32-.48.607-.896 1.343-.608 3.452 1.408 6.809.768 10.102-.608.224-.096.48-.16.703-.224 4.125-2.367 7.513-5.598 10.519-9.244a49.8 49.8 0 0 0 6.362-12.699c.287-1.472.575-2.911.831-4.383.703-4.35.447-8.54-1.758-12.475-.064-.192-.096-.384-.128-.576 4.444-.863 8.887-.991 13.363-.767.959.032 1.375.447 1.631 1.375 1.47 5.406 2.078 10.844 1.438 16.41-.128 1.055-.192 2.079-.255 3.135 0 .064.063.096.159.256.896-.128 1.055-.896 1.279-1.568.672-2.079 1.215-4.19 1.311-6.365.128-4.095.288-8.221-1.087-12.38 1.822.16 3.325.8 4.891 1.312.576.192.64.703.672 1.215.192 2.463.479 4.894.351 7.326z" fill="#2C2729" style="fill:color(display-p3 .1725 .1529 .1608);fill-opacity:1"/></g><defs><linearGradient id="c" x1="541.277" y1="25.231" x2="526.567" y2="221.235" gradientUnits="userSpaceOnUse"><stop stop-color="#65C6E0" style="stop-color:color(display-p3 .3961 .7765 .8784);stop-opacity:1"/><stop offset="1" stop-color="#3CACC9" style="stop-color:color(display-p3 .2371 .6752 .787);stop-opacity:1"/></linearGradient><linearGradient id="e" x1="584.995" y1="210.213" x2="587.855" y2="328.133" gradientUnits="userSpaceOnUse"><stop stop-color="#DC76D0" style="stop-color:color(display-p3 .8627 .4627 .8157);stop-opacity:1"/><stop offset="1" stop-color="#CB41BB" style="stop-color:color(display-p3 .7974 .2562 .7337);stop-opacity:1"/></linearGradient><filter id="b" x="364.241" y="94.748" width="496.633" height="135.596" filterUnits="userSpaceOnUse" color-interpolation-filters="sRGB"><feFlood flood-opacity="0" result="BackgroundImageFix"/><feColorMatrix in="SourceAlpha" values="0 0 0 0 0 0 0 0 0 0 0 0 0 0 0 0 0 0 127 0" result="hardAlpha"/><feOffset dy="4.778"/><feGaussianBlur stdDeviation="2.389"/><feComposite in2="hardAlpha" operator="out"/><feColorMatrix values="0 0 0 0 0 0 0 0 0 0 0 0 0 0 0 0 0 0 0.08 0"/><feBlend in2="BackgroundImageFix" result="effect1_dropShadow_474_230"/><feBlend in="SourceGraphic" in2="effect1_dropShadow_474_230" result="shape"/></filter><filter id="d" x="367.682" y="219.601" width="571.111" height="136.612" filterUnits="userSpaceOnUse" color-interpolation-filters="sRGB"><feFlood flood-opacity="0" result="BackgroundImageFix"/><feColorMatrix in="SourceAlpha" values="0 0 0 0 0 0 0 0 0 0 0 0 0 0 0 0 0 0 127 0" result="hardAlpha"/><feOffset dy="5.05"/><feGaussianBlur stdDeviation="2.525"/><feComposite in2="hardAlpha" operator="out"/><feColorMatrix values="0 0 0 0 0 0 0 0 0 0 0 0 0 0 0 0 0 0 0.08 0"/><feBlend in2="BackgroundImageFix" result="effect1_dropShadow_474_230"/><feBlend in="SourceGraphic" in2="effect1_dropShadow_474_230" result="shape"/></filter><radialGradient id="a" cx="0" cy="0" r="1" gradientUnits="userSpaceOnUse" gradientTransform="matrix(0 178.5 -184.5 0 184.5 178.5)"><stop offset=".435" stop-color="#FFFFAB" style="stop-color:color(display-p3 1 1 .6725);stop-opacity:1"/><stop offset="1" stop-color="#FEFFE5" stop-opacity="0" style="stop-color:none;stop-opacity:0"/></radialGradient></defs></svg>